<?xml version="1.0" encoding="utf-8"?>
<!-- Generator: Adobe Illustrator 16.0.0, SVG Export Plug-In . SVG Version: 6.00 Build 0)  -->
<!DOCTYPE svg PUBLIC "-//W3C//DTD SVG 1.1//EN" "http://www.w3.org/Graphics/SVG/1.1/DTD/svg11.dtd">
<svg version="1.1" id="Слой_1" xmlns="http://www.w3.org/2000/svg" xmlns:xlink="http://www.w3.org/1999/xlink" x="0px" y="0px"
	 width="1013.73px" height="209.107px" viewBox="0 0 1013.73 209.107" enable-background="new 0 0 1013.73 209.107"
	 xml:space="preserve">
<path fill="#FFFFFF" d="M49.91,93.772h0.269l8.633,29.676h-18.21L49.91,93.772z M0,157.845h29.811l4.316-13.76h30.619l4.047,13.76
	h30.754l-35.07-96.312l-14.454-39.54L0,157.845z"/>
<polygon fill="#FFFFFF" points="164.958,61.534 164.958,113.062 164.688,113.062 136.631,61.534 106.282,61.534 106.282,157.845 
	134.338,157.845 134.338,105.238 134.608,105.238 192.958,209.107 193.015,61.534 "/>
<polygon fill="#FFFFFF" points="231.042,86.219 204.064,86.219 204.064,61.534 287.695,61.534 287.695,86.219 260.718,86.219 
	260.718,157.845 231.042,157.845 "/>
<rect x="298.615" y="61.534" fill="#FFFFFF" width="29.674" height="96.312"/>
<g>
	<defs>
		<rect id="SVGID_1_" width="1013.732" height="209.107"/>
	</defs>
	<clipPath id="SVGID_2_">
		<use xlink:href="#SVGID_1_"  overflow="visible"/>
	</clipPath>
	<path clip-path="url(#SVGID_2_)" fill="#FFFFFF" d="M388.176,59.241c24.684,0,40.063,13.219,44.38,36.015h-28.463
		c-1.079-7.014-7.015-12.004-14.029-12.004c-19.154,0-19.693,18.209-19.693,28.056c0,9.038,3.777,24.82,21.716,24.82
		c6.881,0,13.894-3.509,15.378-10.656H394.38v-20.638h39.388v53.011h-18.75l-0.944-9.848c-6.61,8.634-16.726,12.141-27.383,12.141
		c-28.461,0-45.998-22.122-45.998-49.504C340.693,73.944,366.593,59.241,388.176,59.241"/>
	<path clip-path="url(#SVGID_2_)" fill="#FFFFFF" d="M494.458,59.241c29.272,0,48.83,21.042,48.83,50.449
		c0,29.405-19.558,50.448-48.83,50.448c-29.27,0-48.83-21.043-48.83-50.448C445.628,80.283,465.188,59.241,494.458,59.241
		 M494.458,136.128c7.554,0,19.155-4.991,19.155-26.438c0-21.448-11.601-26.438-19.155-26.438c-7.553,0-19.154,4.99-19.154,26.438
		C475.304,131.137,486.905,136.128,494.458,136.128"/>
	<polygon clip-path="url(#SVGID_2_)" fill="#FFFFFF" points="555.823,61.534 585.497,61.534 585.497,133.16 628.122,133.16 
		628.122,157.845 555.823,157.845 	"/>
	<path clip-path="url(#SVGID_2_)" fill="#FFFFFF" d="M680.317,59.241c29.272,0,48.83,21.042,48.83,50.449
		c0,29.405-19.558,50.448-48.83,50.448c-29.27,0-48.829-21.043-48.829-50.448C631.488,80.283,651.048,59.241,680.317,59.241
		 M680.317,136.128c7.555,0,19.155-4.991,19.155-26.438c0-21.448-11.601-26.438-19.155-26.438c-7.554,0-19.153,4.99-19.153,26.438
		C661.164,131.137,672.764,136.128,680.317,136.128"/>
	<polygon clip-path="url(#SVGID_2_)" fill="#FFFFFF" points="741.681,61.534 771.354,61.534 771.354,133.16 813.979,133.16 
		813.979,157.845 741.681,157.845 	"/>
	<polygon clip-path="url(#SVGID_2_)" fill="#FFFFFF" points="826.652,61.534 906.371,61.534 906.371,86.219 856.326,86.219 
		856.326,98.224 901.785,98.224 901.785,121.154 856.326,121.154 856.326,133.16 907.854,133.16 907.854,157.845 826.652,157.845 	
		"/>
	<path clip-path="url(#SVGID_2_)" fill="#FFFFFF" d="M921.604,61.534h48.694c31.969,0,43.433,23.741,43.433,48.021
		c0,29.675-15.646,48.29-49.234,48.29h-42.893V61.534z M962.881,133.16c18.343,0,21.177-14.973,21.177-24.01
		c0-6.07-1.754-22.931-23.336-22.931h-9.443v46.941H962.881z"/>
	<rect x="106.281" clip-path="url(#SVGID_2_)" fill="#006C49" width="221.897" height="45.247"/>
	<path clip-path="url(#SVGID_2_)" fill="#FFFFFF" d="M130.293,31.5V14.712h2.639c1.531,0,2.651,0.099,3.359,0.297
		c1.006,0.267,1.806,0.761,2.4,1.484c0.594,0.723,0.891,1.575,0.891,2.556c0,0.639-0.135,1.219-0.405,1.74
		c-0.27,0.521-0.71,1.01-1.318,1.467c1.019,0.479,1.765,1.078,2.236,1.797c0.472,0.719,0.708,1.569,0.708,2.551
		c0,0.943-0.244,1.803-0.731,2.579c-0.488,0.776-1.116,1.356-1.885,1.74S136.355,31.5,135,31.5H130.293z M133.488,17.759v3.538
		h0.699c0.779,0,1.357-0.163,1.735-0.491c0.378-0.327,0.567-0.772,0.567-1.335c0-0.525-0.179-0.941-0.538-1.249
		c-0.359-0.309-0.905-0.463-1.638-0.463H133.488z M133.488,24.15v4.302h0.801c1.327,0,2.222-0.167,2.683-0.502
		c0.462-0.335,0.693-0.822,0.693-1.461c0-0.722-0.271-1.293-0.813-1.711c-0.542-0.419-1.442-0.628-2.7-0.628H133.488z"/>
	<path clip-path="url(#SVGID_2_)" fill="#FFFFFF" d="M143.736,14.712h3.207v10.855c0,0.935,0.081,1.597,0.245,1.984
		c0.164,0.388,0.434,0.698,0.81,0.93c0.377,0.232,0.831,0.347,1.364,0.347c0.563,0,1.048-0.129,1.455-0.387
		c0.407-0.259,0.688-0.587,0.844-0.986c0.156-0.399,0.234-1.162,0.234-2.287V14.712h3.207v10.008c0,1.689-0.095,2.861-0.285,3.515
		c-0.19,0.654-0.554,1.286-1.09,1.894c-0.536,0.609-1.155,1.06-1.854,1.353c-0.7,0.293-1.514,0.439-2.443,0.439
		c-1.217,0-2.276-0.28-3.178-0.839c-0.901-0.559-1.546-1.259-1.934-2.099c-0.388-0.841-0.582-2.262-0.582-4.263V14.712z
		 M146.886,10.137c0.456,0,0.844,0.16,1.164,0.479c0.319,0.32,0.479,0.704,0.479,1.153c0,0.456-0.16,0.844-0.479,1.164
		c-0.32,0.319-0.708,0.479-1.164,0.479c-0.449,0-0.833-0.16-1.153-0.479c-0.32-0.32-0.479-0.708-0.479-1.164
		c0-0.449,0.159-0.833,0.479-1.153C146.053,10.296,146.438,10.137,146.886,10.137 M151.941,10.137c0.456,0,0.844,0.16,1.164,0.479
		c0.32,0.32,0.479,0.704,0.479,1.153c0,0.456-0.159,0.844-0.479,1.164c-0.32,0.319-0.708,0.479-1.164,0.479
		c-0.449,0-0.833-0.16-1.153-0.479c-0.319-0.32-0.479-0.708-0.479-1.164c0-0.449,0.16-0.833,0.479-1.153
		C151.108,10.296,151.492,10.137,151.941,10.137"/>
	<path clip-path="url(#SVGID_2_)" fill="#FFFFFF" d="M159.028,14.712h3.385c1.854,0,3.175,0.166,3.961,0.497
		c0.787,0.331,1.419,0.88,1.898,1.649c0.479,0.768,0.718,1.677,0.718,2.727c0,1.103-0.264,2.026-0.793,2.767
		c-0.529,0.742-1.325,1.303-2.39,1.684l3.976,7.463h-3.493l-3.775-7.11h-0.292v7.11h-3.195V14.712z M162.224,21.274h1.001
		c1.016,0,1.716-0.134,2.099-0.401c0.383-0.267,0.575-0.71,0.575-1.328c0-0.366-0.095-0.685-0.285-0.956s-0.444-0.465-0.762-0.584
		c-0.319-0.118-0.902-0.177-1.752-0.177h-0.876V21.274z"/>
	<path clip-path="url(#SVGID_2_)" fill="#FFFFFF" d="M187.866,17.452l-2.25,2.225c-1.424-1.506-3.084-2.259-4.98-2.259
		c-1.652,0-3.036,0.548-4.152,1.643c-1.115,1.096-1.673,2.427-1.673,3.994c0,1.621,0.579,2.994,1.736,4.12
		c1.158,1.126,2.586,1.689,4.284,1.689c1.105,0,2.036-0.232,2.794-0.696c0.757-0.464,1.368-1.191,1.833-2.18h-4.861v-3.001h8.444
		l0.023,0.707c0,1.469-0.38,2.861-1.141,4.177c-0.761,1.316-1.746,2.32-2.956,3.013c-1.209,0.692-2.628,1.038-4.256,1.038
		c-1.742,0-3.296-0.378-4.662-1.135c-1.366-0.757-2.446-1.836-3.241-3.236c-0.795-1.399-1.192-2.91-1.192-4.53
		c0-2.221,0.734-4.154,2.202-5.797c1.742-1.955,4.009-2.933,6.801-2.933c1.461,0,2.827,0.27,4.097,0.81
		C185.789,15.558,186.838,16.341,187.866,17.452"/>
	<polygon clip-path="url(#SVGID_2_)" fill="#FFFFFF" points="192.008,14.713 201.172,14.713 201.172,17.84 195.18,17.84 
		195.18,20.875 201.172,20.875 201.172,23.945 195.18,23.945 195.18,28.361 201.172,28.361 201.172,31.5 192.008,31.5 	"/>
	<path clip-path="url(#SVGID_2_)" fill="#FFFFFF" d="M204.367,14.712h3.385c1.854,0,3.175,0.166,3.961,0.497
		c0.787,0.331,1.419,0.88,1.898,1.649c0.479,0.768,0.718,1.677,0.718,2.727c0,1.103-0.264,2.026-0.793,2.767
		c-0.529,0.742-1.325,1.303-2.39,1.684l3.976,7.463h-3.493l-3.775-7.11h-0.292v7.11h-3.195V14.712z M207.563,21.274h1.001
		c1.016,0,1.716-0.134,2.099-0.401c0.383-0.267,0.575-0.71,0.575-1.328c0-0.366-0.095-0.685-0.285-0.956s-0.444-0.465-0.762-0.584
		c-0.319-0.118-0.902-0.177-1.752-0.177h-0.876V21.274z"/>
	<path clip-path="url(#SVGID_2_)" fill="#FFFFFF" d="M226.517,16.995l-2.367,2.088c-0.83-1.156-1.676-1.734-2.538-1.734
		c-0.419,0-0.762,0.112-1.028,0.336c-0.267,0.225-0.401,0.478-0.401,0.759c0,0.282,0.096,0.548,0.286,0.799
		c0.259,0.335,1.041,1.054,2.344,2.157c1.219,1.02,1.958,1.662,2.217,1.929c0.648,0.654,1.107,1.28,1.378,1.877
		c0.27,0.597,0.406,1.249,0.406,1.957c0,1.377-0.476,2.514-1.428,3.412s-2.194,1.347-3.725,1.347c-1.195,0-2.237-0.293-3.124-0.879
		c-0.887-0.586-1.647-1.506-2.279-2.762l2.686-1.62c0.807,1.483,1.737,2.225,2.788,2.225c0.549,0,1.01-0.16,1.383-0.479
		c0.374-0.32,0.56-0.689,0.56-1.107c0-0.381-0.141-0.761-0.422-1.141c-0.283-0.381-0.904-0.963-1.864-1.746
		c-1.829-1.491-3.01-2.642-3.544-3.452c-0.533-0.811-0.8-1.619-0.8-2.425c0-1.164,0.444-2.163,1.331-2.996
		c0.888-0.833,1.983-1.25,3.285-1.25c0.838,0,1.636,0.194,2.394,0.582C224.813,15.26,225.633,15.968,226.517,16.995"/>
	<path clip-path="url(#SVGID_2_)" fill="#FFFFFF" d="M245.29,17.663l-2.235,2.13c-1.52-1.606-3.23-2.41-5.131-2.41
		c-1.603,0-2.955,0.549-4.053,1.645c-1.098,1.097-1.647,2.449-1.647,4.055c0,1.12,0.243,2.114,0.729,2.982
		c0.487,0.868,1.175,1.55,2.064,2.045c0.889,0.495,1.878,0.742,2.964,0.742c0.928,0,1.775-0.173,2.543-0.52
		c0.768-0.346,1.611-0.976,2.531-1.89l2.167,2.26c-1.241,1.211-2.412,2.05-3.515,2.518c-1.103,0.468-2.363,0.702-3.778,0.702
		c-2.609,0-4.745-0.828-6.407-2.482c-1.663-1.655-2.494-3.776-2.494-6.362c0-1.674,0.379-3.161,1.136-4.462
		c0.757-1.301,1.841-2.347,3.252-3.139c1.411-0.791,2.931-1.186,4.559-1.186c1.385,0,2.718,0.292,4,0.877
		C243.257,15.753,244.362,16.585,245.29,17.663"/>
	<polygon clip-path="url(#SVGID_2_)" fill="#FFFFFF" points="248.074,14.713 251.315,14.713 251.315,21.047 256.918,21.047 
		256.918,14.713 260.148,14.713 260.148,31.5 256.918,31.5 256.918,24.139 251.315,24.139 251.315,31.5 248.074,31.5 	"/>
	<path clip-path="url(#SVGID_2_)" fill="#FFFFFF" d="M263.868,14.713h3.207v10.855c0,0.935,0.081,1.597,0.245,1.984
		c0.164,0.388,0.434,0.698,0.81,0.93c0.377,0.231,0.831,0.347,1.364,0.347c0.563,0,1.048-0.129,1.455-0.387
		c0.407-0.259,0.688-0.587,0.845-0.987c0.155-0.399,0.233-1.161,0.233-2.286V14.713h3.207v10.008c0,1.689-0.095,2.861-0.285,3.515
		c-0.19,0.654-0.554,1.286-1.09,1.894c-0.536,0.609-1.155,1.06-1.854,1.353c-0.7,0.292-1.514,0.439-2.443,0.439
		c-1.217,0-2.276-0.28-3.178-0.839c-0.901-0.559-1.546-1.259-1.934-2.1c-0.388-0.84-0.582-2.261-0.582-4.262V14.713z"/>
	<polygon clip-path="url(#SVGID_2_)" fill="#FFFFFF" points="278.932,14.713 282.173,14.713 282.173,21.047 287.775,21.047 
		287.775,14.713 291.005,14.713 291.005,31.5 287.775,31.5 287.775,24.139 282.173,24.139 282.173,31.5 278.932,31.5 	"/>
	<polygon clip-path="url(#SVGID_2_)" fill="#FFFFFF" points="294.851,14.713 304.015,14.713 304.015,17.84 298.023,17.84 
		298.023,20.875 304.015,20.875 304.015,23.945 298.023,23.945 298.023,28.361 304.015,28.361 304.015,31.5 294.851,31.5 	"/>
</g>
</svg>
