<?xml version="1.0" encoding="UTF-8" standalone="no"?>
<!-- Generator: Adobe Illustrator 16.0.0, SVG Export Plug-In . SVG Version: 6.00 Build 0)  -->

<svg
   xmlns:dc="http://purl.org/dc/elements/1.1/"
   xmlns:cc="http://creativecommons.org/ns#"
   xmlns:rdf="http://www.w3.org/1999/02/22-rdf-syntax-ns#"
   xmlns:svg="http://www.w3.org/2000/svg"
   xmlns="http://www.w3.org/2000/svg"
   xmlns:sodipodi="http://sodipodi.sourceforge.net/DTD/sodipodi-0.dtd"
   xmlns:inkscape="http://www.inkscape.org/namespaces/inkscape"
   version="1.1"
   id="Capa_1"
   x="0px"
   y="0px"
   width="92.1315"
   height="90.412247"
   viewBox="0 0 92.131496 90.412243"
   xml:space="preserve"
   sodipodi:docname="multiply.svg"
   inkscape:version="0.92.4 (5da689c313, 2019-01-14)"><metadata
   id="metadata43"><rdf:RDF><cc:Work
       rdf:about=""><dc:format>image/svg+xml</dc:format><dc:type
         rdf:resource="http://purl.org/dc/dcmitype/StillImage" /><dc:title></dc:title></cc:Work></rdf:RDF></metadata><defs
   id="defs41" /><sodipodi:namedview
   pagecolor="#ffffff"
   bordercolor="#666666"
   borderopacity="1"
   objecttolerance="10"
   gridtolerance="10"
   guidetolerance="10"
   inkscape:pageopacity="0"
   inkscape:pageshadow="2"
   inkscape:window-width="716"
   inkscape:window-height="480"
   id="namedview39"
   showgrid="false"
   fit-margin-top="0"
   fit-margin-left="0"
   fit-margin-right="0"
   fit-margin-bottom="0"
   inkscape:zoom="2.561542"
   inkscape:cx="46.066002"
   inkscape:cy="45.205998"
   inkscape:window-x="0"
   inkscape:window-y="0"
   inkscape:window-maximized="0"
   inkscape:current-layer="Capa_1" />
<g
   id="g6"
   style="fill:#ffffff;fill-opacity:1"
   transform="translate(6.5651262e-8,-0.85975)">
	<g
   id="g4"
   style="fill:#ffffff;fill-opacity:1">
		<path
   d="m 2.141,89.13 c 1.425,1.429 3.299,2.142 5.167,2.142 1.869,0 3.742,-0.713 5.167,-2.142 L 46.066,55.538 79.657,89.13 c 1.426,1.429 3.299,2.142 5.167,2.142 1.867,0 3.74,-0.713 5.167,-2.142 2.854,-2.854 2.854,-7.48 0,-10.334 L 56.398,45.205 88.267,13.336 c 2.855,-2.853 2.855,-7.481 0,-10.334 -2.853,-2.855 -7.479,-2.855 -10.334,0 L 46.065,34.87 14.198,3.001 C 11.344,0.146 6.717,0.146 3.865,3.001 1.01,5.854 1.01,10.482 3.865,13.335 L 35.733,45.204 2.143,78.795 c -2.857,2.853 -2.857,7.479 -0.002,10.335 z"
   id="path2"
   style="fill:#ffffff;fill-opacity:1"
   inkscape:connector-curvature="0" />
	</g>
</g>
<g
   id="g8"
   transform="translate(6.5651262e-8,-0.85975)">
</g>
<g
   id="g10"
   transform="translate(6.5651262e-8,-0.85975)">
</g>
<g
   id="g12"
   transform="translate(6.5651262e-8,-0.85975)">
</g>
<g
   id="g14"
   transform="translate(6.5651262e-8,-0.85975)">
</g>
<g
   id="g16"
   transform="translate(6.5651262e-8,-0.85975)">
</g>
<g
   id="g18"
   transform="translate(6.5651262e-8,-0.85975)">
</g>
<g
   id="g20"
   transform="translate(6.5651262e-8,-0.85975)">
</g>
<g
   id="g22"
   transform="translate(6.5651262e-8,-0.85975)">
</g>
<g
   id="g24"
   transform="translate(6.5651262e-8,-0.85975)">
</g>
<g
   id="g26"
   transform="translate(6.5651262e-8,-0.85975)">
</g>
<g
   id="g28"
   transform="translate(6.5651262e-8,-0.85975)">
</g>
<g
   id="g30"
   transform="translate(6.5651262e-8,-0.85975)">
</g>
<g
   id="g32"
   transform="translate(6.5651262e-8,-0.85975)">
</g>
<g
   id="g34"
   transform="translate(6.5651262e-8,-0.85975)">
</g>
<g
   id="g36"
   transform="translate(6.5651262e-8,-0.85975)">
</g>
</svg>