<svg width="90" height="90" viewBox="0 0 90 90" fill="none" xmlns="http://www.w3.org/2000/svg">
<path d="M28.7659 24.0121L28.7664 24.0112C30.3303 21.1352 32.702 18.5311 35.2903 16.8679C37.4119 15.4975 39.8466 14.5078 41.8953 14.2304C41.896 14.2303 41.8967 14.2302 41.8975 14.2301L42.0344 14.211C42.5307 14.1417 43.0756 14.0657 43.2756 14.0405C43.7495 13.9745 44.5374 13.9972 45.2803 14.0518C46.0551 14.1088 46.9101 14.2108 47.5492 14.3428C51.4592 15.1494 55.3701 17.9956 57.8402 21.7273L57.8414 21.7291C59.3266 23.9835 60.6225 27.1034 61.2284 29.9453C61.3515 30.5009 61.5198 31.5626 61.6472 32.472C61.7119 32.9335 61.7682 33.3712 61.8046 33.7033C61.8226 33.8674 61.837 34.0168 61.8446 34.1342C61.8482 34.1903 61.8515 34.2573 61.8509 34.3219C61.8506 34.352 61.8494 34.4051 61.8419 34.4667C61.8382 34.4972 61.8306 34.5496 61.8141 34.6122C61.8019 34.6581 61.7635 34.797 61.6585 34.944L61.6104 35.0113L61.5518 35.0698C61.3932 35.2284 61.2239 35.2917 61.1463 35.3163C61.0582 35.3442 60.9846 35.354 60.9437 35.3581C60.8624 35.3663 60.7979 35.3625 60.773 35.3608C60.7165 35.3569 60.6715 35.349 60.6563 35.3463C60.6179 35.3394 60.5832 35.3312 60.5641 35.3265C60.5203 35.3159 60.4678 35.3017 60.4145 35.2869C60.3047 35.2563 60.153 35.2122 59.9734 35.1589C59.6127 35.052 59.1205 34.9028 58.5837 34.7386C58.5833 34.7384 58.5829 34.7383 58.5825 34.7382L56.6277 34.1455L56.0006 33.9553L55.9247 33.3044L55.8363 32.5468L55.836 32.5446C55.565 30.1757 54.3375 26.8895 52.9137 24.7234C51.3857 22.4046 49.6899 20.9683 47.8176 20.2789C45.9491 19.5909 43.7815 19.6011 41.2214 20.4045C39.4055 20.978 38.0067 21.7257 36.8261 22.7708C35.6406 23.8203 34.6271 25.2123 33.6415 27.141L33.6402 27.1434C32.7752 28.8246 32.3989 29.8284 32.0021 31.3674C30.7901 36.0702 31.0562 42.17 32.686 46.9149C33.2684 48.5873 34.3516 51.024 34.8924 51.9101L34.895 51.9142L35.0215 52.1239L35.3816 52.1391L35.3848 52.1392C37.41 52.2313 39.1897 53.3892 40.0342 55.2294C40.2027 55.587 40.3345 55.9071 40.41 56.2914C40.4825 56.6606 40.4935 57.043 40.4935 57.5069C40.4935 57.9709 40.4825 58.3532 40.41 58.7224C40.3346 59.1062 40.203 59.426 40.0349 59.783C39.4975 60.9636 38.5452 61.869 37.3586 62.4258C37.0216 62.5871 36.7126 62.7124 36.3332 62.7841C35.9743 62.8519 35.5955 62.863 35.1374 62.863V62.8631L35.1237 62.8629C34.6623 62.8566 34.2847 62.8415 33.9277 62.7687C33.5489 62.6916 33.2421 62.5603 32.9046 62.3949L32.9046 62.395L32.8972 62.3913C31.7401 61.8127 30.8331 60.8923 30.2816 59.728L30.2816 59.728L30.278 59.7203C29.6856 58.442 29.6307 56.7703 30.19 55.4726C30.2239 55.3923 30.2513 55.3274 30.2743 55.2712C28.0321 51.4334 26.3087 46.3899 25.6747 41.7362C25.5375 40.7791 25.4851 39.1772 25.4962 37.6353C25.5073 36.0902 25.5829 34.4953 25.7271 33.5547L25.7279 33.5496C26.2337 30.3595 27.4875 26.3691 28.7659 24.0121Z" stroke="white" stroke-width="2"/>
<path d="M69.784 53.4677L69.7842 53.468C70.8968 55.7174 71.4001 57.7003 71.3632 59.5196C71.3266 61.3256 70.7563 63.0443 69.6002 64.7743C69.2808 65.2386 68.7042 65.8875 68.0606 66.5113C67.411 67.141 66.7697 67.6707 66.3468 67.9286L66.3465 67.9287C63.674 69.5594 59.5388 69.9155 55.3653 68.7058L55.3536 68.7023L55.3535 68.7024C54.7998 68.5492 54.0291 68.2846 53.6614 68.1427L53.6502 68.1382C53.4858 68.0718 53.3336 68.0104 53.2081 67.966C53.0918 67.9248 52.9017 67.8614 52.6891 67.8501C52.4112 67.8353 52.1523 67.9092 51.9297 68.0596C51.7882 68.1552 51.6709 68.2811 51.6302 68.3248C51.6265 68.3287 51.6235 68.332 51.6211 68.3345L51.5961 68.3609L51.5934 68.3641C51.5876 68.3692 51.559 68.3965 51.493 68.4538C51.4029 68.532 51.279 68.6353 51.1275 68.759C50.8265 69.0047 50.4362 69.3146 50.0289 69.6341C49.6086 69.9576 49.2285 70.2678 48.9535 70.5103C48.8191 70.6288 48.6917 70.7471 48.5946 70.8504C48.5519 70.8958 48.4807 70.9741 48.4184 71.0685C48.3923 71.108 48.3235 71.2151 48.2797 71.3648C48.2471 71.4757 48.1307 71.9652 48.5338 72.3683L48.5641 72.3986L48.5968 72.4261C48.6991 72.5123 48.8081 72.5705 48.8496 72.5926C48.9111 72.6255 48.9786 72.658 49.0452 72.6886C49.1795 72.7503 49.3472 72.8213 49.5326 72.8965C49.9055 73.0477 50.3844 73.2297 50.8863 73.4122C51.8712 73.7704 53.016 74.1563 53.6447 74.3106C56.5365 75.0492 60.1897 75.2106 62.9047 74.7158C66.5783 74.0502 70.2759 72.1541 72.7888 69.6414C75.7256 66.7176 76.9716 63.6044 76.9584 59.3359C76.9584 59.3355 76.9584 59.3351 76.9584 59.3347L69.784 53.4677ZM69.784 53.4677C68.7632 51.4019 67.7061 49.9492 65.933 48.1761C61.3032 43.5463 54.2534 40.6078 47.2534 40.3877C46.1574 40.3564 45.6443 40.3594 45.3746 40.3987C44.8814 41.2927 43.9279 42.1444 42.9689 42.5811C42.6119 42.7492 42.2921 42.8808 41.9083 42.9562C41.5392 43.0287 41.1568 43.0397 40.6929 43.0397C40.2224 43.0397 39.8283 43.0332 39.4444 42.9514C39.0455 42.8664 38.7102 42.7124 38.3274 42.5179C36.3972 41.5728 35.3605 39.8397 35.3746 37.68C35.375 37.1017 35.4652 36.3156 35.6374 35.8503M69.784 53.4677L35.6374 35.8503M35.6374 35.8503C36.2156 34.2592 37.7192 32.8849 39.3323 32.4727C39.882 32.3311 40.5258 32.2995 41.115 32.341C41.6957 32.3818 42.3239 32.5006 42.8301 32.7299C43.6768 33.1012 44.5946 33.8305 45.1134 34.5888L45.1505 34.6416L47.0747 34.7017C55.9008 34.9735 63.4688 37.931 69.262 43.4624L35.6374 35.8503ZM50.0432 72.2298C50.0433 72.2297 50.0445 72.2284 50.0467 72.2258C50.0442 72.2285 50.0431 72.2298 50.0432 72.2298ZM49.7808 70.8224C49.7806 70.8223 49.7835 70.8241 49.79 70.8275C49.7843 70.8241 49.781 70.8224 49.7808 70.8224Z" stroke="white" stroke-width="2"/>
<path d="M21.3881 42.7811L21.3881 42.7811C17.9548 45.4778 15.2177 49.2199 13.9123 53.0697C12.7318 56.5446 12.6938 60.7268 13.8169 64.2969L21.3881 42.7811ZM21.3881 42.7811L21.3977 42.7737M21.3881 42.7811L21.3977 42.7737M21.3977 42.7737C21.702 42.5406 21.9894 42.3297 22.2091 42.1797C22.3147 42.1077 22.4257 42.0351 22.5231 41.9807C22.5619 41.9591 22.6501 41.9106 22.7563 41.8746L22.7573 41.8742C22.7958 41.8611 22.9428 41.8112 23.1338 41.8183C23.2372 41.8222 23.4297 41.8451 23.6305 41.9702C23.8601 42.1132 24.0135 42.3362 24.0745 42.58L24.0802 42.6031M21.3977 42.7737L24.0802 42.6031M17.852 70.6715L17.852 70.6715C20.1403 72.5963 23.2179 74.0159 26.3648 74.6134L26.3711 74.6147L26.3711 74.6146C27.2902 74.783 28.7402 74.8583 30.1356 74.8583C31.5323 74.8583 32.9894 74.7829 33.9247 74.6153L33.929 74.6146C39.789 73.5385 44.8671 71.2636 49.2702 67.7593L49.271 67.7587C52.3122 65.3337 55.6234 61.2693 57.3802 57.8082L57.383 57.8028C57.5072 57.5543 57.5841 57.402 57.6469 57.2923C57.6634 57.2634 57.6766 57.2418 57.6866 57.2261C57.7349 57.2091 57.8124 57.1858 57.9609 57.1434C59.0459 56.8374 59.7988 56.3537 60.5492 55.5282L60.5526 55.5245C60.9986 55.0289 61.3465 54.5367 61.5612 53.9233C61.7713 53.3231 61.8259 52.6857 61.8194 51.9466C61.8194 51.9452 61.8193 51.9438 61.8193 51.9424L60.8194 51.9515L17.852 70.6715ZM17.852 70.6715L17.848 70.6682M17.852 70.6715L17.848 70.6682M17.848 70.6682C16.1656 69.2381 14.5579 66.6543 13.817 64.2972L17.848 70.6682ZM24.0802 42.6031L24.0849 42.6265M24.0802 42.6031L24.0849 42.6265M24.0849 42.6265C24.0843 42.6235 24.0943 42.662 24.1156 42.7441C24.1379 42.8298 24.1725 42.9631 24.2203 43.1462L24.2205 43.1471C24.3057 43.4736 24.4197 43.9106 24.5401 44.3795C24.6596 44.8448 24.7756 45.2901 24.8662 45.6305C24.9354 45.8908 24.9802 46.0523 25.0005 46.1254C25.0092 46.1565 25.0133 46.1716 25.0131 46.1714C25.171 46.5898 25.0223 46.9498 24.9581 47.0827C24.8781 47.2483 24.7703 47.3871 24.6831 47.4883C24.503 47.6977 24.2511 47.9287 23.9626 48.1713C22.9342 49.0361 21.5436 50.6155 20.6528 51.939L24.0849 42.6265ZM22.1342 43.0651C22.1356 43.0709 22.1371 43.0767 22.1387 43.0824C22.1372 43.0763 22.1357 43.0705 22.1344 43.0651L22.1342 43.0651ZM23.4985 43.7268C23.4979 43.7271 23.4973 43.7275 23.4967 43.7278C23.5039 43.7241 23.5049 43.7232 23.4985 43.7268Z" stroke="white" stroke-width="2"/>
</svg>
