<svg xmlns="http://www.w3.org/2000/svg" width="90" height="90" fill="none"><mask id="a" width="39" height="51" x="24.495" y="12.863" fill="#000" maskUnits="userSpaceOnUse"><path fill="#fff" d="M24.495 12.863h39v51h-39z"/><path d="M43.408 15.032c-.202.025-.834.113-1.377.19-1.868.252-4.166 1.173-6.2 2.487-2.436 1.565-4.696 4.04-6.186 6.78-1.212 2.235-2.437 6.111-2.93 9.217-.264 1.73-.302 6.137-.05 7.892.619 4.545 2.31 9.482 4.495 13.207.227.391.227.404-.05 1.06-.442 1.023-.404 2.4.075 3.435.455.96 1.2 1.717 2.16 2.197.618.303.87.353 1.793.366.909 0 1.186-.05 1.792-.34.998-.468 1.768-1.213 2.197-2.16.316-.67.367-.934.367-1.856s-.05-1.187-.367-1.856c-.681-1.49-2.12-2.437-3.788-2.513l-.896-.038-.404-.669c-.593-.972-1.705-3.485-2.298-5.19-1.692-4.924-1.97-11.224-.707-16.123.417-1.616.82-2.69 1.717-4.432 2.046-4.003 4.33-6.023 8.17-7.235 5.429-1.705 9.608-.164 12.828 4.722 1.502 2.286 2.79 5.72 3.08 8.258l.089.758 1.957.593c1.073.328 1.957.593 1.97.58.063-.088-.366-3.181-.594-4.204-.58-2.727-1.83-5.732-3.245-7.879-2.348-3.548-6.048-6.212-9.659-6.957-1.161-.24-3.232-.391-3.94-.29Z"/></mask><path stroke="#fff" stroke-width="4" d="M43.408 15.032c-.202.025-.834.113-1.377.19-1.868.252-4.166 1.173-6.2 2.487-2.436 1.565-4.696 4.04-6.186 6.78-1.212 2.235-2.437 6.111-2.93 9.217-.264 1.73-.302 6.137-.05 7.892.619 4.545 2.31 9.482 4.495 13.207.227.391.227.404-.05 1.06-.442 1.023-.404 2.4.075 3.435.455.96 1.2 1.717 2.16 2.197.618.303.87.353 1.793.366.909 0 1.186-.05 1.792-.34.998-.468 1.768-1.213 2.197-2.16.316-.67.367-.934.367-1.856s-.05-1.187-.367-1.856c-.681-1.49-2.12-2.437-3.788-2.513l-.896-.038-.404-.669c-.593-.972-1.705-3.485-2.298-5.19-1.692-4.924-1.97-11.224-.707-16.123.417-1.616.82-2.69 1.717-4.432 2.046-4.003 4.33-6.023 8.17-7.235 5.429-1.705 9.608-.164 12.828 4.722 1.502 2.286 2.79 5.72 3.08 8.258l.089.758 1.957.593c1.073.328 1.957.593 1.97.58.063-.088-.366-3.181-.594-4.204-.58-2.727-1.83-5.732-3.245-7.879-2.348-3.548-6.048-6.212-9.659-6.957-1.161-.24-3.232-.391-3.94-.29Z" mask="url(#a)"/><mask id="b" width="44" height="45" x="34.374" y="31" fill="#000" maskUnits="userSpaceOnUse"><path fill="#fff" d="M34.374 31h44v45h-44z"/><path d="M39.582 33.441c-1.288.328-2.538 1.465-3.005 2.753-.114.303-.202.96-.202 1.49-.013 1.793.82 3.169 2.399 3.939.745.379.96.417 1.919.417.922 0 1.187-.05 1.856-.367.808-.366 1.616-1.11 1.982-1.818.253-.48.543-.53 2.753-.467 7.235.227 14.533 3.258 19.356 8.081 1.844 1.843 2.967 3.384 4.04 5.556 2.324 4.697 2.248 8.573-.252 12.31-.745 1.086-2.525 2.816-3.56 3.447-2.98 1.819-7.425 2.147-11.781.884a22.941 22.941 0 0 1-1.793-.593c-.72-.29-.72-.29-.947-.05-.114.138-.884.757-1.705 1.4-.82.632-1.452 1.188-1.401 1.238.24.202 3.51 1.402 4.647 1.68 2.765.707 6.275.858 8.838.39 3.485-.63 6.995-2.436 9.356-4.797 2.74-2.727 3.889-5.581 3.876-9.596 0-5.505-2.386-10.392-7.386-15.152-5.594-5.34-12.917-8.22-21.528-8.485l-2.424-.075-.329-.468c-.404-.593-1.174-1.212-1.868-1.515-.72-.328-2.008-.417-2.841-.202Z"/></mask><path stroke="#fff" stroke-width="4" d="M39.582 33.441c-1.288.328-2.538 1.465-3.005 2.753-.114.303-.202.96-.202 1.49-.013 1.793.82 3.169 2.399 3.939.745.379.96.417 1.919.417.922 0 1.187-.05 1.856-.367.808-.366 1.616-1.11 1.982-1.818.253-.48.543-.53 2.753-.467 7.235.227 14.533 3.258 19.356 8.081 1.844 1.843 2.967 3.384 4.04 5.556 2.324 4.697 2.248 8.573-.252 12.31-.745 1.086-2.525 2.816-3.56 3.447-2.98 1.819-7.425 2.147-11.781.884a22.941 22.941 0 0 1-1.793-.593c-.72-.29-.72-.29-.947-.05-.114.138-.884.757-1.705 1.4-.82.632-1.452 1.188-1.401 1.238.24.202 3.51 1.402 4.647 1.68 2.765.707 6.275.858 8.838.39 3.485-.63 6.995-2.436 9.356-4.797 2.74-2.727 3.889-5.581 3.876-9.596 0-5.505-2.386-10.392-7.386-15.152-5.594-5.34-12.917-8.22-21.528-8.485l-2.424-.075-.329-.468c-.404-.593-1.174-1.212-1.868-1.515-.72-.328-2.008-.417-2.841-.202Z" mask="url(#b)"/><mask id="c" width="51" height="36" x="12" y="39.858" fill="#000" maskUnits="userSpaceOnUse"><path fill="#fff" d="M12 39.858h51v36H12z"/><path d="M22.006 43.568c-3.296 2.588-5.91 6.174-7.147 9.823-1.11 3.27-1.149 7.235-.088 10.606.694 2.21 2.21 4.621 3.725 5.91 2.146 1.805 5.063 3.156 8.055 3.724 1.654.303 5.505.303 7.197 0 5.708-1.048 10.632-3.258 14.9-6.654 2.929-2.336 6.149-6.288 7.84-9.621.48-.96.493-.973 1.2-1.175.896-.252 1.49-.631 2.121-1.325.796-.884 1.023-1.516 1.01-2.904 0-1.048-.038-1.288-.34-1.907-.417-.859-1.25-1.667-2.147-2.083-2.147-.973-4.684-.089-5.732 2.032-.354.708-.442 1.124-.43 2.134.013.897.341 1.869.897 2.563.139.177.252.392.252.468 0 .265-1.49 2.676-2.386 3.876-3.523 4.684-10.063 9.04-15.796 10.53-2.879.745-7.197.745-9.823-.012-3.738-1.073-6.604-4.154-7.601-8.182-.808-3.27-.088-6.68 2.108-9.988.935-1.389 2.387-3.043 3.498-3.977.556-.467.808-.758.758-.884-.038-.1-.266-.96-.506-1.894-.24-.934-.454-1.742-.467-1.805-.012-.05-.505.29-1.098.745Z"/></mask><path stroke="#fff" stroke-width="4" d="M22.006 43.568c-3.296 2.588-5.91 6.174-7.147 9.823-1.11 3.27-1.149 7.235-.088 10.606.694 2.21 2.21 4.621 3.725 5.91 2.146 1.805 5.063 3.156 8.055 3.724 1.654.303 5.505.303 7.197 0 5.708-1.048 10.632-3.258 14.9-6.654 2.929-2.336 6.149-6.288 7.84-9.621.48-.96.493-.973 1.2-1.175.896-.252 1.49-.631 2.121-1.325.796-.884 1.023-1.516 1.01-2.904 0-1.048-.038-1.288-.34-1.907-.417-.859-1.25-1.667-2.147-2.083-2.147-.973-4.684-.089-5.732 2.032-.354.708-.442 1.124-.43 2.134.013.897.341 1.869.897 2.563.139.177.252.392.252.468 0 .265-1.49 2.676-2.386 3.876-3.523 4.684-10.063 9.04-15.796 10.53-2.879.745-7.197.745-9.823-.012-3.738-1.073-6.604-4.154-7.601-8.182-.808-3.27-.088-6.68 2.108-9.988.935-1.389 2.387-3.043 3.498-3.977.556-.467.808-.758.758-.884-.038-.1-.266-.96-.506-1.894-.24-.934-.454-1.742-.467-1.805-.012-.05-.505.29-1.098.745Z" mask="url(#c)"/></svg>