<svg xmlns="http://www.w3.org/2000/svg" width="800" height="800" viewBox="0 0 24 24"><path fill="#fff" d="m1.294 5.292 4-4a1 1 0 0 1 1.413 1.415L4.414 5H9a1 1 0 0 1 0 2H4.414l2.293 2.293a1 1 0 1 1-1.414 1.414l-4-4a1 1 0 0 1 .001-1.415Zm19.15 3.315A5.025 5.025 0 0 0 17.98 8h-3.947V4.111a3.088 3.088 0 0 0-2.51-3.071 3.055 3.055 0 0 0-2.033.38 1 1 0 0 0 1.02 1.721 1 1 0 0 1 .694-.126 1.088 1.088 0 0 1 .829 1.1V9a1 1 0 0 0 1 1h4.947a3.024 3.024 0 0 1 1.484.351 2.946 2.946 0 0 1 1.507 2.994l-.422 2.942a6.824 6.824 0 0 1-1.925 3.839 2.985 2.985 0 0 1-2.118.874h-6.068a2.985 2.985 0 0 1-2.118-.874L5.294 17.11a1 1 0 0 1 .134-1.526 1.1 1.1 0 0 1 1.37.19l1.514 1.509a1 1 0 0 0 1.706-.708V10a1 1 0 0 0-2 0v4.182a3.087 3.087 0 0 0-3.756-.223 3 3 0 0 0-.38 4.567l3.027 3.016A4.966 4.966 0 0 0 10.438 23h6.068a4.972 4.972 0 0 0 3.53-1.458 8.833 8.833 0 0 0 2.492-4.972l.422-2.942a4.931 4.931 0 0 0-2.506-5.021Z"/></svg>