<svg width="90" height="90" viewBox="0 0 90 90" fill="none" xmlns="http://www.w3.org/2000/svg">
<path fill-rule="evenodd" clip-rule="evenodd" d="M45.5 76.9882L8.26098 13L36.5743 13L36.5743 15L11.739 15L45.5 73.0119L79.261 15.0001L54.2603 15.0001L54.2603 13.0001L82.739 13.0001L45.5 76.9882Z" fill="white"/>
<path fill-rule="evenodd" clip-rule="evenodd" d="M45.5 54.9628L22.1395 15.5095C21.8581 15.0343 22.0152 14.4209 22.4905 14.1396C22.9657 13.8582 23.5791 14.0153 23.8604 14.4905L45.5 51.0373L67.1395 14.4905C67.4209 14.0153 68.0342 13.8582 68.5095 14.1396C68.9847 14.4209 69.1418 15.0343 68.8604 15.5095L45.5 54.9628Z" fill="white"/>
<path fill-rule="evenodd" clip-rule="evenodd" d="M45.5 31.0284L36.13 14.4931C35.8577 14.0126 36.0265 13.4024 36.507 13.1301C36.9875 12.8578 37.5977 13.0266 37.87 13.5071L45.5 26.9718L53.13 13.5071C53.4022 13.0266 54.0125 12.8578 54.493 13.1301C54.9735 13.4024 55.1423 14.0126 54.87 14.4931L45.5 31.0284Z" fill="white"/>
</svg>
