<svg width="90" height="90" viewBox="0 0 90 90" fill="none" xmlns="http://www.w3.org/2000/svg">
<g clip-path="url(#clip0_140_190)">
<path fill-rule="evenodd" clip-rule="evenodd" d="M25.4545 65.295C33.4977 64.1813 43.5087 61.0189 53.5488 56.0454C63.5888 51.072 71.6789 45.2678 76.6529 39.9333C79.1428 37.2629 80.8152 34.7491 81.586 32.551C82.3585 30.3482 82.1887 28.5862 81.2351 27.2746C80.1531 25.7867 77.9698 24.7601 74.6272 24.3746L74.7458 22.546C78.3872 22.966 81.4033 24.1536 83.0272 26.3869C84.4586 28.3553 84.5109 30.7335 83.6427 33.2092C82.7729 35.6896 80.9418 38.3926 78.3658 41.1554C73.2078 46.6872 64.9158 52.6148 54.725 57.663C44.5342 62.7111 34.2962 65.9626 25.9555 67.1175C21.7899 67.6942 18.0386 67.7565 14.9774 67.2233C11.9221 66.6912 9.40396 65.5345 7.97262 63.5661C6.8189 61.9794 6.56072 60.12 6.9596 58.1672C7.35716 56.2209 8.4162 54.122 9.99612 51.9612C13.1575 47.6375 18.5181 42.9126 25.3961 38.4539L26.7695 39.9593C20.005 44.3445 14.8336 48.9302 11.8361 53.0297C10.3366 55.0806 9.40947 56.9714 9.07195 58.6238C8.73576 60.2696 8.99359 61.6177 9.76479 62.6783C10.7185 63.9898 12.5225 64.9423 15.2411 65.4157C17.9539 65.8882 21.4282 65.8525 25.4545 65.295Z" fill="white"/>
<path fill-rule="evenodd" clip-rule="evenodd" d="M9.7648 27.2747C10.9676 25.6206 13.5368 24.5385 17.5048 24.2722L17.5065 22.4327C13.2879 22.7157 9.77538 23.9077 7.97263 26.3869C6.5413 28.3553 6.48897 30.7335 7.35714 33.2092C8.22697 35.6896 10.058 38.3927 12.6341 41.1554C17.792 46.6873 26.084 52.6149 36.2749 57.663C46.4657 62.7112 56.7037 65.9626 65.0443 67.1175C69.2099 67.6943 72.9613 67.7565 76.0224 67.2234C79.0778 66.6912 81.5959 65.5345 83.0272 63.5661C84.158 62.0111 84.4287 60.1933 84.0631 58.2829C83.6989 56.3796 82.6958 54.3291 81.189 52.2177C78.1743 47.9932 73.0332 43.3725 66.4123 38.9839L65.0226 40.4787C71.5323 44.7936 76.4851 49.2733 79.338 53.271C80.765 55.2706 81.6392 57.1116 81.9471 58.7207C82.2536 60.3228 81.9912 61.6384 81.2351 62.6783C80.2814 63.9899 78.4773 64.9423 75.7587 65.4158C73.046 65.8883 69.5717 65.8525 65.5454 65.295C57.5022 64.1814 47.4911 61.0189 37.4511 56.0454C27.411 51.072 19.3209 45.2678 14.3469 39.9333C11.857 37.2629 10.1847 34.7491 9.41382 32.551C8.64134 30.3482 8.8111 28.5862 9.7648 27.2747Z" fill="white"/>
<path fill-rule="evenodd" clip-rule="evenodd" d="M46.3213 77.0663L11.0484 13L37.8782 13L37.8782 15L14.4327 15L46.3213 72.9195L78.21 15L54.6081 15L54.6081 13L81.5942 13L46.3213 77.0663Z" fill="white"/>
<path fill-rule="evenodd" clip-rule="evenodd" d="M46.3298 55.1133L24.0154 15.4432C23.7446 14.9619 23.9154 14.3522 24.3967 14.0814C24.8781 13.8106 25.4878 13.9814 25.7586 14.4627L46.3298 51.0338L66.901 14.4627C67.1718 13.9814 67.7815 13.8107 68.2629 14.0814C68.7442 14.3522 68.915 14.9619 68.6442 15.4433L46.3298 55.1133Z" fill="white"/>
<path fill-rule="evenodd" clip-rule="evenodd" d="M46.1649 30.6401L37.0083 14.4933C36.7359 14.0129 36.9045 13.4026 37.3849 13.1302C37.8653 12.8577 38.4756 13.0263 38.7481 13.5068L46.1649 26.5857L53.5818 13.5068C53.8543 13.0263 54.4646 12.8577 54.945 13.1302C55.4254 13.4026 55.594 14.0129 55.3216 14.4933L46.1649 30.6401Z" fill="white"/>
<path fill-rule="evenodd" clip-rule="evenodd" d="M14.4328 73.9929L30.407 44.9788L28.655 44.0142L11.0485 75.9929L38.0347 75.9929L38.0347 73.9929L14.4328 73.9929ZM78.2101 73.9929L62.2358 44.9788L63.9878 44.0142L81.5943 75.9929L54.7646 75.9929L54.7646 73.9929L78.2101 73.9929Z" fill="white"/>
<path fill-rule="evenodd" clip-rule="evenodd" d="M35.6658 54.1132C36.1442 54.3891 36.3085 55.0006 36.0326 55.479L25.0432 74.5393C24.7673 75.0178 24.1558 75.182 23.6773 74.9061C23.1989 74.6303 23.0347 74.0188 23.3105 73.5403L34.3 54.48C34.5758 54.0016 35.1873 53.8374 35.6658 54.1132ZM56.1096 55.043C56.5881 54.7671 57.1996 54.9314 57.4754 55.4098L67.9288 73.5403C68.2047 74.0188 68.0404 74.6303 67.562 74.9061C67.0835 75.182 66.472 75.0178 66.1961 74.5393L55.7428 56.4088C55.4669 55.9303 55.6312 55.3188 56.1096 55.043Z" fill="white"/>
<path fill-rule="evenodd" clip-rule="evenodd" d="M42.8276 66.8167C43.3081 67.0891 43.4766 67.6995 43.2042 68.1799L39.0608 75.4863C38.7884 75.9667 38.1781 76.1353 37.6977 75.8629C37.2173 75.5904 37.0487 74.9801 37.3211 74.4997L41.4645 67.1933C41.7369 66.7129 42.3472 66.5443 42.8276 66.8167ZM50.1278 66.8167C50.6082 66.5443 51.2185 66.7129 51.491 67.1933L55.6343 74.4997C55.9068 74.9801 55.7382 75.5904 55.2578 75.8629C54.7774 76.1353 54.1671 75.9667 53.8946 75.4863L49.7512 68.1799C49.4788 67.6995 49.6474 67.0891 50.1278 66.8167Z" fill="white"/>
</g>
<defs>
<clipPath id="clip0_140_190">
<rect width="90" height="90" fill="white"/>
</clipPath>
</defs>
</svg>
