<?xml version="1.0" encoding="utf-8"?>
<!-- Generator: Adobe Illustrator 16.0.0, SVG Export Plug-In . SVG Version: 6.00 Build 0)  -->
<!DOCTYPE svg PUBLIC "-//W3C//DTD SVG 1.1//EN" "http://www.w3.org/Graphics/SVG/1.1/DTD/svg11.dtd">
<svg version="1.1" id="Слой_1" xmlns="http://www.w3.org/2000/svg" xmlns:xlink="http://www.w3.org/1999/xlink" x="0px" y="0px"
	 width="61.25px" height="62.224px" viewBox="0 0 61.25 62.224" enable-background="new 0 0 61.25 62.224" xml:space="preserve">
<g>
	<path d="M28.519,38.575l-1.744-1.741c-0.13-0.133-0.341-0.133-0.474,0c-0.132,0.129-0.132,0.341,0,0.476l1.745,1.741l-1.365,1.361
		l-1.744-1.741c-0.129-0.131-0.341-0.131-0.473,0c-0.132,0.132-0.132,0.345,0,0.477l1.74,1.741l-1.545,1.544l-1.74-1.744
		c-0.133-0.128-0.345-0.128-0.477,0c-0.132,0.133-0.132,0.346,0,0.477l1.744,1.745l-1.79,1.789l-3.498-3.498
		c-0.132-0.132-0.344-0.132-0.476,0c-0.129,0.132-0.129,0.344,0,0.476l3.498,3.499l-2.138,2.136l-5.538-5.538l9.604-9.604
		l-0.949-0.951l-9.606,9.605c-0.524,0.524-0.524,1.375,0,1.898l5.539,5.539c0.523,0.524,1.377,0.524,1.901,0l9.607-9.606
		l-0.953-0.949L28.519,38.575z"/>
	<path d="M41.637,14.382l5.538,5.535l-1.686,1.69l-1.902-1.903c-0.132-0.131-0.345-0.131-0.477,0c-0.132,0.133-0.132,0.345,0,0.477
		l1.902,1.899l-1.362,1.365l-1.901-1.903c-0.133-0.131-0.345-0.131-0.477,0c-0.129,0.132-0.129,0.345,0,0.477l1.902,1.899
		l-1.545,1.545l-1.902-1.9c-0.128-0.131-0.344-0.131-0.476,0c-0.129,0.129-0.129,0.345,0,0.473l1.901,1.903l-1.489,1.493
		l-3.503-3.499c-0.128-0.131-0.344-0.131-0.473,0c-0.131,0.132-0.131,0.345,0,0.474l3.499,3.499l-2.16,2.163l-1.904-1.902
		c-0.13-0.132-0.343-0.132-0.478,0c-0.128,0.132-0.128,0.344,0,0.476l1.903,1.902l-0.37,0.367l0.952,0.949l10.994-10.99
		c0.523-0.525,0.523-1.377,0-1.902l-5.536-5.539c-0.528-0.524-1.38-0.524-1.902,0L29.693,24.423l0.949,0.949L41.637,14.382z"/>
	<path d="M48.666,48.101c-3.289-7.161-3.583-7.451-3.691-7.563L18.13,13.694c-0.599-0.599-1.577-0.599-2.176,0l-2.986,2.99
		c-0.603,0.598-0.603,1.573,0,2.172l26.844,26.847c0.122,0.123,0.412,0.409,7.866,3.431c0.289,0.116,0.628,0.045,0.843-0.183
		C48.739,48.725,48.794,48.386,48.666,48.101 M14.052,17.768l2.99-2.99l3.353,3.357l-2.985,2.99L14.052,17.768z M18.496,22.211
		l2.99-2.989l21.859,21.859l-2.987,2.99L18.496,22.211z M41.655,44.95l2.595-2.597c0.499,0.995,1.336,2.761,2.198,4.621
		C44.529,46.183,42.691,45.414,41.655,44.95"/>
</g>
</svg>
