<?xml version="1.0" encoding="utf-8"?>
<!-- Generator: Adobe Illustrator 16.0.0, SVG Export Plug-In . SVG Version: 6.00 Build 0)  -->
<!DOCTYPE svg PUBLIC "-//W3C//DTD SVG 1.1//EN" "http://www.w3.org/Graphics/SVG/1.1/DTD/svg11.dtd">
<svg version="1.1" id="Слой_1" xmlns="http://www.w3.org/2000/svg" xmlns:xlink="http://www.w3.org/1999/xlink" x="0px" y="0px"
	 width="61.25px" height="62.224px" viewBox="0 0 61.25 62.224" enable-background="new 0 0 61.25 62.224" xml:space="preserve">
<path d="M41.287,31.111h-0.889v-2.665c0-0.49-0.396-0.889-0.888-0.889H39.02l2.267-6.002c0.624-0.096,1.206-0.361,1.715-0.792
	c1.44-1.219,2.043-3.576,1.501-5.864c-0.603-2.539-2.423-4.352-4.994-4.974c-0.356-0.088-0.725,0.053-0.937,0.351
	c-0.21,0.3-0.215,0.695-0.016,1c0.938,1.432,0.374,2.278-0.628,3.542c-0.382,0.482-0.744,0.94-0.963,1.459
	c-0.416,0.988-0.439,2.027-0.063,2.925c0.177,0.423,0.439,0.807,0.772,1.138l-4.019,7.218h-0.365V10.675
	c0-0.491-0.397-0.889-0.889-0.889h-7.108c-0.491,0-0.89,0.397-0.89,0.889v16.882h-0.366l-4.18-7.527
	c-0.021-0.036-0.043-0.071-0.068-0.107c0,0-0.002,0-0.002-0.001l-0.001-0.001c-0.001,0-0.001-0.001-0.001-0.001v-0.001
	c-0.001-0.001-0.001-0.002-0.002-0.002v-0.001c-0.003-0.002-0.001-0.002-0.002-0.002c-0.004-0.003-0.002-0.003-0.002-0.003
	c-0.001-0.001-0.001-0.003-0.002-0.004c-0.074-0.096-0.165-0.173-0.265-0.23l-4.425-2.655c-0.302-0.18-0.673-0.17-0.958,0.028
	c-0.286,0.195-0.434,0.538-0.376,0.88l0.886,5.315c0.014,0.097,0.044,0.191,0.091,0.281l2.016,4.031h-0.339
	c-0.491,0-0.889,0.398-0.889,0.889v19.549c0,2.45,1.993,4.442,4.443,4.442h15.993c2.45,0,4.442-1.992,4.442-4.442v-4.443h0.889
	c3.43,0,6.221-2.791,6.221-6.221C47.508,33.902,44.717,31.111,41.287,31.111 M38.604,16.967c0.123-0.296,0.413-0.66,0.718-1.046
	c0.675-0.852,1.591-2.009,1.491-3.517c0.98,0.669,1.668,1.671,1.959,2.903c0.38,1.604-0.007,3.326-0.918,4.099
	c-0.567,0.479-1.293,0.539-2.154,0.179c-0.113-0.048-0.224-0.103-0.323-0.162c-0.04-0.031-0.082-0.061-0.127-0.085
	c-0.013-0.007-0.026-0.015-0.038-0.021c-0.312-0.216-0.538-0.487-0.67-0.804C38.348,18.055,38.37,17.519,38.604,16.967
	 M39.179,21.292c0.091,0.034,0.181,0.065,0.271,0.095l-2.33,6.171H35.69L39.179,21.292z M26.183,11.563h5.331v1.777h-2.666
	c-0.491,0-0.888,0.397-0.888,0.889s0.396,0.889,0.888,0.889h2.666v1.776h-0.889c-0.491,0-0.889,0.398-0.889,0.889
	c0,0.491,0.397,0.889,0.889,0.889h0.889v1.776h-2.666c-0.491,0-0.888,0.398-0.888,0.89s0.396,0.889,0.888,0.889h2.666v1.777h-0.889
	c-0.491,0-0.889,0.396-0.889,0.888s0.397,0.889,0.889,0.889h0.889v1.777h-5.331V11.563z M15.824,19.536l1.658,0.995l-1.327,0.995
	L15.824,19.536z M16.646,23.38l2.146-1.609l3.215,5.786h-3.272L16.646,23.38z M38.621,47.995c0,1.469-1.194,2.666-2.665,2.666
	H19.963c-1.471,0-2.666-1.197-2.666-2.666v-18.66h0.889h5.331h1.777h7.108h1.757c0.014-0.002,0.021-0.002,0.037,0h4.425V47.995z
	 M41.287,41.774h-0.889v-8.885h0.889c2.45,0,4.443,1.992,4.443,4.441C45.73,39.782,43.737,41.774,41.287,41.774"/>
</svg>
