<svg xmlns="http://www.w3.org/2000/svg" xmlns:xlink="http://www.w3.org/1999/xlink" width="126px" height="98px" viewBox="0 0 126 98">
    <path fill="#fff" fillRule="evenodd" d="M 123.57 95.56C 120.34 98.81 115.11 98.81 111.88 95.56 111.88 95.56 90.54 74.1 90.54 74.1 88.96 72.51 88.16 70.44 88.13 68.36 76.2 76.41 59.86 75.14 49.32 64.54 37.36 52.51 37.36 32.92 49.32 20.89 61.29 8.85 80.77 8.85 92.73 20.89 103.27 31.48 104.53 47.92 96.52 59.91 98.59 59.95 100.65 60.76 102.23 62.34 102.23 62.34 123.57 83.8 123.57 83.8 126.8 87.05 126.8 92.31 123.57 95.56ZM 86.06 27.6C 77.77 19.27 64.29 19.27 56 27.6 47.72 35.94 47.72 49.49 56 57.83 64.29 66.16 77.77 66.16 86.06 57.83 94.34 49.49 94.34 35.94 86.06 27.6ZM 57.71 55.07C 57.05 54.41 56.45 53.71 55.91 52.97 55.91 52.97 55.91 34.36 55.91 34.36 55.91 30.91 58.69 28.12 62.12 28.12 62.12 28.12 67.87 28.12 67.87 28.12 71.3 28.12 74.08 30.91 74.08 34.36 74.08 34.36 74.08 60.06 74.08 60.06 72.93 60.29 71.74 60.41 70.54 60.41 65.68 60.41 61.13 58.51 57.71 55.07ZM 46.13 65.68C 46.13 65.68 46.13 68.77 46.13 68.77 46.13 72.22 43.34 75.02 39.91 75.02 39.91 75.02 34.17 75.02 34.17 75.02 30.74 75.02 27.96 72.22 27.96 68.77 27.96 68.77 27.96 6.25 27.96 6.25 27.96 2.8 30.74-0 34.17-0 34.17-0 39.91-0 39.91-0 43.34-0 46.13 2.8 46.13 6.25 46.13 6.25 46.13 18.65 46.13 18.65 40.07 25 36.75 33.32 36.75 42.17 36.75 51.01 40.07 59.33 46.13 65.68ZM 11.96 75.02C 11.96 75.02 6.21 75.02 6.21 75.02 2.78 75.02 0 72.22 0 68.77 0 68.77 0 34.36 0 34.36 0 30.91 2.78 28.12 6.21 28.12 6.21 28.12 11.96 28.12 11.96 28.12 15.39 28.12 18.17 30.91 18.17 34.36 18.17 34.36 18.17 68.77 18.17 68.77 18.17 72.22 15.39 75.02 11.96 75.02Z" />
</svg>
