<?xml version="1.0" encoding="utf-8"?>
<!-- Generator: Adobe Illustrator 16.0.0, SVG Export Plug-In . SVG Version: 6.00 Build 0)  -->
<!DOCTYPE svg PUBLIC "-//W3C//DTD SVG 1.1//EN" "http://www.w3.org/Graphics/SVG/1.1/DTD/svg11.dtd">
<svg version="1.1" id="Слой_1" xmlns="http://www.w3.org/2000/svg" xmlns:xlink="http://www.w3.org/1999/xlink" x="0px" y="0px"
	 width="61.25px" height="62.224px" viewBox="0 0 61.25 62.224" enable-background="new 0 0 61.25 62.224" xml:space="preserve">
<g>
	<path d="M55.837,8.87H5.413c-1.57,0-2.848,1.278-2.848,2.849v31.029c0,1.57,1.277,2.849,2.848,2.849h16.545v5.939H18.02
		c-0.502,0-0.909,0.406-0.909,0.909c0,0.502,0.407,0.909,0.909,0.909H43.23c0.503,0,0.909-0.407,0.909-0.909
		c0-0.503-0.406-0.909-0.909-0.909h-3.939v-5.939h16.546c1.569,0,2.848-1.278,2.848-2.849V11.718
		C58.685,10.148,57.406,8.87,55.837,8.87 M37.474,51.536H23.777v-5.939h13.696V51.536z M56.866,42.748
		c0,0.568-0.462,1.03-1.029,1.03H5.413c-0.567,0-1.029-0.462-1.029-1.03V11.718c0-0.568,0.462-1.03,1.029-1.03h50.424
		c0.567,0,1.029,0.462,1.029,1.03V42.748z"/>
	<path d="M53.897,12.749H7.354c-0.503,0-0.909,0.407-0.909,0.909v27.15c0,0.502,0.406,0.909,0.909,0.909h46.544
		c0.502,0,0.908-0.407,0.908-0.909v-27.15C54.806,13.156,54.399,12.749,53.897,12.749 M52.988,39.899H8.262V14.567h44.727V39.899z"
		/>
	<path d="M20.928,36.87c2.147,0,4.132-0.707,5.736-1.899c0.015-0.01,0.031-0.018,0.046-0.029c0.028-0.021,0.055-0.044,0.08-0.067
		c2.293-1.764,3.773-4.531,3.773-7.642c0-5.313-4.321-9.636-9.636-9.636c-5.313,0-9.636,4.323-9.636,9.636
		C11.292,32.546,15.615,36.87,20.928,36.87 M13.165,28.141h7.309l4.385,5.847c-1.156,0.675-2.498,1.063-3.931,1.063
		C16.925,35.05,13.617,32.026,13.165,28.141 M28.746,27.232c0,2.228-0.938,4.237-2.436,5.662l-4.474-5.965v-7.46
		C25.721,19.921,28.746,23.23,28.746,27.232 M20.019,19.469v6.854h-6.854C13.582,22.739,16.434,19.886,20.019,19.469"/>
	<path d="M33.533,20.384H45.17c0.503,0,0.909-0.406,0.909-0.909c0-0.502-0.406-0.908-0.909-0.908H33.533
		c-0.502,0-0.908,0.406-0.908,0.908C32.625,19.978,33.031,20.384,33.533,20.384"/>
	<path d="M49.049,26.324H38.383c-0.503,0-0.909,0.406-0.909,0.909c0,0.502,0.406,0.908,0.909,0.908h10.666
		c0.502,0,0.909-0.406,0.909-0.908C49.958,26.73,49.551,26.324,49.049,26.324"/>
	<path d="M33.533,28.141h0.971c0.502,0,0.909-0.406,0.909-0.908s-0.407-0.909-0.909-0.909h-0.971c-0.502,0-0.908,0.407-0.908,0.909
		S33.031,28.141,33.533,28.141"/>
	<path d="M49.049,30.203H38.383c-0.503,0-0.909,0.407-0.909,0.909s0.406,0.908,0.909,0.908h10.666c0.502,0,0.909-0.406,0.909-0.908
		S49.551,30.203,49.049,30.203"/>
	<path d="M33.533,32.021h0.971c0.502,0,0.909-0.407,0.909-0.909s-0.407-0.909-0.909-0.909h-0.971c-0.502,0-0.908,0.407-0.908,0.909
		S33.031,32.021,33.533,32.021"/>
	<path d="M49.049,34.081H38.383c-0.503,0-0.909,0.407-0.909,0.909c0,0.503,0.406,0.909,0.909,0.909h10.666
		c0.502,0,0.909-0.406,0.909-0.909C49.958,34.488,49.551,34.081,49.049,34.081"/>
	<path d="M33.533,35.899h0.971c0.502,0,0.909-0.407,0.909-0.909s-0.407-0.909-0.909-0.909h-0.971c-0.502,0-0.908,0.407-0.908,0.909
		S33.031,35.899,33.533,35.899"/>
	<path d="M33.533,24.263h15.516c0.502,0,0.909-0.406,0.909-0.908c0-0.503-0.407-0.909-0.909-0.909H33.533
		c-0.502,0-0.908,0.406-0.908,0.909C32.625,23.857,33.031,24.263,33.533,24.263"/>
</g>
</svg>
