<?xml version="1.0" encoding="utf-8"?>
<!-- Generator: Adobe Illustrator 16.0.0, SVG Export Plug-In . SVG Version: 6.00 Build 0)  -->
<!DOCTYPE svg PUBLIC "-//W3C//DTD SVG 1.1//EN" "http://www.w3.org/Graphics/SVG/1.1/DTD/svg11.dtd">
<svg version="1.1" id="Слой_1" xmlns="http://www.w3.org/2000/svg" xmlns:xlink="http://www.w3.org/1999/xlink" x="0px" y="0px"
	 width="61.25px" height="62.224px" viewBox="0 0 61.25 62.224" enable-background="new 0 0 61.25 62.224" xml:space="preserve">
<g>
	<path d="M34.466,21.565H13.154c-0.59,0-1.068-0.478-1.068-1.067s0.478-1.067,1.068-1.067h21.312c0.59,0,1.067,0.478,1.067,1.067
		S35.056,21.565,34.466,21.565"/>
	<path d="M29.377,26.351H13.154c-0.59,0-1.068-0.478-1.068-1.067c0-0.591,0.478-1.067,1.068-1.067h16.223
		c0.59,0,1.068,0.477,1.068,1.067C30.445,25.874,29.967,26.351,29.377,26.351"/>
	<path d="M18.523,40.708h-5.369c-0.59,0-1.068-0.478-1.068-1.067c0-0.591,0.478-1.067,1.068-1.067h5.369
		c0.59,0,1.068,0.477,1.068,1.067C19.591,40.231,19.113,40.708,18.523,40.708"/>
	<path d="M16.196,45.494h-3.042c-0.59,0-1.068-0.478-1.068-1.067s0.478-1.067,1.068-1.067h3.042c0.589,0,1.068,0.478,1.068,1.067
		S16.785,45.494,16.196,45.494"/>
	<path d="M53.507,11.478l-2.436-1.814c-0.614-0.458-1.368-0.65-2.125-0.538c-0.758,0.109-1.426,0.509-1.883,1.122l0,0l-6.039,8.183
		v-8.126c0-0.59-0.477-1.067-1.067-1.067h-4.424V7.595c0-0.59-0.478-1.067-1.067-1.067c-0.591,0-1.068,0.478-1.068,1.067v1.642
		h-3.193V7.595c0-0.59-0.478-1.067-1.067-1.067c-0.591,0-1.068,0.478-1.068,1.067v1.642h-3.192V7.595
		c0-0.59-0.478-1.067-1.068-1.067c-0.589,0-1.068,0.478-1.068,1.067v1.642h-3.191V7.595c0-0.59-0.478-1.067-1.068-1.067
		c-0.59,0-1.067,0.478-1.067,1.067v1.642h-3.192V7.595c0-0.59-0.479-1.067-1.068-1.067c-0.59,0-1.068,0.478-1.068,1.067v1.642H7.661
		c-0.59,0-1.068,0.478-1.068,1.067v44.323c0,0.59,0.478,1.068,1.068,1.068h32.296c0.591,0,1.067-0.479,1.067-1.068V33.311
		l13.066-17.823c0-0.001,0-0.001,0-0.001C55.033,14.22,54.772,12.423,53.507,11.478 M38.89,53.56H8.729V11.372h3.357v1.642
		c0,0.589,0.478,1.067,1.068,1.067c0.589,0,1.068-0.479,1.068-1.067v-1.642h3.192v1.642c0,0.589,0.477,1.067,1.067,1.067
		c0.59,0,1.068-0.479,1.068-1.067v-1.642h3.192v1.642c0,0.589,0.478,1.067,1.068,1.067c0.589,0,1.068-0.479,1.068-1.067v-1.642
		h3.192v1.642c0,0.589,0.477,1.067,1.067,1.067c0.59,0,1.067-0.479,1.067-1.067v-1.642h3.193v1.642c0,0.589,0.479,1.067,1.068,1.067
		s1.067-0.479,1.067-1.067v-1.642h3.356v9.988l-5.568,7.642H13.154c-0.59,0-1.068,0.478-1.068,1.068c0,0.59,0.478,1.066,1.068,1.066
		h18.61c0,0-6.071,8.331-6.073,8.332h0.002c-0.069,0.096-0.124,0.205-0.159,0.323l-2.442,8.353h-9.938
		c-0.59,0-1.068,0.478-1.068,1.067c0,0.591,0.478,1.068,1.068,1.068H23.91v-0.002c0.195-0.002,0.391-0.058,0.563-0.169l7.981-5.157
		c0.109-0.071,0.201-0.16,0.275-0.259c0.002-0.004,6.16-8.452,6.16-8.452V53.56z M27.153,41.866l2.85,2.127l-4.28,2.766
		L27.153,41.866z M31.647,42.553l-3.604-2.686l16.84-23.106l3.604,2.687L31.647,42.553z M49.755,17.728l-3.603-2.686l1.149-1.542
		l3.603,2.687L49.755,17.728z M52.378,14.209C52.378,14.21,52.377,14.21,52.378,14.209l-0.197,0.266l-3.603-2.687l0.196-0.265
		l0.002-0.001c0.115-0.155,0.285-0.257,0.478-0.284c0.193-0.029,0.384,0.021,0.54,0.136l2.436,1.816
		C52.552,13.43,52.618,13.888,52.378,14.209"/>
</g>
</svg>
