<?xml version="1.0" encoding="utf-8"?>
<!-- Generator: Adobe Illustrator 16.0.0, SVG Export Plug-In . SVG Version: 6.00 Build 0)  -->
<!DOCTYPE svg PUBLIC "-//W3C//DTD SVG 1.1//EN" "http://www.w3.org/Graphics/SVG/1.1/DTD/svg11.dtd">
<svg version="1.1" id="Слой_1" xmlns="http://www.w3.org/2000/svg" xmlns:xlink="http://www.w3.org/1999/xlink" x="0px" y="0px"
	 width="61.25px" height="62.224px" viewBox="0 0 61.25 62.224" enable-background="new 0 0 61.25 62.224" xml:space="preserve">
<g>
	<path d="M58.375,51.833h-55.5v-41.44h55.5V51.833z M4.875,49.833h51.5v-37.44h-51.5V49.833z"/>
	<path d="M27.555,44.401H8.205v-7.562h19.35V44.401z M10.205,42.401h15.35v-3.562h-15.35V42.401z"/>
	<path d="M17.904,34.012c-5.349,0-9.699-4.352-9.699-9.698c0-5.349,4.351-9.699,9.699-9.699c5.348,0,9.698,4.351,9.698,9.699
		C27.603,29.661,23.252,34.012,17.904,34.012 M17.904,16.615c-4.245,0-7.699,3.454-7.699,7.699c0,4.243,3.454,7.698,7.699,7.698
		s7.698-3.455,7.698-7.698C25.603,20.069,22.149,16.615,17.904,16.615"/>
	<rect x="34.913" y="20.153" width="16.333" height="2"/>
	<rect x="34.913" y="26.78" width="16.333" height="2"/>
	<rect x="34.913" y="33.011" width="16.333" height="2"/>
	<rect x="34.913" y="39.637" width="16.333" height="2"/>
</g>
</svg>
