<?xml version="1.0" encoding="utf-8"?>
<!-- Generator: Adobe Illustrator 16.0.0, SVG Export Plug-In . SVG Version: 6.00 Build 0)  -->
<!DOCTYPE svg PUBLIC "-//W3C//DTD SVG 1.1//EN" "http://www.w3.org/Graphics/SVG/1.1/DTD/svg11.dtd">
<svg version="1.1" id="Слой_1" xmlns="http://www.w3.org/2000/svg" xmlns:xlink="http://www.w3.org/1999/xlink" x="0px" y="0px"
	 width="61.25px" height="62.224px" viewBox="0 0 61.25 62.224" enable-background="new 0 0 61.25 62.224" xml:space="preserve">
<g>
	<polygon points="46.893,31.528 43.789,31.528 43.789,29.529 44.893,29.529 44.893,23.202 16.357,23.202 16.357,29.529 
		18.11,29.529 18.11,31.528 14.357,31.528 14.357,21.202 46.893,21.202 	"/>
	<polygon points="41.586,41.022 19.863,41.022 19.863,26.365 21.863,26.365 21.863,39.022 39.586,39.022 39.586,26.365 
		41.586,26.365 	"/>
	<path d="M30.633,32.928c-3.233,0-5.863-2.63-5.863-5.863h2c0,2.13,1.733,3.863,3.863,3.863c2.129,0,3.861-1.733,3.861-3.863h2
		C36.494,30.298,33.865,32.928,30.633,32.928"/>
</g>
</svg>
