<?xml version="1.0" encoding="utf-8"?>
<!-- Generator: Adobe Illustrator 16.0.0, SVG Export Plug-In . SVG Version: 6.00 Build 0)  -->
<!DOCTYPE svg PUBLIC "-//W3C//DTD SVG 1.1//EN" "http://www.w3.org/Graphics/SVG/1.1/DTD/svg11.dtd">
<svg version="1.1" id="Слой_1" xmlns="http://www.w3.org/2000/svg" xmlns:xlink="http://www.w3.org/1999/xlink" x="0px" y="0px"
	 width="61.25px" height="62.224px" viewBox="0 0 61.25 62.224" enable-background="new 0 0 61.25 62.224" xml:space="preserve">
<path d="M48.674,4.302c-0.337-0.005-0.652,0.174-0.818,0.468l-1.487,2.54c-0.446-0.145-0.92-0.223-1.412-0.223
	c-2.541,0-4.621,2.079-4.621,4.621c0,1.329,0.57,2.531,1.475,3.376l-6.002,10.238c-0.864-0.431-1.839-0.674-2.867-0.674
	c-3.216,0-5.897,2.369-6.389,5.45l-6.557-1.037c-0.109-2.446-2.144-4.413-4.616-4.413c-2.541,0-4.621,2.079-4.621,4.621
	c0,1.135,0.416,2.178,1.101,2.983l-7.374,9.385c-0.321,0.397-0.26,0.979,0.136,1.302c0.396,0.32,0.978,0.26,1.3-0.136
	c0.006-0.008,0.012-0.017,0.018-0.024l7.372-9.381c0.623,0.314,1.326,0.492,2.068,0.492c1.973,0,3.666-1.253,4.326-3.003
	l6.823,1.077c0.417,3.165,3.136,5.623,6.413,5.623c3.563,0,6.47-2.907,6.47-6.469c0-1.871-0.802-3.56-2.078-4.741l6.053-10.325
	c0.49,0.179,1.021,0.277,1.57,0.277c2.542,0,4.622-2.079,4.622-4.621c0-1.389-0.623-2.639-1.603-3.488l1.476-2.515
	c0.265-0.436,0.125-1.005-0.312-1.269C48.998,4.351,48.838,4.305,48.674,4.302 M44.956,8.935c0.438,0,0.85,0.102,1.216,0.28
	c0.08,0.064,0.172,0.114,0.269,0.148c0.775,0.489,1.288,1.351,1.288,2.345c0,1.543-1.23,2.773-2.772,2.773
	c-0.476,0-0.921-0.118-1.311-0.325c-0.084-0.076-0.181-0.136-0.285-0.177c-0.714-0.499-1.177-1.326-1.177-2.271
	C42.184,10.166,43.414,8.935,44.956,8.935 M44.956,9.397c-1.271,0-2.311,1.04-2.311,2.311c-0.005,0.255,0.2,0.465,0.455,0.468
	c0.255,0.004,0.466-0.2,0.47-0.455v-0.013c0-0.772,0.614-1.386,1.386-1.386c0.255,0.003,0.465-0.201,0.469-0.456
	c0.003-0.256-0.201-0.465-0.456-0.469H44.956z M42.343,24.967c-0.511,0.013-0.914,0.436-0.901,0.946
	c0.006,0.25,0.111,0.487,0.296,0.656c3.559,3.398,4.535,8.684,2.428,13.129c-2.109,4.446-6.82,7.035-11.703,6.429
	c-4.883-0.606-8.821-4.269-9.778-9.093c-0.091-0.504-0.573-0.836-1.074-0.744c-0.503,0.09-0.836,0.57-0.745,1.074
	c0.002,0.009,0.004,0.019,0.005,0.028c1.112,5.601,5.697,9.865,11.364,10.568c2.929,0.364,5.808-0.267,8.244-1.673l9.945,11.318
	c0.338,0.385,0.922,0.422,1.305,0.084c0.016-0.013,0.03-0.027,0.043-0.041l4.931-4.929c0.36-0.36,0.359-0.946,0-1.308
	c-0.011-0.008-0.021-0.019-0.031-0.028L45.483,41.174c0.122-0.224,0.24-0.45,0.352-0.683c2.447-5.159,1.307-11.316-2.823-15.259
	C42.834,25.056,42.592,24.962,42.343,24.967 M15.38,26.496c1.541,0,2.773,1.23,2.773,2.773c0,1.542-1.232,2.773-2.773,2.773
	c-0.59,0-1.132-0.182-1.579-0.488c0,0,0-0.001-0.001-0.001c-0.073-0.084-0.161-0.153-0.26-0.205
	c-0.573-0.507-0.933-1.246-0.933-2.079C12.607,27.726,13.837,26.496,15.38,26.496 M32.941,26.496c0.929,0,1.792,0.272,2.515,0.739
	c0.085,0.092,0.188,0.164,0.303,0.214c1.097,0.843,1.803,2.169,1.803,3.669c0,2.563-2.059,4.621-4.62,4.621
	c-2.498,0-4.513-1.951-4.618-4.422c0.017-0.103,0.016-0.209-0.002-0.312C28.381,28.495,30.414,26.496,32.941,26.496 M15.38,26.958
	c-1.271,0-2.311,1.04-2.311,2.311c-0.004,0.256,0.2,0.465,0.455,0.469c0.255,0.004,0.466-0.201,0.469-0.455v-0.014
	c0-0.772,0.615-1.386,1.387-1.386c0.254,0.003,0.465-0.201,0.468-0.456c0.004-0.256-0.2-0.465-0.455-0.469H15.38z M32.941,27.883
	c-1.783,0-3.236,1.454-3.236,3.235c-0.005,0.254,0.2,0.465,0.455,0.468c0.255,0.004,0.466-0.2,0.469-0.456v-0.012
	c0-1.282,1.029-2.312,2.312-2.312c0.255,0.004,0.465-0.2,0.468-0.456c0.004-0.255-0.2-0.465-0.455-0.468H32.941z M43.147,34.346
	c-0.254,0.004-0.457,0.213-0.453,0.47c0,4.881-3.948,8.827-8.829,8.827c-0.255-0.004-0.466,0.2-0.47,0.456s0.2,0.465,0.456,0.469
	h0.014c5.381,0,9.753-4.371,9.753-9.752c0.003-0.257-0.201-0.466-0.455-0.47H43.147z M44.471,42.753l8.089,7.383l-3.435,3.191
	l-7.1-8.079C42.938,44.535,43.764,43.699,44.471,42.753 M53.244,50.761l1.466,1.337l-3.548,3.548l-1.427-1.623L53.244,50.761z"/>
</svg>
