<?xml version="1.0" encoding="utf-8"?>
<!-- Generator: Adobe Illustrator 16.0.0, SVG Export Plug-In . SVG Version: 6.00 Build 0)  -->
<!DOCTYPE svg PUBLIC "-//W3C//DTD SVG 1.1//EN" "http://www.w3.org/Graphics/SVG/1.1/DTD/svg11.dtd">
<svg version="1.1" id="Слой_1" xmlns="http://www.w3.org/2000/svg" xmlns:xlink="http://www.w3.org/1999/xlink" x="0px" y="0px"
	 width="61.25px" height="62.224px" viewBox="0 0 61.25 62.224" enable-background="new 0 0 61.25 62.224" xml:space="preserve">
<path d="M33.731,31.641c-0.844,0-1.59-0.49-1.899-1.248c-0.317-0.777-0.111-1.686,0.512-2.256c0.706-0.646,0.794-1.738,0.203-2.49
	c-0.702-0.891-1.502-1.697-2.375-2.396c-0.323-0.26-0.73-0.402-1.146-0.402c-0.519,0-1.015,0.219-1.363,0.604
	c-0.36,0.398-0.957,0.646-1.559,0.646c-0.255,0-0.503-0.045-0.712-0.133c-0.786-0.33-1.281-1.127-1.232-1.98
	c0.057-0.969-0.654-1.818-1.62-1.93c-1.117-0.129-2.257-0.133-3.37-0.008c-0.948,0.104-1.665,0.932-1.632,1.887
	c0.03,0.848-0.472,1.633-1.247,1.949c-0.206,0.084-0.447,0.129-0.697,0.129c-0.601,0-1.199-0.246-1.562-0.646
	c-0.347-0.379-0.841-0.598-1.356-0.598c-0.408,0-0.809,0.139-1.133,0.391c-0.9,0.705-1.715,1.512-2.423,2.396
	c-0.606,0.754-0.521,1.854,0.198,2.508c0.635,0.576,0.841,1.49,0.511,2.273c-0.312,0.746-1.111,1.229-2.036,1.232
	c-0.97-0.021-1.755,0.666-1.871,1.621c-0.131,1.123-0.133,2.268-0.006,3.406c0.113,1.004,1.108,1.627,1.967,1.627l0.072-0.002
	c0.775,0,1.502,0.504,1.809,1.25c0.319,0.775,0.112,1.684-0.513,2.258c-0.705,0.645-0.792,1.74-0.202,2.482
	c0.693,0.885,1.49,1.691,2.37,2.4c0.325,0.262,0.733,0.406,1.149,0.406c0.518,0,1.014-0.221,1.362-0.605
	c0.362-0.398,0.96-0.648,1.56-0.648c0.255,0,0.502,0.047,0.714,0.137c0.785,0.328,1.281,1.125,1.232,1.977
	c-0.057,0.973,0.655,1.82,1.619,1.932c0.567,0.066,1.148,0.1,1.726,0.1c0.548,0,1.101-0.031,1.645-0.092
	c0.947-0.104,1.664-0.934,1.632-1.889c-0.03-0.848,0.47-1.631,1.245-1.947c0.208-0.084,0.451-0.131,0.701-0.131
	c0.6,0,1.197,0.248,1.563,0.65c0.348,0.377,0.841,0.596,1.354,0.596c0.405,0,0.805-0.139,1.132-0.391
	c0.896-0.703,1.711-1.508,2.423-2.396c0.608-0.756,0.521-1.857-0.196-2.51c-0.638-0.574-0.844-1.488-0.514-2.273
	c0.309-0.736,1.052-1.23,1.855-1.236l0.133,0.004c0.037,0.002,0.074,0.002,0.109,0.002c0.924,0,1.701-0.695,1.811-1.621
	c0.132-1.125,0.134-2.27,0.007-3.406C35.566,32.262,34.58,31.641,33.731,31.641 M33.594,36.168
	c-1.637,0.016-3.155,1.031-3.786,2.537c-0.641,1.527-0.297,3.293,0.849,4.477c-0.518,0.617-1.094,1.188-1.713,1.693
	c-0.761-0.723-1.84-1.146-2.94-1.146c-0.53,0-1.037,0.098-1.504,0.289c-1.513,0.619-2.517,2.092-2.564,3.717
	c-0.791,0.07-1.591,0.068-2.375-0.006c-0.015-1.648-1.009-3.146-2.538-3.785c-0.476-0.201-0.991-0.301-1.534-0.301
	c-1.103,0-2.182,0.426-2.941,1.15c-0.609-0.51-1.168-1.078-1.671-1.691c1.126-1.176,1.47-2.924,0.85-4.438
	c-0.626-1.52-2.121-2.547-3.729-2.564c-0.075-0.809-0.073-1.619,0.004-2.414c1.695-0.08,3.165-1.055,3.783-2.527
	c0.642-1.529,0.298-3.295-0.846-4.477c0.514-0.617,1.089-1.184,1.712-1.693c0.76,0.723,1.84,1.146,2.943,1.146
	c0.529,0,1.034-0.098,1.501-0.287c1.511-0.619,2.515-2.092,2.564-3.719c0.789-0.07,1.586-0.068,2.376,0.006
	c0.014,1.645,1.007,3.143,2.537,3.787c0.475,0.197,0.991,0.299,1.532,0.299c1.105,0,2.185-0.426,2.943-1.15
	c0.604,0.504,1.165,1.072,1.672,1.689c-1.125,1.176-1.469,2.924-0.85,4.438c0.621,1.516,2.077,2.512,3.729,2.563
	C33.672,34.565,33.67,35.372,33.594,36.168"/>
<path d="M20.82,29.258c-3.145,0-5.702,2.559-5.702,5.703s2.557,5.703,5.702,5.703c3.144,0,5.702-2.559,5.702-5.703
	S23.963,29.258,20.82,29.258 M20.82,38.542c-1.975,0-3.58-1.605-3.58-3.58s1.605-3.582,3.58-3.582c1.974,0,3.58,1.607,3.58,3.582
	S22.793,38.542,20.82,38.542"/>
<path d="M44.713,20.563c-0.578,0-1.146,0.115-1.685,0.338c-2.246,0.932-3.315,3.518-2.384,5.764
	c0.686,1.652,2.287,2.721,4.078,2.721c0.58,0,1.146-0.113,1.685-0.336c2.247-0.932,3.317-3.518,2.386-5.764
	C48.106,21.633,46.506,20.563,44.713,20.563 M45.703,27.35c-0.314,0.131-0.644,0.197-0.98,0.197c-1.045,0-1.98-0.623-2.381-1.586
	c-0.543-1.311,0.082-2.818,1.391-3.363c0.314-0.129,0.645-0.195,0.98-0.195c1.047,0,1.981,0.623,2.381,1.586
	C47.637,25.299,47.014,26.807,45.703,27.35"/>
<path d="M54.691,26.311c-0.559-0.199-0.934-0.729-0.932-1.318c0.002-0.541,0.354-1.066,0.857-1.281l0.09-0.033
	c0.734-0.256,1.157-1.066,0.941-1.826c-0.233-0.826-0.566-1.633-0.986-2.395c-0.254-0.459-0.771-0.744-1.35-0.744
	c-0.217,0-0.434,0.041-0.627,0.121c-0.181,0.076-0.369,0.115-0.563,0.115c-0.374,0-0.723-0.146-0.982-0.406
	c-0.41-0.414-0.519-1.049-0.271-1.58c0.331-0.709,0.057-1.563-0.627-1.945c-0.753-0.422-1.549-0.756-2.366-0.991
	c-0.135-0.041-0.276-0.061-0.418-0.061c-0.634,0-1.203,0.4-1.415,0.999c-0.182,0.513-0.773,0.931-1.316,0.931
	c-0.59-0.006-1.117-0.383-1.312-0.942c-0.209-0.603-0.778-1.008-1.417-1.008c-0.141,0-0.277,0.02-0.413,0.058
	c-0.823,0.235-1.622,0.563-2.368,0.976c-0.684,0.375-0.966,1.227-0.643,1.938c0.244,0.535,0.132,1.17-0.279,1.578
	c-0.24,0.238-0.631,0.385-1.02,0.385c-0.205,0-0.399-0.041-0.563-0.117c-0.201-0.094-0.416-0.141-0.637-0.141
	c-0.541,0-1.042,0.291-1.311,0.764c-0.427,0.758-0.764,1.563-1.004,2.389c-0.222,0.762,0.189,1.566,0.936,1.834
	c0.561,0.199,0.933,0.729,0.931,1.318c-0.003,0.559-0.389,1.078-0.985,1.33c-0.736,0.287-1.117,1.045-0.902,1.811
	c0.234,0.826,0.566,1.633,0.986,2.395c0.254,0.457,0.771,0.742,1.35,0.742c0.223,0,0.443-0.043,0.639-0.125l0.022-0.01
	c0.161-0.07,0.335-0.107,0.518-0.107c0.369,0,0.732,0.152,0.995,0.416c0.409,0.412,0.518,1.045,0.27,1.58
	c-0.33,0.709-0.053,1.563,0.625,1.939c0.744,0.42,1.539,0.754,2.365,0.996c0.137,0.039,0.278,0.061,0.422,0.061
	c0.631,0,1.199-0.4,1.414-0.998c0.182-0.514,0.771-0.932,1.316-0.932c0.589,0.002,1.117,0.381,1.313,0.939
	c0.209,0.602,0.779,1.008,1.418,1.008c0.139,0,0.277-0.02,0.41-0.057c0.42-0.119,0.838-0.266,1.242-0.434
	c0.385-0.158,0.764-0.342,1.128-0.543c0.685-0.375,0.966-1.227,0.642-1.939c-0.244-0.533-0.131-1.166,0.279-1.574
	c0.244-0.242,0.625-0.387,1.02-0.387c0.205,0,0.4,0.041,0.566,0.119c0.201,0.094,0.414,0.139,0.635,0.139
	c0.537,0,1.039-0.289,1.309-0.764c0.424-0.754,0.764-1.559,1.005-2.389C55.85,27.385,55.439,26.579,54.691,26.311 M53.161,29.374
	c-0.329-0.113-0.687-0.172-1.049-0.172c-0.882,0-1.724,0.334-2.314,0.918c-0.88,0.875-1.174,2.188-0.774,3.35
	c-0.225,0.115-0.452,0.221-0.684,0.316c-0.246,0.102-0.496,0.193-0.751,0.273c-0.526-1.127-1.663-1.867-2.934-1.871
	c-1.212,0-2.39,0.764-2.917,1.854c-0.493-0.162-0.973-0.363-1.432-0.604c0.406-1.162,0.123-2.475-0.754-3.355
	c-0.605-0.609-1.443-0.957-2.298-0.957c-0.366,0-0.723,0.061-1.06,0.184c-0.242-0.473-0.444-0.965-0.604-1.465
	c1.143-0.578,1.869-1.691,1.875-2.908c0.006-1.26-0.728-2.4-1.852-2.934c0.162-0.5,0.367-0.986,0.611-1.453
	c0.33,0.113,0.687,0.172,1.049,0.172c0.882,0,1.725-0.336,2.313-0.92c0.88-0.873,1.175-2.184,0.776-3.35
	c0.46-0.234,0.941-0.434,1.434-0.59c0.525,1.127,1.661,1.865,2.928,1.873c1.215,0,2.396-0.764,2.924-1.854
	c0.49,0.158,0.969,0.361,1.432,0.602c-0.404,1.16-0.122,2.473,0.752,3.355c0.609,0.611,1.421,0.949,2.289,0.949
	c0.365,0,0.723-0.061,1.068-0.178c0.242,0.471,0.443,0.959,0.602,1.457c-1.121,0.525-1.867,1.68-1.872,2.92
	c-0.006,1.258,0.728,2.4,1.851,2.932C53.609,28.42,53.402,28.909,53.161,29.374"/>
</svg>
