<?xml version="1.0" encoding="utf-8"?>
<svg xmlns="http://www.w3.org/2000/svg"
	xmlns:xlink="http://www.w3.org/1999/xlink"
	width="66px" height="66px" viewBox="0 0 66 66">
<path fillRule="evenodd" d="M 33.01 65.99C 14.81 65.99 0 51.19 0 33 0 14.81 14.81 0.01 33.01 0.01 51.21 0.01 66.01 14.81 66.01 33 66.01 51.19 51.21 65.99 33.01 65.99ZM 33.01 2.25C 16.05 2.25 2.24 16.05 2.24 33 2.24 49.96 16.05 63.75 33.01 63.75 49.97 63.75 63.78 49.96 63.78 33 63.78 16.05 49.97 2.25 33.01 2.25ZM 27.81 33.47C 27.81 33.47 37.95 43.63 37.95 43.63 38.38 44.06 38.38 44.77 37.95 45.21 37.51 45.64 36.8 45.64 36.36 45.21 36.36 45.21 25.43 34.27 25.43 34.27 24.99 33.83 24.99 33.13 25.43 32.69 25.43 32.69 36.36 21.75 36.36 21.75 36.58 21.53 36.87 21.42 37.15 21.42 37.44 21.42 37.73 21.53 37.95 21.75 38.39 22.19 38.39 22.89 37.95 23.33 37.95 23.33 27.81 33.47 27.81 33.47Z" fill="rgb(5,5,5)"/></svg>