<?xml version="1.0" encoding="utf-8"?>
<svg xmlns="http://www.w3.org/2000/svg"
	xmlns:xlink="http://www.w3.org/1999/xlink"
	width="123px" height="123px" viewBox="0 0 123 123">
<path fillRule="evenodd" d="M 83.79 122.09C 62.29 122.09 44.73 104.52 44.73 83.03 44.73 83.03 34.99 83.03 34.99 83.03 34.99 83.03 34.99 68.36 34.99 68.36 34.99 68.36 69.13 68.36 69.13 68.36 69.13 68.36 69.13 83.03 69.13 83.03 69.13 83.03 59.39 83.03 59.39 83.03 59.39 96.7 70.11 107.45 83.79 107.45 97.45 107.45 108.19 96.7 108.19 83.03 108.19 83.03 108.19-0 108.19-0 108.19-0 122.82-0 122.82-0 122.82-0 122.82 83.03 122.82 83.03 122.82 104.52 105.26 122.09 83.79 122.09ZM 117.94 4.89C 117.94 4.89 113.05 4.89 113.05 4.89 113.05 4.89 113.05 24.42 113.05 24.42 113.05 24.42 117.94 24.42 117.94 24.42 117.94 24.42 117.94 4.89 117.94 4.89ZM 117.94 29.31C 117.94 29.31 113.05 29.31 113.05 29.31 113.05 29.31 113.05 83.03 113.05 83.03 113.05 99.13 99.87 112.31 83.79 112.31 67.68 112.31 54.5 99.13 54.5 83.03 54.5 83.03 54.5 78.14 54.5 78.14 54.5 78.14 64.25 78.14 64.25 78.14 64.25 78.14 64.25 73.25 64.25 73.25 64.25 73.25 39.84 73.25 39.84 73.25 39.84 73.25 39.84 78.14 39.84 78.14 39.84 78.14 49.62 78.14 49.62 78.14 49.62 78.14 49.62 83.03 49.62 83.03 49.62 102.06 64.75 117.2 83.79 117.2 102.81 117.2 117.94 102.06 117.94 83.03 117.94 83.03 117.94 29.31 117.94 29.31ZM 79.38 63.48C 79.38 63.48 74.5 63.48 74.5 63.48 71.59 63.48 68.16 62.02 66.7 59.59 66.7 59.59 57.91 47.38 57.91 47.38 54.98 42.97 49.62 42.97 46.69 47.38 46.69 47.38 37.89 59.59 37.89 59.59 36.44 61.52 33.03 63.48 30.1 63.48 30.1 63.48 25.22 63.48 25.22 63.48 11.56 63.48 0.81 52.75 0.81 39.06 0.81 39.06 0.81 36.63 0.81 36.63 0.81 21.99 13.01 9.78 28.14 9.78 28.14 9.78 76.95 9.78 76.95 9.78 91.58 9.78 103.78 21.99 103.78 36.63 103.78 36.63 103.78 39.06 103.78 39.06 103.78 52.75 93.06 63.48 79.38 63.48ZM 98.42 36.63C 98.42 24.42 88.65 14.64 76.45 14.64 76.45 14.64 27.64 14.64 27.64 14.64 15.44 14.64 5.7 24.42 5.7 36.63 5.7 36.63 5.7 39.06 5.7 39.06 5.7 49.81 14.47 58.62 25.22 58.62 25.22 58.62 30.1 58.62 30.1 58.62 31.08 58.62 33.03 57.63 33.51 56.66 33.51 56.66 42.3 44.45 42.3 44.45 47.19 37.1 56.46 37.1 61.34 44.45 61.34 44.45 70.11 56.66 70.11 56.66 71.09 57.63 73.04 58.62 74.02 58.62 74.02 58.62 78.91 58.62 78.91 58.62 89.63 58.62 98.42 49.81 98.42 39.06 98.42 39.06 98.42 36.63 98.42 36.63Z" fill="rgb(0,0,0)"/></svg>