<?xml version="1.0" encoding="utf-8"?>
<svg xmlns="http://www.w3.org/2000/svg"
	xmlns:xlink="http://www.w3.org/1999/xlink"
	width="66px" height="66px" viewBox="0 0 66 66">
<path fillRule="evenodd" d="M 33.01 65.99C 14.8 65.99-0.01 51.19-0.01 33-0.01 14.81 14.8 0.01 33.01 0.01 51.22 0.01 66.03 14.81 66.03 33 66.03 51.19 51.22 65.99 33.01 65.99ZM 33.01 2.25C 16.04 2.25 2.23 16.04 2.23 33 2.23 49.95 16.04 63.75 33.01 63.75 49.98 63.75 63.79 49.95 63.79 33 63.79 16.04 49.98 2.25 33.01 2.25ZM 29.65 44.25C 29.44 44.47 29.14 44.58 28.86 44.58 28.58 44.58 28.28 44.47 28.07 44.25 27.63 43.81 27.63 43.11 28.07 42.67 28.07 42.67 38.21 32.53 38.21 32.53 38.21 32.53 28.07 22.37 28.07 22.37 27.64 21.94 27.64 21.23 28.07 20.79 28.5 20.36 29.22 20.36 29.65 20.79 29.65 20.79 40.59 31.73 40.59 31.73 41.03 32.17 41.03 32.88 40.59 33.31 40.59 33.31 29.65 44.25 29.65 44.25Z" fill="rgb(5,5,5)"/></svg>