<?xml version="1.0" encoding="utf-8"?>
<!-- Generator: Adobe Illustrator 16.0.0, SVG Export Plug-In . SVG Version: 6.00 Build 0)  -->
<!DOCTYPE svg PUBLIC "-//W3C//DTD SVG 1.1//EN" "http://www.w3.org/Graphics/SVG/1.1/DTD/svg11.dtd">
<svg version="1.1" id="Режим_изоляции" xmlns="http://www.w3.org/2000/svg" xmlns:xlink="http://www.w3.org/1999/xlink" x="0px" y="0px" width="31.5px" height="32.75px" viewBox="-33.364 38.666 31.5 32.75" enable-background="new -33.364 38.666 31.5 32.75" xml:space="preserve">
    <path fill="#fff" d="M-4.614,39.916h-1.123c0.029-0.092,0.059-0.186,0.059-0.288c0-0.53-0.432-0.962-0.963-0.962s-0.961,0.432-0.961,0.962
	c0,0.103,0.028,0.196,0.059,0.288h-3.68c0.029-0.092,0.06-0.186,0.06-0.288c0-0.53-0.433-0.962-0.964-0.962
	c-0.529,0-0.961,0.432-0.961,0.962c0,0.103,0.029,0.196,0.06,0.288h-3.681c0.029-0.092,0.058-0.186,0.058-0.288
	c0-0.53-0.43-0.962-0.961-0.962s-0.961,0.432-0.961,0.962c0,0.103,0.027,0.196,0.058,0.288h-3.681
	c0.028-0.092,0.059-0.186,0.059-0.288c0-0.53-0.431-0.962-0.961-0.962c-0.531,0-0.962,0.432-0.962,0.962
	c0,0.103,0.028,0.196,0.058,0.288h-3.68c0.03-0.092,0.06-0.186,0.06-0.288c0-0.53-0.431-0.962-0.962-0.962
	c-0.53,0-0.962,0.432-0.962,0.962c0,0.103,0.028,0.196,0.059,0.288h-1.125c-1.519,0-2.75,1.234-2.75,2.75v26
	c0,1.518,1.231,2.75,2.75,2.75H-7.72l5.855-5.855V42.666C-1.864,41.15-3.097,39.916-4.614,39.916z M-3.364,64.939l-0.311,0.311
	H-6.03c-1.102,0-2,0.9-2,2v2.355l-0.311,0.311h-22.273c-0.689,0-1.25-0.561-1.25-1.25v-25h28.5V64.939z" />
    <g>
        <path fill="#fff" d="M-15.246,64.248h-2.814V53.644c-1.028,0.961-2.24,1.672-3.635,2.133v-2.554c0.734-0.24,1.532-0.696,2.394-1.367
		s1.452-1.453,1.772-2.348h2.283V64.248z" />
    </g>
</svg>
