<?xml version="1.0" encoding="utf-8"?>
<!-- Generator: Adobe Illustrator 16.0.0, SVG Export Plug-In . SVG Version: 6.00 Build 0)  -->
<!DOCTYPE svg PUBLIC "-//W3C//DTD SVG 1.1//EN" "http://www.w3.org/Graphics/SVG/1.1/DTD/svg11.dtd">
<svg version="1.1" id="Режим_изоляции" xmlns="http://www.w3.org/2000/svg" xmlns:xlink="http://www.w3.org/1999/xlink" x="0px" y="0px" width="31.5px" height="33.303px" viewBox="10.017 38.666 31.5 33.303" enable-background="new 10.017 38.666 31.5 33.303" xml:space="preserve">
    <g>
        <path fill="#fff" d="M38.767,39.916h-1.123c0.029-0.092,0.059-0.186,0.059-0.288c0-0.53-0.432-0.962-0.963-0.962s-0.961,0.432-0.961,0.962
		c0,0.103,0.028,0.196,0.059,0.288h-3.68c0.029-0.092,0.06-0.186,0.06-0.288c0-0.53-0.433-0.962-0.964-0.962
		c-0.529,0-0.961,0.432-0.961,0.962c0,0.103,0.029,0.196,0.06,0.288h-3.681c0.029-0.092,0.058-0.186,0.058-0.288
		c0-0.53-0.43-0.962-0.961-0.962s-0.961,0.432-0.961,0.962c0,0.103,0.027,0.196,0.058,0.288h-3.681
		c0.028-0.092,0.059-0.186,0.059-0.288c0-0.53-0.431-0.962-0.961-0.962c-0.531,0-0.962,0.432-0.962,0.962
		c0,0.103,0.028,0.196,0.058,0.288h-3.68c0.03-0.092,0.06-0.186,0.06-0.288c0-0.53-0.431-0.962-0.962-0.962
		c-0.53,0-0.962,0.432-0.962,0.962c0,0.103,0.028,0.196,0.059,0.288h-1.125c-1.519,0-2.75,1.234-2.75,2.75v26
		c0,1.518,1.231,2.75,2.75,2.75h22.895l5.855-5.855V42.666C41.517,41.15,40.284,39.916,38.767,39.916z M40.017,64.939l-0.311,0.311
		h-2.355c-1.102,0-2,0.9-2,2v2.355l-0.311,0.311H12.767c-0.689,0-1.25-0.561-1.25-1.25v-25h28.5V64.939z" />
        <g>
            <path fill="#fff" d="M30.438,61.635v2.613h-9.863c0.106-0.988,0.428-1.924,0.961-2.809c0.534-0.885,1.59-2.059,3.165-3.521
			c1.269-1.182,2.046-1.982,2.333-2.403c0.387-0.581,0.581-1.154,0.581-1.723c0-0.627-0.169-1.109-0.506-1.446
			s-0.803-0.506-1.397-0.506c-0.587,0-1.055,0.177-1.401,0.53c-0.347,0.354-0.548,0.941-0.601,1.763l-2.805-0.28
			c0.167-1.549,0.691-2.66,1.572-3.335c0.881-0.674,1.982-1.011,3.305-1.011c1.449,0,2.587,0.391,3.415,1.171
			c0.827,0.781,1.241,1.753,1.241,2.914c0,0.661-0.118,1.291-0.355,1.888c-0.236,0.598-0.612,1.224-1.126,1.878
			c-0.341,0.434-0.955,1.059-1.843,1.873s-1.45,1.354-1.688,1.622c-0.236,0.267-0.429,0.527-0.576,0.781H30.438z" />
        </g>
    </g>
</svg>
