<?xml version="1.0" encoding="utf-8"?>
<!-- Generator: Adobe Illustrator 16.0.0, SVG Export Plug-In . SVG Version: 6.00 Build 0)  -->
<!DOCTYPE svg PUBLIC "-//W3C//DTD SVG 1.1//EN" "http://www.w3.org/Graphics/SVG/1.1/DTD/svg11.dtd">
<svg version="1.1" id="Режим_изоляции" xmlns="http://www.w3.org/2000/svg" xmlns:xlink="http://www.w3.org/1999/xlink" x="0px" y="0px" width="31.5px" height="33.303px" viewBox="10.016 79.126 31.5 33.303" enable-background="new 10.016 79.126 31.5 33.303" xml:space="preserve">
    <g>
        <path fill="#fff" d="M38.766,80.376h-1.123c0.029-0.092,0.059-0.186,0.059-0.288c0-0.53-0.432-0.962-0.963-0.962s-0.961,0.432-0.961,0.962
		c0,0.103,0.029,0.196,0.059,0.288h-3.68c0.029-0.092,0.061-0.186,0.061-0.288c0-0.53-0.434-0.962-0.965-0.962
		c-0.529,0-0.961,0.432-0.961,0.962c0,0.103,0.029,0.196,0.061,0.288H26.67c0.029-0.092,0.059-0.186,0.059-0.288
		c0-0.53-0.43-0.962-0.961-0.962s-0.961,0.432-0.961,0.962c0,0.103,0.027,0.196,0.057,0.288h-3.68
		c0.027-0.092,0.059-0.186,0.059-0.288c0-0.53-0.432-0.962-0.961-0.962c-0.531,0-0.963,0.432-0.963,0.962
		c0,0.103,0.029,0.196,0.059,0.288h-3.68c0.03-0.092,0.06-0.186,0.06-0.288c0-0.53-0.431-0.962-0.962-0.962
		c-0.53,0-0.962,0.432-0.962,0.962c0,0.103,0.028,0.196,0.059,0.288h-1.125c-1.519,0-2.75,1.234-2.75,2.75v26
		c0,1.518,1.231,2.75,2.75,2.75H35.66l5.855-5.855V83.126C41.516,81.61,40.283,80.376,38.766,80.376z M40.016,105.399l-0.311,0.311
		H37.35c-1.102,0-2,0.9-2,2v2.355l-0.311,0.311H12.766c-0.689,0-1.25-0.561-1.25-1.25v-25h28.5V105.399z" />
        <g>
            <path fill="#fff" d="M20.834,100.813l2.725-0.33c0.086,0.694,0.32,1.225,0.7,1.592s0.841,0.551,1.382,0.551c0.581,0,1.07-0.221,1.467-0.661
			c0.397-0.44,0.596-1.034,0.596-1.782c0-0.708-0.189-1.269-0.57-1.683c-0.381-0.413-0.845-0.62-1.393-0.62
			c-0.359,0-0.791,0.069-1.291,0.21l0.311-2.293c0.761,0.02,1.342-0.146,1.742-0.496s0.602-0.816,0.602-1.396
			c0-0.494-0.147-0.889-0.441-1.182c-0.294-0.294-0.684-0.441-1.172-0.441c-0.48,0-0.891,0.167-1.231,0.501s-0.548,0.821-0.62,1.462
			l-2.594-0.44c0.18-0.888,0.451-1.598,0.815-2.128c0.364-0.531,0.872-0.948,1.522-1.252s1.38-0.455,2.188-0.455
			c1.383,0,2.49,0.44,3.325,1.321c0.688,0.721,1.031,1.536,1.031,2.443c0,1.289-0.704,2.317-2.112,3.085
			c0.84,0.18,1.514,0.584,2.018,1.211c0.504,0.628,0.756,1.386,0.756,2.273c0,1.289-0.471,2.387-1.412,3.295
			s-2.113,1.361-3.516,1.361c-1.328,0-2.43-0.382-3.305-1.146C21.481,103.048,20.975,102.048,20.834,100.813z" />
        </g>
    </g>
</svg>
