<?xml version="1.0" encoding="utf-8"?>
<!-- Generator: Adobe Illustrator 16.0.0, SVG Export Plug-In . SVG Version: 6.00 Build 0)  -->
<!DOCTYPE svg PUBLIC "-//W3C//DTD SVG 1.1//EN" "http://www.w3.org/Graphics/SVG/1.1/DTD/svg11.dtd">
<svg version="1.1" id="Режим_изоляции"
	 xmlns="http://www.w3.org/2000/svg" xmlns:xlink="http://www.w3.org/1999/xlink" x="0px" y="0px" width="31.5px" height="33.303px"
	 viewBox="-33.364 80.545 31.5 33.303" enable-background="new -33.364 80.545 31.5 33.303" xml:space="preserve">
<g>
	<path d="M-4.614,81.795h-1.123c0.029-0.092,0.059-0.186,0.059-0.288c0-0.53-0.432-0.962-0.963-0.962s-0.961,0.432-0.961,0.962
		c0,0.103,0.028,0.196,0.059,0.288h-3.68c0.029-0.092,0.06-0.186,0.06-0.288c0-0.53-0.433-0.962-0.964-0.962
		c-0.529,0-0.961,0.432-0.961,0.962c0,0.103,0.029,0.196,0.06,0.288h-3.681c0.029-0.092,0.058-0.186,0.058-0.288
		c0-0.53-0.43-0.962-0.961-0.962s-0.961,0.432-0.961,0.962c0,0.103,0.027,0.196,0.058,0.288h-3.681
		c0.028-0.092,0.059-0.186,0.059-0.288c0-0.53-0.431-0.962-0.961-0.962c-0.531,0-0.962,0.432-0.962,0.962
		c0,0.103,0.028,0.196,0.058,0.288h-3.68c0.03-0.092,0.06-0.186,0.06-0.288c0-0.53-0.431-0.962-0.962-0.962
		c-0.53,0-0.962,0.432-0.962,0.962c0,0.103,0.028,0.196,0.059,0.288h-1.125c-1.519,0-2.75,1.234-2.75,2.75v26
		c0,1.518,1.231,2.75,2.75,2.75H-7.72l5.855-5.855V84.545C-1.864,83.029-3.097,81.795-4.614,81.795z M-3.364,106.818l-0.311,0.311
		H-6.03c-1.102,0-2,0.9-2,2v2.355l-0.311,0.311h-22.273c-0.689,0-1.25-0.561-1.25-1.25v-25h28.5V106.818z"/>
	<g>
		<path d="M-28.25,102.231l2.724-0.33c0.086,0.694,0.32,1.225,0.701,1.592s0.841,0.551,1.382,0.551c0.581,0,1.07-0.221,1.467-0.661
			c0.397-0.44,0.596-1.034,0.596-1.782c0-0.708-0.19-1.269-0.571-1.683c-0.38-0.413-0.845-0.62-1.392-0.62
			c-0.36,0-0.791,0.069-1.292,0.21l0.311-2.293c0.761,0.02,1.342-0.146,1.742-0.496s0.601-0.816,0.601-1.396
			c0-0.494-0.147-0.889-0.441-1.182c-0.294-0.294-0.684-0.441-1.171-0.441c-0.481,0-0.892,0.167-1.232,0.501
			s-0.547,0.821-0.621,1.462l-2.594-0.44c0.18-0.888,0.452-1.598,0.816-2.128c0.364-0.531,0.872-0.948,1.522-1.252
			s1.38-0.455,2.188-0.455c1.382,0,2.49,0.44,3.325,1.321c0.688,0.721,1.031,1.536,1.031,2.443c0,1.289-0.705,2.317-2.113,3.085
			c0.841,0.18,1.514,0.584,2.018,1.211c0.504,0.628,0.756,1.386,0.756,2.273c0,1.289-0.471,2.387-1.412,3.295
			s-2.113,1.361-3.515,1.361c-1.329,0-2.43-0.382-3.305-1.146C-27.602,104.467-28.109,103.467-28.25,102.231z"/>
		<path d="M-9.543,106.127h-2.814V95.522c-1.028,0.961-2.24,1.672-3.635,2.133v-2.554c0.734-0.24,1.532-0.696,2.394-1.367
			s1.452-1.453,1.772-2.348h2.283V106.127z"/>
	</g>
</g>
</svg>
