<?xml version="1.0" encoding="utf-8"?>
<!-- Generator: Adobe Illustrator 16.0.0, SVG Export Plug-In . SVG Version: 6.00 Build 0)  -->
<!DOCTYPE svg PUBLIC "-//W3C//DTD SVG 1.1//EN" "http://www.w3.org/Graphics/SVG/1.1/DTD/svg11.dtd">
<svg version="1.1" id="Слой_1" xmlns="http://www.w3.org/2000/svg" xmlns:xlink="http://www.w3.org/1999/xlink" x="0px" y="0px"
	 width="605.924px" height="242.968px" viewBox="0 0 605.924 242.968" enable-background="new 0 0 605.924 242.968"
	 xml:space="preserve">
<g id="Слой_2">
	<polygon fill="#4377B8" points="139.104,114.859 489.439,65.713 489.439,147.524 139.104,196.671 	"/>
	<polygon fill="#4377B8" points="0,85 605.924,0 605.924,72.315 0,157.315 	"/>
	<polygon fill="#4377B8" points="230.591,151.877 406.557,127.191 406.557,218.283 230.591,242.968 	"/>
</g>
<g>
	<path fill="#FFFFFF" d="M40.759,114.431l7.761-1.13c5.262-0.766,9.249-0.288,11.96,1.436c2.711,1.723,4.336,4.436,4.875,8.138
		c0.39,2.677,0.224,5.058-0.497,7.144s-1.86,3.881-3.418,5.382c-1.558,1.503-3.486,2.729-5.784,3.679
		c-2.299,0.949-4.854,1.628-7.663,2.038l-22.614,3.293l0.006-5.125l4.281-1.101c0.483-0.116,0.768-0.271,0.854-0.466
		c0.085-0.194,0.137-0.543,0.155-1.048l-0.163-35.368c0.018-0.503-0.051-0.823-0.208-0.96c-0.156-0.137-0.487-0.213-0.99-0.231
		l-4.149,0.126l-0.082-5.25l35.66-5.193l0.106,14.333l-7.265,0.784l-1.086-5.581c-0.084-0.579-0.461-0.821-1.13-0.723l-10.705,1.559
		L40.759,114.431z M46.404,133.969c1.204-0.175,2.359-0.458,3.464-0.847c1.105-0.388,2.05-0.935,2.836-1.642
		c0.785-0.706,1.362-1.587,1.733-2.644c0.369-1.056,0.444-2.342,0.223-3.859c-0.317-2.185-1.221-3.534-2.707-4.047
		c-1.486-0.511-3.345-0.606-5.575-0.281l-5.62,0.818l0.094,13.31L46.404,133.969z"/>
	<path fill="#FFFFFF" d="M92.601,135.44c-3.479,0.507-6.539,0.461-9.176-0.133c-2.638-0.595-4.863-1.649-6.678-3.162
		c-1.814-1.512-3.269-3.441-4.361-5.787c-1.093-2.345-1.857-5.013-2.293-8.001c-0.617-4.237-0.623-8.267-0.018-12.09
		c0.604-3.822,1.857-7.262,3.758-10.317c1.9-3.055,4.444-5.611,7.629-7.67c3.185-2.058,7.052-3.418,11.602-4.081
		c3.479-0.507,6.518-0.437,9.117,0.21c2.599,0.646,4.806,1.725,6.621,3.237c1.813,1.512,3.263,3.409,4.346,5.687
		c1.084,2.28,1.827,4.802,2.23,7.567c0.694,4.773,0.703,9.133,0.025,13.08c-0.679,3.949-1.996,7.408-3.954,10.38
		c-1.959,2.974-4.52,5.407-7.682,7.302C100.604,133.558,96.882,134.817,92.601,135.44z M92.94,126.986
		c1.962-0.286,3.762-0.911,5.397-1.878c1.635-0.967,3.005-2.351,4.109-4.151c1.104-1.801,1.895-4.034,2.372-6.7
		c0.477-2.665,0.542-5.817,0.194-9.456c-0.097-0.669-0.191-1.315-0.282-1.94c-0.091-0.624-0.224-1.22-0.396-1.787
		c-0.909-3.42-2.291-5.792-4.146-7.117c-1.856-1.324-4.233-1.775-7.132-1.353c-2.588,0.376-4.765,1.298-6.533,2.762
		c-1.768,1.465-3.148,3.249-4.14,5.352c-0.992,2.103-1.624,4.416-1.894,6.937c-0.271,2.522-0.224,5.032,0.141,7.529
		c0.084,0.58,0.187,1.214,0.311,1.902c0.123,0.689,0.261,1.25,0.416,1.682c0.932,3.281,2.338,5.582,4.216,6.901
		C87.452,126.989,89.906,127.428,92.94,126.986z"/>
	<path fill="#FFFFFF" d="M128.143,129.444c-0.625,0.091-0.962,0.436-1.011,1.035l-1.333,9.145l-7.358,1.549l-0.114-17.679
		l3.746-0.545c1.327-1.833,2.455-3.706,3.384-5.618c0.929-1.911,1.683-4.002,2.264-6.274c0.58-2.271,0.987-4.789,1.223-7.557
		c0.234-2.767,0.344-5.925,0.328-9.476l-0.077-7.094c0.018-0.503-0.031-0.838-0.146-1.003c-0.116-0.165-0.426-0.257-0.929-0.275
		l-4.216,0.136l-0.004-5.192l42.751-6.226l0.005,5.192l-4.473,1.198c-0.478,0.161-0.771,0.329-0.882,0.504
		c-0.111,0.176-0.177,0.516-0.193,1.019l0.237,34.947l5.086-0.741l0.114,17.679l-7.36,0.595l-1.354-8.822
		c-0.077-0.535-0.407-0.761-0.986-0.676L128.143,129.444z M138.78,85.671l0.116,7.362c0.046,3.136-0.001,6.024-0.14,8.663
		c-0.139,2.64-0.44,5.109-0.902,7.407c-0.463,2.3-1.094,4.454-1.895,6.46c-0.801,2.007-1.841,3.947-3.116,5.817l18.131-2.64
		l-0.218-34.813L138.78,85.671z"/>
	<path fill="#FFFFFF" d="M201.336,118.786l0.015-5.058l4.214-1.092c0.477-0.16,0.761-0.326,0.85-0.499
		c0.088-0.172,0.142-0.51,0.16-1.014l-0.116-28.474l-0.334,0.048l-19.105,38.174l-15.188,2.211l-0.053-5.048l4.215-1.092
		c0.477-0.16,0.761-0.326,0.849-0.5c0.089-0.172,0.142-0.51,0.16-1.014l-0.249-35.491c0.018-0.504-0.031-0.838-0.146-1.004
		c-0.115-0.165-0.422-0.234-0.918-0.208l-4.217,0.136l-0.004-5.192l20.873-3.04l0.005,5.192l-4.472,1.198
		c-0.521,0.167-0.83,0.326-0.921,0.476c-0.093,0.15-0.147,0.477-0.165,0.98l0.045,27.049l0.334-0.048L205.79,68.67l16.123-2.348
		l0.005,5.192l-4.472,1.198c-0.522,0.168-0.83,0.326-0.922,0.477c-0.092,0.149-0.146,0.477-0.164,0.98l0.229,35.358
		c-0.012,0.548,0.05,0.893,0.185,1.032c0.134,0.141,0.452,0.219,0.957,0.237l4.426-0.098l0.053,5.048L201.336,118.786z"/>
	<path fill="#FFFFFF" d="M242.071,85.114l7.761-1.13c5.263-0.766,9.25-0.288,11.961,1.436c2.711,1.723,4.336,4.436,4.875,8.138
		c0.39,2.677,0.224,5.058-0.497,7.144c-0.721,2.087-1.861,3.881-3.418,5.383c-1.558,1.503-3.487,2.729-5.784,3.679
		c-2.3,0.949-4.854,1.628-7.663,2.038l-22.614,3.293l0.006-5.125l4.28-1.101c0.483-0.116,0.769-0.271,0.854-0.466
		c0.085-0.194,0.137-0.543,0.155-1.048l-0.163-35.368c0.017-0.503-0.052-0.823-0.208-0.96c-0.156-0.137-0.487-0.213-0.99-0.231
		l-4.149,0.126l-0.081-5.25l35.659-5.193l0.106,14.333l-7.265,0.784l-1.086-5.581c-0.085-0.579-0.462-0.821-1.13-0.724
		l-10.705,1.559L242.071,85.114z M247.718,104.652c1.204-0.175,2.359-0.458,3.464-0.847c1.104-0.388,2.05-0.935,2.835-1.643
		c0.785-0.706,1.363-1.587,1.733-2.643c0.369-1.056,0.444-2.342,0.224-3.859c-0.318-2.185-1.222-3.535-2.707-4.047
		c-1.487-0.512-3.346-0.606-5.575-0.281l-5.62,0.818l0.094,13.31L247.718,104.652z"/>
	<path fill="#FFFFFF" d="M300.955,104.278l0.015-5.058l4.214-1.092c0.478-0.161,0.76-0.326,0.849-0.5
		c0.09-0.172,0.142-0.509,0.161-1.014l-0.116-28.474l-0.335,0.049l-19.104,38.173l-15.188,2.212l-0.053-5.048l4.215-1.092
		c0.477-0.16,0.761-0.326,0.849-0.499c0.089-0.172,0.142-0.51,0.16-1.014l-0.249-35.492c0.018-0.503-0.031-0.838-0.146-1.004
		c-0.115-0.165-0.422-0.234-0.918-0.208l-4.217,0.136l-0.004-5.192l20.873-3.04l0.005,5.192l-4.472,1.198
		c-0.521,0.167-0.83,0.326-0.921,0.476c-0.093,0.15-0.147,0.477-0.165,0.98l0.045,27.049l0.334-0.048l18.623-36.805l16.123-2.348
		l0.004,5.192l-4.472,1.198c-0.521,0.167-0.829,0.326-0.919,0.476c-0.094,0.15-0.148,0.477-0.166,0.98l0.229,35.358
		c-0.011,0.548,0.051,0.893,0.186,1.031c0.134,0.141,0.453,0.219,0.957,0.237l4.426-0.098l0.053,5.048L300.955,104.278z"/>
	<path fill="#FFFFFF" d="M359.63,53.51l-12.645,1.841c0.138,4.399,0.133,8.887-0.021,13.463c-0.153,4.578-0.49,8.68-1.01,12.309
		c-0.337,2.372-0.849,4.656-1.529,6.85c-0.683,2.195-1.723,4.203-3.12,6.023c-1.398,1.821-3.209,3.383-5.433,4.686
		c-2.226,1.303-5.047,2.249-8.469,2.839l-1.965-8.801c1.892-0.457,3.495-1.021,4.81-1.691c1.313-0.669,2.396-1.521,3.249-2.557
		c0.851-1.035,1.534-2.284,2.05-3.749c0.516-1.464,0.923-3.197,1.225-5.2c0.407-2.519,0.695-5.782,0.862-9.793
		c0.168-4.01,0.232-8.335,0.195-12.976c-0.002-0.638-0.081-1.024-0.238-1.161c-0.156-0.137-0.486-0.213-0.99-0.232l-4.351,0.155
		l-0.08-5.25l43.153-6.284l0.014,5.259l-4.472,1.198c-0.478,0.162-0.772,0.317-0.888,0.47c-0.114,0.153-0.178,0.504-0.188,1.053
		l0.287,35.281c-0.013,0.548,0.036,0.883,0.146,1.004c0.108,0.12,0.415,0.19,0.919,0.208l4.494-0.108l-0.082,5.068l-20.539,2.991
		l0.015-5.058l3.744-1.024c0.479-0.161,0.761-0.326,0.851-0.5c0.088-0.172,0.142-0.51,0.16-1.014L359.63,53.51z"/>
	<path fill="#FFFFFF" d="M390.338,91.262c-0.626,0.091-0.96,0.436-1.011,1.036l-1.333,9.145l-7.358,1.55l-0.114-17.679l3.747-0.545
		c1.326-1.833,2.454-3.706,3.383-5.617s1.684-4.003,2.264-6.274s0.987-4.79,1.223-7.557c0.234-2.767,0.344-5.925,0.327-9.476
		l-0.075-7.095c0.018-0.503-0.031-0.838-0.146-1.003c-0.115-0.165-0.426-0.257-0.928-0.275l-4.218,0.136l-0.004-5.192l42.753-6.226
		l0.004,5.192l-4.472,1.198c-0.478,0.161-0.772,0.329-0.883,0.504c-0.112,0.176-0.177,0.516-0.193,1.019l0.238,34.947l5.085-0.741
		l0.115,17.679l-7.361,0.595l-1.354-8.822c-0.078-0.535-0.408-0.761-0.986-0.676L390.338,91.262z M400.976,47.489l0.116,7.362
		c0.046,3.136,0,6.024-0.14,8.663c-0.14,2.64-0.44,5.109-0.901,7.408c-0.463,2.299-1.095,4.454-1.896,6.459
		c-0.801,2.007-1.84,3.947-3.115,5.817l18.131-2.64l-0.219-34.813L400.976,47.489z"/>
	<path fill="#FFFFFF" d="M463.53,80.603l0.015-5.058l4.214-1.093c0.479-0.16,0.761-0.326,0.85-0.499
		c0.089-0.172,0.142-0.51,0.16-1.014l-0.116-28.474l-0.334,0.049l-19.105,38.173L434.025,84.9l-0.051-5.048l4.212-1.092
		c0.479-0.16,0.762-0.326,0.851-0.499c0.088-0.173,0.142-0.51,0.16-1.014l-0.25-35.492c0.017-0.503-0.031-0.838-0.146-1.004
		c-0.116-0.165-0.421-0.234-0.918-0.208l-4.216,0.136l-0.005-5.192l20.874-3.04l0.004,5.192l-4.471,1.198
		c-0.521,0.168-0.83,0.326-0.921,0.476c-0.093,0.15-0.147,0.477-0.165,0.98l0.044,27.049l0.335-0.049l18.622-36.805l16.124-2.348
		l0.004,5.192l-4.472,1.198c-0.521,0.167-0.83,0.326-0.921,0.476c-0.092,0.149-0.146,0.477-0.164,0.98l0.229,35.357
		c-0.013,0.548,0.049,0.893,0.184,1.032c0.135,0.141,0.453,0.219,0.957,0.237l4.427-0.098l0.052,5.048L463.53,80.603z"/>
	<path fill="#FFFFFF" d="M517.188,72.789l0.025-4.991l4.079-1.072c0.478-0.16,0.761-0.327,0.85-0.5
		c0.088-0.172,0.142-0.51,0.16-1.014l-0.03-14.753l-17.997,2.621l0.088,14.677c-0.013,0.548,0.025,0.884,0.111,1.008
		c0.087,0.124,0.381,0.195,0.886,0.212l4.427-0.098l0.042,4.981l-20.741,3.021l-0.041-4.981l4.146-1.082
		c0.479-0.16,0.762-0.327,0.851-0.5c0.088-0.172,0.142-0.51,0.16-1.014l-0.201-35.635c0.018-0.503-0.043-0.836-0.181-0.999
		c-0.138-0.162-0.455-0.229-0.952-0.203l-4.083,0.116l-0.061-5.116l20.74-3.02l0.061,5.115l-4.403,1.188
		c-0.479,0.162-0.764,0.316-0.855,0.466c-0.092,0.15-0.146,0.478-0.163,0.98l0.149,13.233l17.931-2.611L522.1,29.577
		c0.017-0.503-0.031-0.837-0.146-1.003c-0.116-0.165-0.421-0.235-0.918-0.208l-4.149,0.126l-0.063-5.116l20.741-3.021l0.062,5.116
		l-4.338,1.178c-0.479,0.161-0.763,0.316-0.854,0.466c-0.093,0.15-0.147,0.478-0.164,0.981l0.192,35.568
		c-0.013,0.548,0.036,0.882,0.146,1.003c0.108,0.121,0.414,0.191,0.919,0.208l4.427-0.098l-0.025,4.991L517.188,72.789z"/>
	<path fill="#FFFFFF" d="M542.544,69.097l0.005-5.125l4.271-1.168c0.485-0.115,0.769-0.271,0.854-0.466
		c0.086-0.194,0.138-0.543,0.156-1.047l-0.153-35.301c0.018-0.503-0.043-0.836-0.181-0.998c-0.138-0.162-0.454-0.23-0.952-0.204
		l-4.216,0.136l-0.081-5.249l35.994-5.242l0.126,14.466l-7.294,0.584l-1.096-5.648c-0.052-0.356-0.162-0.558-0.328-0.601
		c-0.166-0.044-0.426-0.041-0.783,0.011l-11.039,1.607l0.238,34.947c-0.019,0.504,0.028,0.827,0.141,0.97
		c0.112,0.144,0.417,0.202,0.914,0.174l9.521-0.772l-0.006,5.125L542.544,69.097z"/>
	<path fill="#FFFFFF" d="M200.33,133.463l-4.739,1.237c-0.796,0.163-1.159,0.647-1.086,1.458l-0.013,2.255
		c6.894-0.821,12.096-0.371,15.604,1.349c3.507,1.721,5.563,4.656,6.166,8.804c0.521,3.569,0.289,6.597-0.691,9.085
		c-0.982,2.488-2.478,4.574-4.487,6.256s-4.434,3.025-7.271,4.031s-5.877,1.789-9.119,2.353l0.017,2.457
		c-0.031,0.415,0.031,0.69,0.188,0.827c0.157,0.137,0.461,0.195,0.914,0.174l4.818-0.223l0.052,5.047l-21.142,3.08l0.016-5.059
		l4.558-1.074c0.483-0.115,0.78-0.272,0.888-0.471c0.107-0.197,0.17-0.548,0.188-1.052l0.013-2.257
		c-2.779,0.314-5.415,0.424-7.911,0.332s-4.713-0.531-6.648-1.32c-1.938-0.787-3.545-1.978-4.824-3.567
		c-1.279-1.591-2.106-3.679-2.483-6.267c-0.852-5.842,0.568-10.479,4.26-13.908c3.69-3.43,9.486-5.857,17.387-7.281l0.023-2.189
		c0.037-0.37-0.016-0.647-0.156-0.832c-0.141-0.185-0.414-0.269-0.822-0.256l-4.838,0.09l-0.004-5.191l21.142-3.079L200.33,133.463z
		 M173.875,158.701c0.37,2.542,1.433,4.21,3.188,5.003c1.756,0.791,4.513,0.959,8.272,0.502l-0.075-16.933
		c-4.313,0.72-7.411,1.968-9.293,3.745S173.388,155.356,173.875,158.701z M205.857,151.243c-0.357-2.453-1.48-4.065-3.369-4.84
		c-1.889-0.771-4.646-0.938-8.272-0.502l0.208,16.913c4.435-0.827,7.568-2.138,9.403-3.931
		C205.66,157.091,206.338,154.544,205.857,151.243z"/>
	<path fill="#FFFFFF" d="M251.194,171.218l0.015-5.058l4.213-1.093c0.478-0.16,0.761-0.325,0.85-0.499
		c0.089-0.171,0.142-0.509,0.16-1.013l-0.115-28.475l-0.335,0.049l-19.105,38.174l-15.188,2.211l-0.052-5.048l4.214-1.093
		c0.477-0.16,0.761-0.326,0.85-0.5c0.088-0.171,0.142-0.508,0.16-1.012l-0.249-35.492c0.018-0.504-0.031-0.838-0.146-1.004
		c-0.116-0.165-0.422-0.234-0.919-0.208l-4.216,0.135l-0.005-5.191l20.874-3.04l0.005,5.191l-4.472,1.198
		c-0.521,0.167-0.83,0.326-0.921,0.476c-0.093,0.15-0.147,0.477-0.165,0.981l0.045,27.049l0.334-0.049l18.622-36.805l16.124-2.348
		l0.004,5.191l-4.472,1.198c-0.521,0.168-0.829,0.326-0.921,0.476c-0.092,0.151-0.147,0.478-0.165,0.981l0.23,35.358
		c-0.012,0.549,0.05,0.893,0.184,1.031c0.134,0.141,0.453,0.22,0.957,0.236l4.427-0.098l0.052,5.049L251.194,171.218z"/>
	<path fill="#FFFFFF" d="M284.243,166.405l0.016-5.059l6.688-1.452c0.439-0.108,0.714-0.263,0.821-0.46
		c0.108-0.198,0.17-0.549,0.188-1.053l-0.258-35.081l-6.824,0.994c-0.357,0.052-0.597,0.122-0.721,0.208s-0.206,0.315-0.242,0.684
		l-1.074,5.76l-7.11,1.376l-0.144-14.122l42.217-6.147l0.144,14.121l-7.006,0.68l-1.068-5.448c-0.097-0.349-0.206-0.55-0.326-0.601
		c-0.122-0.051-0.36-0.05-0.716,0.001l-6.959,1.013l0.258,35.082c-0.019,0.504,0.018,0.828,0.107,0.974
		c0.09,0.147,0.383,0.207,0.88,0.18l7.313-0.45l0.042,4.981L284.243,166.405z"/>
	<path fill="#FFFFFF" d="M350.345,156.779l0.024-4.991l4.08-1.072c0.477-0.16,0.761-0.326,0.85-0.499
		c0.088-0.173,0.142-0.511,0.159-1.015l-0.029-14.754l-17.998,2.621l0.088,14.678c-0.012,0.547,0.025,0.885,0.112,1.008
		s0.38,0.195,0.886,0.213l4.427-0.098l0.042,4.98l-20.741,3.021l-0.041-4.981l4.146-1.082c0.479-0.16,0.761-0.326,0.85-0.499
		s0.143-0.511,0.161-1.015l-0.202-35.635c0.018-0.503-0.043-0.835-0.18-0.998c-0.139-0.162-0.455-0.23-0.952-0.203l-4.083,0.116
		l-0.061-5.115l20.74-3.021l0.061,5.115l-4.404,1.188c-0.479,0.161-0.763,0.316-0.854,0.465c-0.092,0.151-0.146,0.478-0.164,0.98
		l0.15,13.233l17.93-2.611l-0.084-13.243c0.018-0.502-0.031-0.837-0.146-1.003c-0.116-0.165-0.422-0.235-0.919-0.208l-4.149,0.125
		l-0.062-5.115l20.741-3.021l0.061,5.115l-4.337,1.179c-0.479,0.162-0.763,0.316-0.854,0.465c-0.093,0.151-0.146,0.478-0.164,0.98
		l0.191,35.57c-0.012,0.547,0.037,0.883,0.146,1.003c0.108,0.12,0.414,0.19,0.918,0.208l4.427-0.098l-0.024,4.99L350.345,156.779z"
		/>
	<path fill="#FFFFFF" d="M375.835,153.067l-0.042-4.981l4.146-1.083c0.479-0.16,0.772-0.328,0.883-0.503
		c0.112-0.177,0.176-0.515,0.194-1.019l-0.212-35.703c0.018-0.503-0.042-0.836-0.18-0.999c-0.138-0.161-0.434-0.232-0.885-0.213
		l-4.217,0.136l-0.052-5.048l34.858-5.076l0.094,13.788l-7.073,0.688l-0.941-5.055c-0.13-0.574-0.528-0.811-1.198-0.714
		l-10.369,1.51l0.113,13.443l15.388-2.241l0.011,7.581l-15.389,2.241l0.152,13.711l11.842-1.725
		c0.356-0.052,0.607-0.123,0.755-0.212c0.146-0.089,0.238-0.318,0.276-0.688l1.017-6.161l7.024-1.023l0.134,14.055L375.835,153.067z
		"/>
	<path fill="#FFFFFF" d="M456.437,138.391c-0.942,0.73-2.047,1.426-3.316,2.089c-1.271,0.664-2.619,1.259-4.045,1.785
		c-1.426,0.525-2.91,0.98-4.447,1.365c-1.539,0.384-3.065,0.686-4.582,0.906c-3.479,0.508-6.553,0.442-9.219-0.195
		c-2.666-0.636-4.945-1.749-6.84-3.342c-1.896-1.591-3.408-3.614-4.539-6.069c-1.133-2.454-1.926-5.243-2.38-8.365
		c-0.624-4.282-0.604-8.292,0.058-12.034c0.662-3.74,1.977-7.073,3.941-10.002c1.965-2.927,4.592-5.371,7.883-7.331
		c3.29-1.959,7.232-3.273,11.826-3.942c1.339-0.195,2.723-0.305,4.154-0.333c1.432-0.026,2.814,0.024,4.154,0.147
		c1.338,0.124,2.6,0.339,3.783,0.645c1.183,0.306,2.223,0.713,3.116,1.221l0.17,13.366l-7.247,0.441l-1.107-6.193
		c-0.071-0.491-0.188-0.827-0.35-1.007c-0.164-0.182-0.408-0.293-0.733-0.337c-0.708-0.17-1.53-0.267-2.469-0.29
		c-0.937-0.022-2.03,0.057-3.278,0.239c-2.409,0.351-4.564,1.108-6.467,2.274c-1.903,1.166-3.441,2.722-4.615,4.668
		c-1.174,1.947-1.973,4.274-2.4,6.977c-0.426,2.705-0.388,5.773,0.112,9.208c0.669,4.594,2.122,7.935,4.362,10.022
		c2.239,2.089,5.167,2.869,8.779,2.343c1.338-0.195,2.601-0.435,3.789-0.723c1.188-0.285,2.18-0.669,2.976-1.151
		c0.248-0.172,0.437-0.358,0.567-0.56c0.13-0.201,0.213-0.486,0.251-0.856l1.015-6.639l7.024-1.023L456.437,138.391z"/>
	<path fill="#FFFFFF" d="M253.251,230.611l-0.037-6.349l8.969-10.667c1.829-2.134,3.356-3.927,4.579-5.382
		c1.224-1.452,2.198-2.732,2.926-3.841c0.727-1.107,1.218-2.113,1.474-3.017c0.255-0.901,0.312-1.844,0.169-2.826
		c-0.149-1.025-0.596-1.814-1.336-2.367c-0.741-0.551-1.869-0.717-3.386-0.496c-1.873,0.271-3.164,0.869-3.872,1.793
		c-0.709,0.923-1.066,2.614-1.071,5.076l-9.159,0.444c-0.033-2.729,0.366-4.995,1.196-6.802c0.83-1.805,1.917-3.252,3.263-4.336
		s2.889-1.899,4.631-2.45c1.741-0.549,3.526-0.958,5.355-1.224c2.275-0.332,4.241-0.355,5.899-0.074
		c1.658,0.283,3.055,0.797,4.188,1.543c1.134,0.746,2.021,1.676,2.661,2.79c0.64,1.113,1.062,2.361,1.263,3.743
		c0.26,1.785,0.203,3.434-0.168,4.943c-0.372,1.514-0.971,2.957-1.796,4.328c-0.825,1.373-1.82,2.748-2.986,4.123
		c-1.166,1.379-2.414,2.824-3.741,4.338l-7.32,8.377l9.768-1.424c0.313-0.045,0.531-0.11,0.654-0.196
		c0.124-0.087,0.205-0.313,0.242-0.685l0.894-5.596l6.958-1.014l0.092,12.832L253.251,230.611z"/>
	<path fill="#FFFFFF" d="M321.754,200.89c0.054,3.182-0.196,6.088-0.745,8.718c-0.552,2.632-1.493,4.932-2.822,6.901
		c-1.33,1.97-3.1,3.584-5.308,4.838c-2.208,1.255-4.941,2.121-8.196,2.595c-2.722,0.396-5.07,0.373-7.047-0.067
		c-1.978-0.441-3.641-1.223-4.988-2.348c-1.349-1.125-2.423-2.563-3.225-4.313c-0.801-1.751-1.361-3.72-1.68-5.905
		c-0.272-1.873-0.421-3.832-0.446-5.878c-0.072-2.997,0.194-5.778,0.8-8.349c0.604-2.57,1.596-4.834,2.974-6.788
		s3.179-3.583,5.404-4.886c2.224-1.304,4.942-2.189,8.153-2.656c2.677-0.391,5.004-0.354,6.985,0.109
		c1.979,0.463,3.634,1.26,4.959,2.387c1.325,1.129,2.376,2.557,3.152,4.289c0.775,1.732,1.319,3.668,1.632,5.81
		C321.616,197.13,321.749,198.978,321.754,200.89z M304.653,216.703c2.408-0.351,4.141-1.595,5.196-3.729
		c1.055-2.136,1.528-5.608,1.42-10.422c-0.035-1.178-0.067-2.255-0.095-3.229c-0.028-0.977-0.098-1.842-0.208-2.602
		c-0.357-2.453-1.024-4.224-2.003-5.311c-0.979-1.088-2.404-1.495-4.277-1.223c-2.454,0.357-4.223,1.584-5.307,3.676
		c-1.084,2.096-1.599,5.529-1.54,10.303c0.063,2.314,0.21,4.252,0.437,5.813c0.357,2.453,1.03,4.258,2.018,5.41
		C301.282,216.545,302.735,216.983,304.653,216.703z"/>
	<path fill="#FFFFFF" d="M326.375,219.962l-0.061-5.115l5.628-1.23c0.438-0.107,0.701-0.26,0.787-0.455
		c0.086-0.193,0.138-0.543,0.155-1.047l-0.152-24.506c0.023-0.777-0.269-1.214-0.874-1.309l-5.795-0.385l0.052-5.27l16.459-2.396
		l0.212,32.424c-0.012,0.547,0.051,0.891,0.186,1.031c0.133,0.141,0.449,0.197,0.946,0.169l5.286-0.292l-0.014,5.059
		L326.375,219.962z"/>
	<path fill="#FFFFFF" d="M378.563,178.132c-1.456-0.926-2.827-1.501-4.111-1.723c-1.286-0.225-2.508-0.251-3.668-0.082
		c-1.427,0.207-2.684,0.723-3.771,1.54c-1.088,0.819-1.986,1.839-2.697,3.058c-0.711,1.221-1.251,2.597-1.619,4.131
		c-0.369,1.533-0.548,3.12-0.538,4.758c1.151-0.851,2.511-1.686,4.077-2.506c1.565-0.82,3.396-1.383,5.493-1.689
		c1.561-0.227,3.044-0.215,4.446,0.036c1.403,0.251,2.648,0.753,3.738,1.505c1.089,0.754,2.013,1.791,2.776,3.114
		c0.761,1.324,1.279,2.923,1.552,4.796c0.416,2.855,0.332,5.407-0.252,7.654c-0.584,2.249-1.541,4.188-2.876,5.816
		c-1.334,1.63-3.011,2.945-5.028,3.943c-2.019,1-4.276,1.683-6.773,2.047c-2.677,0.389-4.982,0.27-6.919-0.359
		s-3.571-1.609-4.903-2.941c-1.333-1.332-2.391-2.967-3.173-4.902c-0.784-1.935-1.334-3.994-1.652-6.18
		c-0.429-2.945-0.539-6.117-0.327-9.52c0.211-3.4,0.938-6.614,2.183-9.643c1.244-3.027,3.104-5.656,5.581-7.885
		c2.478-2.229,5.767-3.641,9.87-4.238c2.409-0.352,4.706-0.299,6.89,0.158c2.185,0.457,4.171,1.352,5.96,2.685L378.563,178.132z
		 M362.465,196.601c0.046,0.633,0.099,1.146,0.157,1.549c0.059,0.4,0.133,0.914,0.224,1.539c0.149,1.025,0.362,2.021,0.64,2.982
		c0.276,0.961,0.658,1.793,1.149,2.496c0.488,0.703,1.089,1.232,1.802,1.582c0.711,0.354,1.603,0.451,2.673,0.295
		c1.293-0.189,2.3-0.631,3.017-1.328c0.72-0.696,1.26-1.516,1.624-2.457c0.365-0.941,0.563-1.926,0.596-2.957
		c0.031-1.028-0.014-1.967-0.137-2.814c-0.247-1.695-0.815-2.854-1.702-3.477c-0.889-0.622-2.024-0.832-3.406-0.631
		c-1.383,0.201-2.631,0.623-3.745,1.264C364.242,195.282,363.278,195.936,362.465,196.601z"/>
</g>
</svg>
