<?xml version="1.0" encoding="utf-8"?>
<!-- Generator: Adobe Illustrator 16.0.0, SVG Export Plug-In . SVG Version: 6.00 Build 0)  -->
<!DOCTYPE svg PUBLIC "-//W3C//DTD SVG 1.1//EN" "http://www.w3.org/Graphics/SVG/1.1/DTD/svg11.dtd">
<svg version="1.1" id="Capa_1" xmlns="http://www.w3.org/2000/svg" xmlns:xlink="http://www.w3.org/1999/xlink" x="0px" y="0px"
	 width="48.832px" height="48.832px" viewBox="0 0 48.832 48.832" enable-background="new 0 0 48.832 48.832" xml:space="preserve">
<g>
	<g id="Layer_20_51_">
		<g>
			<polygon points="15.42,32.814 22.23,32.814 22.23,34.385 15.42,34.385 15.42,35.68 36.838,35.68 36.838,34.385 28.898,34.385 
				28.898,32.814 37.729,32.814 37.729,29.227 15.42,29.227 			"/>
			<polygon points="9.489,11.231 41.957,11.231 41.957,24.209 44.738,24.209 44.738,8.449 6.707,8.449 6.707,17.14 9.489,17.14 			
				"/>
			<path d="M0,39.799h14.523V18.013H0V39.799z M7.568,38.705c-0.386,0-0.7-0.313-0.7-0.699c0-0.386,0.314-0.699,0.7-0.699
				c0.387,0,0.699,0.313,0.699,0.699S7.955,38.705,7.568,38.705z M2.1,20.113h10.325l-0.001,16.073H2.1V20.113z"/>
			<path d="M38.715,25.046v15.337h10.117V25.046H38.715z M43.979,25.68c0.121,0,0.221,0.102,0.221,0.221
				c0,0.121-0.1,0.223-0.221,0.223c-0.123,0-0.223-0.102-0.223-0.223S43.855,25.68,43.979,25.68z M42.665,26.416h2.623v0.212h-2.623
				V26.416z M43.891,39.721c-0.291,0-0.523-0.236-0.523-0.525s0.232-0.523,0.523-0.523c0.289,0,0.525,0.234,0.525,0.523
				S44.18,39.721,43.891,39.721z M47.369,37.915c-2.368,0.013-6.016,0.022-7.189,0.012V27.382l7.189-0.001V37.915z"/>
		</g>
	</g>
</g>
</svg>
