<?xml version="1.0" encoding="UTF-8" standalone="no"?>
<svg
   xmlns:dc="http://purl.org/dc/elements/1.1/"
   xmlns:cc="http://creativecommons.org/ns#"
   xmlns:rdf="http://www.w3.org/1999/02/22-rdf-syntax-ns#"
   xmlns:svg="http://www.w3.org/2000/svg"
   xmlns="http://www.w3.org/2000/svg"
   xmlns:sodipodi="http://sodipodi.sourceforge.net/DTD/sodipodi-0.dtd"
   xmlns:inkscape="http://www.inkscape.org/namespaces/inkscape"
   width="121.805"
   height="116.525"
   version="1.1"
   id="svg6"
   sodipodi:docname="div--black.svg"
   inkscape:version="0.92.4 (5da689c313, 2019-01-14)">
  <metadata
     id="metadata12">
    <rdf:RDF>
      <cc:Work
         rdf:about="">
        <dc:format>image/svg+xml</dc:format>
        <dc:type
           rdf:resource="http://purl.org/dc/dcmitype/StillImage" />
        <dc:title></dc:title>
      </cc:Work>
    </rdf:RDF>
  </metadata>
  <defs
     id="defs10" />
  <sodipodi:namedview
     pagecolor="#ffffff"
     bordercolor="#666666"
     borderopacity="1"
     objecttolerance="10"
     gridtolerance="10"
     guidetolerance="10"
     inkscape:pageopacity="0"
     inkscape:pageshadow="2"
     inkscape:window-width="1920"
     inkscape:window-height="1027"
     id="namedview8"
     showgrid="false"
     inkscape:zoom="2.0253164"
     inkscape:cx="60.9025"
     inkscape:cy="58.262501"
     inkscape:window-x="-8"
     inkscape:window-y="-8"
     inkscape:window-maximized="1"
     inkscape:current-layer="svg6" />
  <g
     fill="#fff"
     id="g4"
     style="fill:#000000;fill-opacity:1">
    <path
       d="M7.309 69.023h107.188c4.036 0 7.308-3.271 7.308-7.309 0-4.037-3.271-7.309-7.308-7.309H7.309C3.272 54.406 0 57.678 0 61.714c0 4.037 3.272 7.309 7.309 7.309zM60.702 36.136c9.963 0 18.067-8.104 18.067-18.068C78.769 8.105 70.665 0 60.702 0 50.74 0 42.633 8.105 42.633 18.068c-.001 9.963 8.105 18.068 18.069 18.068zM78.768 98.458c0-9.963-8.104-18.067-18.068-18.067-9.961 0-18.068 8.104-18.068 18.067 0 9.961 8.104 18.067 18.068 18.067 9.963 0 18.068-8.102 18.068-18.067z"
       id="path2"
       style="fill:#000000;fill-opacity:1" />
  </g>
</svg>
