<svg xmlns="http://www.w3.org/2000/svg" width="121.805" height="116.525">
  <g fill="#fff">
    <path d="M7.309 69.023h107.188c4.036 0 7.308-3.271 7.308-7.309 0-4.037-3.271-7.309-7.308-7.309H7.309C3.272 54.406 0 57.678 0 61.714c0 4.037 3.272 7.309 7.309 7.309zM60.702 36.136c9.963 0 18.067-8.104 18.067-18.068C78.769 8.105 70.665 0 60.702 0 50.74 0 42.633 8.105 42.633 18.068c-.001 9.963 8.105 18.068 18.069 18.068zM78.768 98.458c0-9.963-8.104-18.067-18.068-18.067-9.961 0-18.068 8.104-18.068 18.067 0 9.961 8.104 18.067 18.068 18.067 9.963 0 18.068-8.102 18.068-18.067z"/>
  </g>
</svg>