<?xml version="1.0" encoding="utf-8"?>
<svg xmlns="http://www.w3.org/2000/svg"
	xmlns:xlink="http://www.w3.org/1999/xlink"
	width="53px" height="74px" viewBox="0 0 53 74">
<path fillRule="evenodd" d="M 49.9 30.09C 49.08 30.82 48.14 31.64 47.94 32.25 47.73 32.92 48 34.18 48.24 35.29 48.64 37.14 49.1 39.25 47.94 40.84 46.77 42.44 44.61 42.66 42.71 42.84 42.71 42.84 50.42 67.62 50.42 67.62 50.59 68.17 50.42 68.77 49.99 69.16 49.56 69.55 48.94 69.64 48.41 69.41 48.41 69.41 40.43 65.93 40.43 65.93 40.43 65.93 35.83 73.3 35.83 73.3 35.55 73.74 35.08 74 34.57 74 34.51 74 34.44 74 34.38 73.99 33.8 73.92 33.32 73.51 33.15 72.96 33.15 72.96 26.5 51.59 26.5 51.59 26.5 51.59 19.85 72.96 19.85 72.96 19.68 73.51 19.2 73.92 18.62 73.99 18.56 74 18.49 74 18.43 74 17.92 74 17.44 73.74 17.17 73.3 17.17 73.3 12.57 65.93 12.57 65.93 12.57 65.93 4.59 69.41 4.59 69.41 4.06 69.64 3.44 69.55 3.01 69.16 2.57 68.77 2.41 68.17 2.58 67.62 2.58 67.62 10.29 42.84 10.29 42.84 8.39 42.66 6.23 42.44 5.06 40.84 3.9 39.25 4.36 37.14 4.76 35.29 5 34.18 5.27 32.92 5.06 32.25 4.86 31.64 3.92 30.82 3.1 30.09 1.65 28.8-0 27.35-0 25.3-0 23.26 1.65 21.81 3.1 20.52 3.92 19.79 4.86 18.97 5.06 18.36 5.27 17.69 5 16.43 4.76 15.32 4.36 13.47 3.9 11.36 5.06 9.77 6.23 8.17 8.39 7.95 10.3 7.76 11.42 7.65 12.69 7.53 13.25 7.12 13.79 6.73 14.3 5.57 14.75 4.55 15.52 2.79 16.39 0.79 18.31 0.17 18.66 0.06 19.04 0 19.43 0 20.89 0 22.28 0.81 23.63 1.59 24.63 2.17 25.76 2.83 26.5 2.83 27.24 2.83 28.37 2.17 29.37 1.59 30.72 0.81 32.11 0 33.57 0 33.96 0 34.34 0.06 34.69 0.17 36.61 0.79 37.48 2.79 38.25 4.55 38.7 5.57 39.21 6.73 39.75 7.12 40.31 7.53 41.58 7.65 42.7 7.76 44.61 7.95 46.77 8.17 47.94 9.77 49.1 11.36 48.64 13.47 48.24 15.32 48 16.43 47.73 17.69 47.94 18.36 48.14 18.97 49.08 19.8 49.9 20.52 51.35 21.81 53 23.26 53 25.3 53 27.35 51.35 28.8 49.9 30.09ZM 35.02 68.99C 35.02 68.99 38.59 63.28 38.59 63.28 38.97 62.65 39.77 62.41 40.44 62.7 40.44 62.7 46.62 65.4 46.62 65.4 46.62 65.4 39.79 43.46 39.79 43.46 39.78 43.47 39.76 43.48 39.75 43.49 39.21 43.88 38.7 45.04 38.25 46.06 37.48 47.82 36.61 49.82 34.69 50.44 34.34 50.55 33.96 50.61 33.57 50.61 32.11 50.61 30.72 49.8 29.37 49.02 29.14 48.89 28.91 48.75 28.68 48.62 28.68 48.62 35.02 68.99 35.02 68.99ZM 6.38 65.4C 6.38 65.4 12.56 62.7 12.56 62.7 13.23 62.41 14.02 62.65 14.41 63.28 14.41 63.28 17.98 68.99 17.98 68.99 17.98 68.99 24.32 48.62 24.32 48.62 24.09 48.75 23.86 48.89 23.63 49.02 22.28 49.8 20.89 50.61 19.43 50.61 19.04 50.61 18.66 50.55 18.31 50.44 16.39 49.82 15.52 47.82 14.75 46.06 14.3 45.04 13.79 43.88 13.25 43.49 13.24 43.48 13.22 43.47 13.21 43.46 13.21 43.46 6.38 65.4 6.38 65.4ZM 47.93 22.74C 46.77 21.71 45.57 20.65 45.12 19.27 44.66 17.84 45 16.24 45.34 14.69 45.6 13.51 45.92 12.03 45.54 11.51 45.15 10.98 43.63 10.83 42.41 10.71 40.84 10.55 39.21 10.39 38 9.51 36.81 8.65 36.16 7.17 35.53 5.74 35.04 4.61 34.42 3.2 33.77 2.99 33.72 2.97 33.65 2.96 33.57 2.96 32.91 2.96 31.82 3.59 30.86 4.15 29.47 4.96 28.04 5.79 26.5 5.79 24.96 5.79 23.53 4.96 22.14 4.15 21.18 3.59 20.09 2.96 19.43 2.96 19.35 2.96 19.28 2.97 19.23 2.99 18.58 3.2 17.96 4.61 17.47 5.74 16.84 7.17 16.19 8.65 15 9.51 13.79 10.39 12.16 10.55 10.59 10.71 9.37 10.83 7.85 10.98 7.46 11.51 7.08 12.03 7.4 13.51 7.66 14.69 8 16.24 8.34 17.84 7.88 19.27 7.43 20.65 6.23 21.71 5.07 22.74 4.08 23.61 2.97 24.6 2.97 25.3 2.97 26.01 4.08 27 5.07 27.87 6.23 28.9 7.43 29.96 7.88 31.34 8.34 32.77 8 34.37 7.66 35.92 7.4 37.1 7.08 38.58 7.46 39.09 7.85 39.63 9.37 39.78 10.59 39.9 12.16 40.06 13.79 40.22 15 41.09 16.19 41.96 16.84 43.44 17.47 44.87 17.96 46 18.58 47.41 19.23 47.62 19.28 47.64 19.35 47.65 19.43 47.65 20.09 47.65 21.18 47.02 22.14 46.46 23.53 45.65 24.96 44.82 26.5 44.82 28.04 44.82 29.47 45.65 30.86 46.46 31.82 47.02 32.91 47.65 33.57 47.65 33.65 47.65 33.72 47.64 33.77 47.62 34.42 47.41 35.04 46 35.53 44.87 36.16 43.44 36.81 41.96 38 41.09 39.21 40.22 40.84 40.06 42.41 39.9 43.63 39.78 45.15 39.63 45.54 39.09 45.92 38.58 45.6 37.1 45.34 35.92 45 34.37 44.66 32.77 45.12 31.34 45.57 29.96 46.77 28.9 47.93 27.87 48.91 27 50.03 26.01 50.03 25.3 50.03 24.6 48.91 23.61 47.93 22.74ZM 26.5 42.08C 17.22 42.08 9.68 34.55 9.68 25.3 9.68 16.06 17.22 8.53 26.5 8.53 35.78 8.53 43.32 16.06 43.32 25.3 43.32 34.55 35.78 42.08 26.5 42.08ZM 26.5 11.49C 18.86 11.49 12.64 17.69 12.64 25.3 12.64 32.92 18.86 39.12 26.5 39.12 34.14 39.12 40.35 32.92 40.35 25.3 40.35 17.69 34.14 11.49 26.5 11.49ZM 26.5 16.61C 21.69 16.61 17.78 20.51 17.78 25.3 17.78 26.12 17.11 26.78 16.29 26.78 15.47 26.78 14.81 26.12 14.81 25.3 14.81 18.88 20.05 13.65 26.5 13.65 27.32 13.65 27.98 14.31 27.98 15.13 27.98 15.95 27.32 16.61 26.5 16.61Z" fill="rgb(255,255,255)"/></svg>