<?xml version="1.0" encoding="utf-8"?>
<svg xmlns="http://www.w3.org/2000/svg"
	xmlns:xlink="http://www.w3.org/1999/xlink"
	width="43px" height="72px" viewBox="0 0 43 72">
<path fillRule="evenodd" d="M 41.26 54.58C 40.82 56.54 40.61 58.31 40.61 59.98 40.61 59.98 40.61 66.3 40.61 66.3 40.61 70.51 34.18 72 28.67 72 25.71 72 22.94 71.57 20.86 70.8 17.44 69.53 16.72 67.65 16.72 66.3 16.72 66.3 16.72 62.76 16.72 62.76 16.72 59.4 15.43 56.17 13.09 53.64 10.81 51.17 9.56 47.97 9.56 44.6 9.56 41.69 11.61 39.26 14.33 38.7 14.33 38.7 14.33 19.29 14.33 19.29 14.33 16.63 16.48 14.47 19.11 14.47 21.75 14.47 23.89 16.63 23.89 19.29 23.89 19.29 23.89 27.17 23.89 27.17 24.59 26.76 25.41 26.52 26.28 26.52 28.36 26.52 30.13 27.87 30.79 29.75 31.55 29.23 32.46 28.93 33.44 28.93 36.08 28.93 38.22 31.09 38.22 33.75 40.86 33.75 43 35.92 43 38.58 43 43.95 42.41 49.33 41.26 54.58ZM 38.22 36.18C 38.22 36.18 38.22 38.58 38.22 38.58 38.22 38.58 35.83 38.58 35.83 38.58 35.83 38.58 35.83 33.75 35.83 33.75 35.83 32.42 34.76 31.34 33.44 31.34 32.13 31.34 31.06 32.42 31.06 33.75 31.06 33.75 31.06 36.16 31.06 36.16 31.06 36.16 28.67 36.16 28.67 36.16 28.67 36.16 28.67 33.75 28.67 33.75 28.67 33.75 28.67 33.75 28.67 33.75 28.67 33.75 28.67 31.34 28.67 31.34 28.67 30.01 27.59 28.93 26.28 28.93 24.96 28.93 23.89 30.01 23.89 31.34 23.89 31.34 23.89 36.16 23.89 36.16 23.89 36.16 21.5 36.16 21.5 36.16 21.5 36.16 21.5 31.34 21.5 31.34 21.5 31.34 21.5 31.34 21.5 31.34 21.5 31.34 21.5 19.29 21.5 19.29 21.5 17.96 20.43 16.88 19.11 16.88 17.79 16.88 16.72 17.96 16.72 19.29 16.72 19.29 16.72 45.81 16.72 45.81 16.72 45.81 14.33 45.81 14.33 45.81 14.33 45.81 14.33 41.19 14.33 41.19 12.94 41.69 11.94 43.03 11.94 44.6 11.94 47.36 12.97 49.98 14.83 51.99 17.59 54.97 19.11 58.79 19.11 62.76 19.11 62.76 19.11 66.3 19.11 66.3 19.11 68.11 23.4 69.59 28.67 69.59 33.94 69.59 38.22 68.11 38.22 66.3 38.22 66.3 38.22 59.98 38.22 59.98 38.22 58.13 38.45 56.19 38.92 54.05 40.04 48.98 40.61 43.77 40.61 38.58 40.61 37.25 39.46 36.21 38.22 36.18ZM 35.23 23.79C 35.63 22.33 35.83 20.82 35.83 19.29 35.83 9.98 28.33 2.41 19.11 2.41 9.89 2.41 2.39 9.98 2.39 19.29 2.39 24.08 4.42 28.67 7.96 31.86 7.96 31.86 6.37 33.66 6.37 33.66 2.32 30-0 24.76-0 19.29-0 8.65 8.57-0 19.11-0 29.65-0 38.22 8.65 38.22 19.29 38.22 21.04 37.99 22.76 37.53 24.43 37.53 24.43 35.23 23.79 35.23 23.79Z" fill="rgb(255,255,255)"/></svg>