<?xml version="1.0" encoding="UTF-8" standalone="no"?>
<svg
   xmlns:dc="http://purl.org/dc/elements/1.1/"
   xmlns:cc="http://creativecommons.org/ns#"
   xmlns:rdf="http://www.w3.org/1999/02/22-rdf-syntax-ns#"
   xmlns:svg="http://www.w3.org/2000/svg"
   xmlns="http://www.w3.org/2000/svg"
   xmlns:sodipodi="http://sodipodi.sourceforge.net/DTD/sodipodi-0.dtd"
   xmlns:inkscape="http://www.inkscape.org/namespaces/inkscape"
   width="166.159"
   height="284.936"
   version="1.1"
   id="svg4"
   sodipodi:docname="arrow-left.svg"
   inkscape:version="0.92.4 (5da689c313, 2019-01-14)">
  <metadata
     id="metadata10">
    <rdf:RDF>
      <cc:Work
         rdf:about="">
        <dc:format>image/svg+xml</dc:format>
        <dc:type
           rdf:resource="http://purl.org/dc/dcmitype/StillImage" />
        <dc:title></dc:title>
      </cc:Work>
    </rdf:RDF>
  </metadata>
  <defs
     id="defs8" />
  <sodipodi:namedview
     pagecolor="#ffffff"
     bordercolor="#666666"
     borderopacity="1"
     objecttolerance="10"
     gridtolerance="10"
     guidetolerance="10"
     inkscape:pageopacity="0"
     inkscape:pageshadow="2"
     inkscape:window-width="1920"
     inkscape:window-height="1027"
     id="namedview6"
     showgrid="false"
     inkscape:zoom="0.82825616"
     inkscape:cx="83.079498"
     inkscape:cy="142.468"
     inkscape:window-x="-8"
     inkscape:window-y="-8"
     inkscape:window-maximized="1"
     inkscape:current-layer="svg4" />
  <path
     d="M 2.847,135.9 135.896,2.857 C 137.8,0.955 139.991,0 142.464,0 c 2.474,0 4.664,0.955 6.567,2.857 l 14.273,14.276 c 1.906,1.903 2.855,4.089 2.855,6.567 0,2.478 -0.949,4.664 -2.855,6.567 L 51.1,142.471 163.304,254.677 c 1.906,1.903 2.855,4.093 2.855,6.564 0,2.477 -0.949,4.667 -2.855,6.57 l -14.274,14.271 c -1.903,1.905 -4.093,2.854 -6.567,2.854 -2.473,0 -4.663,-0.951 -6.567,-2.854 L 2.854,149.038 C 0.952,147.136 0,144.945 0,142.471 0,139.997 0.945,137.807 2.847,135.9 Z"
     id="path2"
     style="fill:#8cc63c;fill-opacity:1"
     inkscape:connector-curvature="0" />
</svg>
