<?xml version="1.0" standalone="no"?>
<!DOCTYPE svg PUBLIC "-//W3C//DTD SVG 20010904//EN"
 "http://www.w3.org/TR/2001/REC-SVG-20010904/DTD/svg10.dtd">
<svg version="1.0" xmlns="http://www.w3.org/2000/svg"
 width="164.000000pt" height="164.000000pt" viewBox="0 0 164.000000 164.000000"
 preserveAspectRatio="xMidYMid meet">
<metadata>
Created by potrace 1.11, written by Peter Selinger 2001-2013
</metadata>
<g transform="translate(0.000000,164.000000) scale(0.100000,-0.100000)"
fill="#000000" stroke="none">
<path d="M943 1625 c-36 -10 -61 -11 -85 -5 -49 15 -104 12 -118 -5 -14 -17
-149 -85 -168 -85 -7 0 -53 -21 -104 -47 -74 -39 -110 -67 -188 -143 -82 -81
-103 -109 -143 -190 -103 -206 -117 -408 -45 -624 27 -82 52 -130 109 -206
104 -141 238 -235 407 -287 74 -22 106 -26 217 -27 154 -1 218 13 350 78 105
52 129 69 211 152 73 74 164 204 125 180 -19 -12 -19 24 0 60 10 21 19 44 19
51 0 7 3 13 8 13 4 0 8 12 8 26 2 28 10 41 20 31 9 -8 -25 -117 -36 -117 -4 0
-7 -12 -7 -26 -1 -14 3 -22 7 -17 14 14 58 148 64 194 13 95 15 139 5 139 -6
0 -7 -4 -4 -10 3 -5 1 -10 -4 -10 -6 0 -11 12 -11 26 0 23 2 25 16 13 15 -12
16 -9 10 36 -12 91 -18 120 -33 170 -13 41 -18 46 -24 30 -4 -11 -8 -15 -8 -8
-1 6 -4 19 -8 29 -5 12 -3 15 6 9 10 -6 11 -2 6 16 -19 64 -119 204 -138 192
-5 -3 -7 -2 -4 3 8 13 -1 24 -53 66 -111 89 -283 150 -390 138 -27 -2 94 -52
134 -55 24 -1 45 -10 53 -21 20 -27 8 -29 -27 -4 -17 12 -33 20 -35 18 -2 -2
23 -24 56 -48 100 -72 168 -156 224 -275 46 -97 63 -163 71 -265 3 -36 7 -71
10 -78 2 -7 -1 -10 -6 -7 -6 3 -10 -4 -10 -17 0 -38 -29 -138 -55 -190 -13
-26 -22 -54 -19 -62 3 -7 -2 -19 -11 -26 -8 -7 -15 -9 -15 -5 0 4 -20 -14 -45
-41 -26 -28 -41 -51 -35 -54 7 -4 5 -11 -5 -20 -8 -7 -18 -10 -22 -6 -3 3 -1
6 5 6 7 0 12 5 12 10 0 17 -13 11 -50 -21 -65 -57 -177 -105 -272 -115 -32 -4
-58 -10 -58 -14 0 -8 50 -6 95 4 29 6 29 6 5 -5 -14 -6 -38 -18 -53 -26 -33
-17 -88 -10 -68 10 17 17 13 23 -14 23 -19 0 -22 -3 -13 -14 9 -11 6 -12 -15
-10 -14 2 -30 8 -34 13 -4 4 -3 5 4 1 6 -3 14 -2 18 4 4 6 -5 10 -20 10 -49 0
-144 30 -216 68 -147 76 -263 231 -303 402 -60 254 73 538 308 657 58 29 109
46 101 33 -11 -17 37 -32 79 -26 23 4 93 9 156 12 132 6 152 15 131 61 -12 27
-13 27 -27 8 -30 -40 -234 -18 -234 26 0 11 146 83 191 94 23 6 27 3 33 -21 7
-27 8 -27 26 -8 12 12 19 36 21 64 4 90 4 90 -88 65z m80 -47 c-2 -5 -11 -8
-19 -8 -8 0 -14 -5 -14 -11 0 -6 -7 -8 -16 -5 -8 3 -13 2 -10 -3 3 -5 -3 -11
-14 -14 -11 -3 -18 -1 -14 4 6 11 2 11 -20 3 -9 -3 -14 -10 -11 -14 3 -4 -2
-10 -10 -14 -8 -3 -15 0 -15 7 0 7 -5 4 -11 -5 -5 -10 -16 -15 -24 -12 -8 4
-15 1 -15 -4 0 -18 -106 -72 -141 -73 -28 0 -30 -2 -14 -8 11 -5 33 -7 48 -6
16 2 26 -1 24 -8 -1 -7 6 -11 17 -9 10 2 15 -1 12 -6 -7 -12 23 -15 147 -16
53 0 97 -1 97 -2 0 -1 -8 -8 -17 -15 -11 -10 -14 -10 -9 -1 4 6 2 12 -3 12 -6
0 -11 -4 -11 -9 0 -5 -51 -11 -112 -14 -62 -3 -126 -8 -143 -12 -25 -4 -27 -4
-10 5 17 9 14 10 -12 5 -18 -2 -33 0 -33 5 0 15 -33 50 -47 50 -11 0 -11 20 1
102 3 25 36 57 51 52 8 -3 28 8 46 25 33 32 62 43 39 16 -7 -8 -9 -15 -4 -15
5 0 2 -4 -6 -10 -11 -7 -9 -11 13 -19 36 -14 57 -14 37 -1 -8 5 -10 10 -4 10
19 0 24 28 8 45 -14 13 -13 15 5 15 11 0 26 -6 33 -13 7 -7 33 -14 57 -14 24
0 38 3 31 7 -7 5 2 10 24 14 20 4 41 4 46 1 6 -3 10 0 11 7 1 7 4 2 8 -12 5
-14 6 -28 4 -32z m-223 7 c0 -8 -2 -15 -4 -15 -2 0 -6 7 -10 15 -3 8 -1 15 4
15 6 0 10 -7 10 -15z m220 -52 c0 -5 -4 -14 -9 -21 -6 -10 -10 -9 -14 7 -3 14
0 21 9 21 8 0 14 -3 14 -7z m-414 -38 c0 -19 -3 -30 -7 -24 -5 8 -8 8 -13 0
-12 -19 -26 -12 -26 14 0 20 21 44 41 45 3 0 5 -16 5 -35z m-68 -46 c-23 -15
-38 -10 -38 14 0 15 8 28 23 34 19 9 22 7 25 -15 2 -14 -2 -29 -10 -33z m-62
-31 c-9 -5 -14 -13 -11 -18 3 -5 -8 -18 -25 -30 -16 -12 -30 -17 -30 -11 0 6
12 17 26 24 17 9 23 17 15 21 -20 12 -13 52 12 63 19 9 22 7 25 -15 2 -16 -3
-29 -12 -34z m609 21 c16 -16 -38 -10 -60 7 -19 14 -18 15 15 9 19 -3 39 -10
45 -16z m-655 -23 c0 -31 -28 -56 -41 -35 -13 21 -11 37 9 48 26 16 32 13 32
-13z m132 9 c1 -17 -56 -45 -71 -35 -11 6 -7 13 20 29 35 21 50 23 51 6z m608
-6 c12 -7 11 -8 -6 -9 -11 0 -29 7 -40 16 -18 14 -18 15 6 8 14 -3 32 -10 40
-15z m-570 -10 c0 -5 -4 -9 -10 -9 -5 0 -10 7 -10 16 0 8 5 12 10 9 6 -3 10
-10 10 -16z m605 -9 c-6 -10 5 -13 35 -11 10 0 11 -1 3 -5 -10 -4 -10 -11 -2
-26 12 -22 6 -22 -46 -3 -18 7 -18 6 3 -14 31 -31 27 -37 -6 -9 -16 13 -25 24
-21 26 5 2 4 12 -1 22 -8 15 -6 19 13 23 12 2 23 5 25 6 2 0 0 -3 -3 -9z
m-830 -21 c7 -21 -21 -53 -37 -43 -12 8 -9 39 4 52 17 17 26 15 33 -9z m227 7
c3 2 11 -2 18 -11 10 -12 10 -15 -3 -15 -9 0 -33 -10 -53 -22 -21 -12 -34 -16
-30 -9 4 7 19 16 32 21 13 5 24 14 24 20 0 7 -9 5 -22 -4 -25 -18 -58 -21 -58
-6 0 17 53 39 71 29 9 -4 19 -6 21 -3z m-107 -15 c8 -13 -35 -51 -57 -51 -26
0 -22 15 8 39 29 23 40 26 49 12z m813 -34 c23 -21 29 -37 13 -37 -16 0 -71
51 -65 61 6 11 20 4 52 -24z m-984 1 c3 -15 -1 -30 -14 -42 -19 -19 -19 -19
-26 8 -4 16 -1 32 6 41 17 21 27 19 34 -7z m86 -5 c0 -4 -10 -17 -22 -30 -37
-40 -68 -22 -31 19 15 17 53 25 53 11z m110 0 c-1 -18 -43 -53 -64 -53 -13 0
-5 20 16 40 22 20 48 27 48 13z m758 -23 c29 -27 28 -40 -3 -38 -13 1 -22 4
-20 6 2 3 -2 11 -10 19 -35 34 -3 46 33 13z m-999 -19 c8 -14 6 -23 -9 -36
-11 -10 -22 -16 -24 -14 -14 15 -3 69 15 69 4 0 13 -8 18 -19z m161 8 c0 -15
-39 -49 -57 -49 -19 0 -16 10 9 37 23 24 48 31 48 12z m930 -20 c0 -6 -4 -7
-10 -4 -5 3 -10 11 -10 16 0 6 5 7 10 4 6 -3 10 -11 10 -16z m-1060 -24 c-13
-14 -28 -25 -34 -25 -5 0 3 13 19 30 16 16 31 28 33 25 3 -3 -5 -16 -18 -30z
m1040 21 c6 -8 18 -12 26 -9 8 3 14 0 14 -7 0 -6 -5 -8 -11 -4 -8 4 -9 0 -4
-15 4 -15 2 -21 -9 -21 -15 0 -56 45 -56 61 0 14 26 10 40 -5z m-990 -19 c0
-7 -10 -24 -22 -37 -13 -13 -21 -33 -20 -45 3 -20 -30 -65 -48 -65 -13 0 -3
40 15 60 9 10 15 21 14 26 -4 21 2 34 23 54 25 23 38 26 38 7z m85 3 c-3 -5
-16 -15 -28 -21 -22 -12 -22 -12 -3 10 19 21 43 30 31 11z m-210 -20 c5 -17
-9 -60 -20 -60 -2 0 -9 9 -15 20 -8 14 -7 25 2 40 16 25 25 25 33 0z m1082 -2
c23 -22 31 -48 14 -48 -9 0 -51 52 -51 64 0 12 14 6 37 -16z m-941 -43 c-16
-25 -46 -34 -46 -15 0 6 12 23 27 38 31 31 44 15 19 -23z m1070 23 c15 -19 16
-20 2 -9 -11 8 -18 9 -18 3 0 -6 5 -14 10 -17 11 -7 14 -45 3 -45 -11 0 -53
52 -53 66 0 7 8 15 18 17 9 3 17 5 18 6 0 0 9 -9 20 -21z m-1163 -20 c-3 -13
-13 -31 -22 -41 -9 -11 -14 -30 -13 -42 4 -30 -14 -65 -34 -65 -18 0 -11 36
11 59 10 10 11 18 3 31 -9 14 -6 24 11 49 27 37 52 42 44 9z m1107 -10 c20
-22 27 -58 12 -58 -13 0 -39 32 -46 58 -9 28 7 29 34 0z m-1192 -14 c1 -10 -2
-26 -8 -34 -15 -23 -34 3 -26 35 8 29 30 29 34 -1z m1293 -16 c11 -21 11 -22
-4 -9 -21 17 -21 9 -1 -30 8 -17 13 -33 10 -36 -9 -10 -37 58 -31 77 8 25 12
25 26 -2z m-126 -18 c22 -42 18 -51 -5 -12 -20 33 -24 42 -15 42 2 0 11 -13
20 -30z m-1041 -15 c-9 -14 -18 -25 -20 -25 -2 0 2 11 8 25 6 14 15 25 20 25
5 0 1 -11 -8 -25z m-160 -1 c8 -20 -2 -54 -14 -54 -15 0 -22 20 -16 46 7 28
21 31 30 8z m31 -40 c-24 -36 -28 -24 -8 22 12 28 18 34 21 21 2 -10 -4 -29
-13 -43z m1259 40 c20 -20 22 -66 2 -58 -13 5 -36 46 -36 64 0 15 17 12 34 -6z
m75 -39 c0 -5 -6 -1 -14 9 -8 11 -15 24 -15 30 0 5 7 1 15 -10 8 -10 14 -23
14 -29z m-109 11 c7 -14 10 -36 6 -50 -3 -13 -2 -28 4 -31 5 -3 10 -18 10 -33
0 -31 -13 -20 -28 26 -8 22 -8 32 0 32 6 0 3 11 -6 25 -17 26 -21 55 -8 55 5
0 14 -11 22 -24z m-1135 -23 c-9 -38 -26 -58 -36 -42 -8 13 -2 36 14 57 17 22
29 13 22 -15z m-140 -19 c9 -15 11 -23 4 -19 -9 6 -11 2 -7 -13 5 -19 3 -20
-12 -12 -26 14 -30 23 -23 48 7 29 17 28 38 -4z m1373 -18 c17 -35 8 -67 -12
-45 -21 21 -32 83 -15 77 8 -2 20 -17 27 -32z m-35 -27 c3 -11 -1 -26 -9 -34
-8 -7 -10 -16 -5 -19 14 -9 19 -57 7 -69 -7 -6 -10 -23 -8 -39 2 -15 1 -36 -4
-45 -6 -14 -9 -8 -14 22 -3 22 -2 45 2 51 5 6 4 22 -1 35 -5 13 -10 18 -10 10
-1 -8 -3 -12 -6 -9 -3 2 2 19 11 36 11 23 12 36 5 51 -6 11 -11 30 -11 42 0
21 1 21 19 5 10 -10 21 -26 24 -37z m-1289 14 c-8 -33 -22 -53 -36 -50 -5 1
-11 -12 -13 -29 -1 -17 -8 -40 -14 -50 -22 -34 -5 49 21 106 25 54 53 70 42
23z m41 -22 c-4 -14 -12 -32 -18 -39 -18 -23 -27 18 -10 51 17 34 37 25 28
-12z m-112 -36 c-4 -21 -8 -22 -24 -12 -20 12 -23 25 -13 52 10 26 42 -9 37
-40z m128 14 c-9 -22 -10 -22 -10 -3 -1 11 2 24 6 27 12 12 14 0 4 -24z m1319
-12 c0 -18 -2 -19 -10 -7 -13 20 -13 43 0 35 6 -3 10 -16 10 -28z m-56 -3 c18
-18 21 -69 5 -80 -6 -3 -8 -17 -4 -31 7 -30 -3 -66 -16 -57 -7 4 -8 -7 -4 -28
7 -40 -9 -72 -25 -48 -14 22 -12 56 4 69 10 8 13 23 9 46 -4 26 -2 36 10 41
12 4 14 11 6 31 -9 25 -13 73 -5 73 3 0 12 -7 20 -16z m42 -78 c7 -73 0 -111
-16 -86 -13 20 -13 73 0 86 6 6 6 22 0 44 -12 44 -12 60 0 39 5 -9 13 -47 16
-83z m-1366 37 c0 -27 2 -64 6 -84 6 -39 -11 -63 -27 -38 -8 13 -6 29 9 68 3
8 1 12 -5 8 -25 -16 -25 49 -1 81 17 20 19 15 18 -35z m-82 -17 c-2 -12 -10
-21 -18 -21 -16 0 -25 28 -16 52 9 23 38 -4 34 -31z m124 32 c7 -19 -6 -61
-20 -66 -13 -4 -18 59 -5 71 10 11 20 8 25 -5z m1350 -33 c3 -14 1 -25 -3 -25
-5 0 -9 6 -9 14 0 8 -3 22 -7 32 -4 11 -3 15 4 11 6 -4 13 -18 15 -32z m-1498
-31 c10 -4 16 -18 16 -35 0 -27 -2 -29 -20 -19 -12 6 -20 21 -20 35 0 27 1 28
24 19z m68 -40 c-2 -20 3 -43 10 -51 19 -24 21 -66 3 -79 -13 -10 -14 -16 -4
-37 15 -34 5 -64 -16 -47 -16 13 -20 61 -7 74 9 10 10 96 0 90 -4 -3 -10 8
-14 23 -3 15 -7 33 -8 38 -3 11 26 36 34 29 2 -3 3 -21 2 -40z m1440 6 c3 -22
2 -27 -8 -19 -10 8 -12 24 -5 47 3 10 9 -3 13 -28z m-1375 -27 c-3 -10 -5 -4
-5 12 0 17 2 24 5 18 2 -7 2 -21 0 -30z m-119 -36 c3 -23 0 -28 -15 -25 -11 2
-19 14 -21 31 -3 23 0 28 15 25 11 -2 19 -14 21 -31z m1439 -40 c-2 -18 1 -37
9 -44 12 -12 5 -65 -11 -82 -13 -12 -22 23 -14 52 5 20 5 35 -1 41 -11 11 -13
56 -4 81 7 16 8 16 16 0 6 -9 8 -31 5 -48z m-1407 -9 c0 -21 -4 -38 -10 -38
-5 0 -10 24 -10 53 0 37 3 48 10 37 5 -8 10 -32 10 -52z m90 10 c0 -15 -4 -29
-9 -32 -5 -3 -7 -24 -4 -46 6 -46 -12 -56 -27 -15 -10 26 -4 55 11 55 5 0 6
13 3 30 -4 16 -3 37 0 47 6 15 8 15 16 3 6 -8 10 -27 10 -42z m1347 32 c-3
-10 1 -24 9 -31 16 -13 19 -59 4 -59 -5 0 -10 15 -11 33 0 27 -2 29 -9 12 -8
-18 -9 -17 -9 7 -1 28 8 58 16 58 3 0 3 -9 0 -20z m-1469 -62 c3 -22 0 -26
-17 -21 -14 4 -21 14 -21 30 0 35 34 27 38 -9z m1366 -13 c7 -19 -10 -65 -24
-65 -12 0 -12 6 -4 49 7 33 18 40 28 16z m46 -24 c0 -31 -24 -59 -34 -42 -6 9
1 56 11 74 9 15 23 -5 23 -32z m-1278 -1 c3 -16 1 -30 -4 -30 -4 0 -8 14 -8
30 0 17 2 30 4 30 2 0 6 -13 8 -30z m-122 -27 c0 -35 -34 -27 -38 9 -3 22 0
26 17 21 14 -4 21 -14 21 -30z m1475 -12 c-3 -12 -11 -21 -16 -21 -10 0 -12
21 -3 45 10 24 27 2 19 -24z m-1330 -53 c6 -21 4 -28 -8 -28 -17 0 -27 21 -27
58 0 23 2 24 14 12 8 -8 18 -27 21 -42z m1210 9 c-4 -14 -13 -31 -21 -38 -11
-9 -14 -6 -14 15 0 15 5 37 11 48 15 27 32 9 24 -25z m41 -11 c-4 -18 -13 -39
-21 -46 -13 -11 -15 -8 -15 17 0 28 27 79 37 69 3 -3 2 -21 -1 -40z m-1386 8
c13 -33 13 -33 -6 -30 -30 5 -47 56 -19 56 9 0 20 -12 25 -26z m84 9 c2 -10 7
-28 11 -40 3 -13 3 -23 -2 -23 -18 0 -31 17 -38 48 -5 25 -3 32 9 32 8 0 17
-8 20 -17z m-38 -29 c8 -18 9 -36 4 -44 -9 -15 -15 -4 -35 59 -11 35 16 22 31
-15z m1361 -9 c-6 -19 -12 -33 -15 -31 -7 7 9 66 18 66 4 0 3 -16 -3 -35z
m-107 -22 c-1 -22 -23 -53 -39 -53 -16 0 -14 16 5 45 19 29 34 32 34 8z
m-1276 -9 c9 -25 7 -34 -9 -34 -12 0 -35 28 -35 44 0 14 38 5 44 -10z m126
-45 c0 -10 -4 -19 -10 -19 -14 0 -42 59 -34 72 9 15 44 -27 44 -53z m17 31 c6
-16 10 -30 7 -30 -2 0 -10 14 -19 30 -9 17 -12 30 -7 30 4 0 13 -13 19 -30z
m1169 -2 c-7 -38 -39 -69 -44 -44 -4 19 25 76 40 76 7 0 8 -12 4 -32z m-1242
-10 c17 -24 21 -58 7 -58 -13 0 -29 22 -36 53 -9 33 8 36 29 5z m1286 -1 c0
-25 -42 -77 -47 -60 -6 16 24 83 36 83 6 0 11 -10 11 -23z m-1330 -26 c0 -5 3
-16 6 -25 11 -28 -32 -19 -44 9 -11 23 -10 25 13 25 14 0 25 -4 25 -9z m155
-32 c9 -17 15 -33 12 -35 -9 -10 -35 8 -46 32 -14 32 -14 34 4 34 8 0 22 -14
30 -31z m1075 13 c0 -10 -10 -29 -22 -42 -19 -21 -23 -22 -26 -8 -4 18 25 68
39 68 5 0 9 -8 9 -18z m-1120 -24 c11 -12 20 -30 20 -40 0 -16 -3 -17 -20 -8
-17 9 -40 47 -40 66 0 11 21 2 40 -18z m1160 3 c0 -20 -48 -77 -57 -67 -9 9
18 65 36 76 21 13 21 13 21 -9z m-1185 -48 c17 -36 17 -47 -1 -35 -13 10 -44
59 -44 71 0 21 29 -2 45 -36z m-50 16 c4 -11 4 -23 1 -26 -9 -9 -34 5 -46 26
-9 19 -8 21 14 21 16 0 27 -7 31 -21z m1287 7 c8 -12 -9 -46 -23 -46 -7 0 -9
10 -5 25 8 30 1 32 -14 4 -8 -15 -8 -24 0 -34 8 -10 8 -19 -2 -34 -23 -38 -39
-20 -18 20 8 13 7 19 0 19 -7 0 -4 12 7 30 17 29 40 35 55 16z m-161 -18 c-9
-25 -47 -53 -54 -41 -7 11 34 63 50 63 9 0 10 -7 4 -22z m-952 -29 c-7 -4 -9
-14 -6 -23 10 -26 -19 -19 -42 10 -12 15 -21 31 -21 35 0 15 30 10 36 -6 4 -8
10 -15 15 -15 6 0 4 10 -2 23 -12 22 -12 22 10 3 15 -14 18 -22 10 -27z m970
-25 c-12 -13 -26 -24 -31 -24 -17 0 -7 32 19 58 25 24 28 25 31 9 2 -11 -6
-30 -19 -43z m-1034 9 c25 -28 33 -53 15 -53 -15 0 -50 42 -50 62 0 24 5 23
35 -9z m-77 5 c17 -17 15 -28 -6 -28 -19 0 -42 18 -42 32 0 12 35 9 48 -4z
m1172 4 c0 -10 -31 -55 -44 -64 -35 -24 -34 8 1 44 26 28 43 35 43 20z m-982
-28 c30 -21 30 -46 0 -35 -28 10 -57 51 -36 51 7 0 24 -7 36 -16z m872 -1 c0
-12 -43 -53 -57 -53 -21 0 -15 26 10 43 23 17 47 22 47 10z m-1016 -24 c-2 -4
1 -11 8 -15 8 -5 6 -10 -8 -15 -12 -4 -26 -1 -36 9 -22 19 -14 32 17 30 13 -1
22 -5 19 -9z m114 -5 c24 -17 30 -44 9 -44 -16 0 -57 37 -57 50 0 15 23 12 48
-6z m1009 -26 c-7 -10 -18 -16 -24 -13 -7 2 -13 -2 -13 -9 0 -20 -37 -50 -42
-35 -6 17 75 100 84 87 3 -6 1 -20 -5 -30z m-855 -28 c8 0 23 -9 33 -20 18
-19 17 -20 -3 -20 -33 0 -53 11 -63 36 -4 13 -13 24 -19 24 -8 0 -8 -6 0 -20
9 -16 8 -20 -5 -20 -24 0 -52 17 -59 36 -5 14 -1 16 25 10 l32 -6 -19 22 c-12
14 -4 10 22 -10 23 -18 48 -32 56 -32z m778 53 c0 -10 -52 -63 -62 -63 -16 0
-7 32 15 51 22 18 47 25 47 12z m-120 -22 c-10 -20 -47 -37 -57 -27 -10 10 29
46 49 46 15 0 17 -3 8 -19z m-835 -22 c14 -17 24 -34 21 -36 -6 -7 -51 28 -65
50 -20 31 15 20 44 -14z m960 2 c-3 -6 -16 -16 -28 -22 -21 -11 -21 -10 2 15
23 25 40 29 26 7z m-1007 -3 c17 -17 15 -28 -6 -28 -19 0 -42 18 -42 32 0 12
35 9 48 -4z m912 -8 c-18 -33 -70 -54 -70 -27 0 14 47 46 68 47 10 0 10 -5 2
-20z m-124 -5 c-11 -8 -24 -15 -30 -15 -5 0 -1 7 10 15 10 8 24 14 29 14 6 0
1 -6 -9 -14z m-674 -7 c13 -7 28 -19 34 -27 8 -11 13 -11 18 -2 9 14 43 6 69
-17 11 -9 17 -11 17 -4 0 19 46 14 71 -8 l24 -19 -31 -1 c-16 0 -35 5 -41 11
-8 8 -17 8 -30 0 -15 -7 -27 -6 -49 8 -20 12 -37 15 -57 10 -18 -5 -25 -4 -20
4 4 7 0 8 -11 4 -9 -4 -14 -3 -11 2 3 5 1 12 -5 16 -10 6 -14 35 -5 35 3 0 15
-6 27 -12z m718 -7 c0 -14 -41 -41 -62 -41 -10 0 -18 4 -18 10 0 5 -13 2 -28
-7 -17 -10 -36 -14 -47 -9 -17 6 -17 8 4 22 12 9 34 14 49 13 15 -2 36 2 47 9
24 14 55 16 55 3z m-770 -31 c0 -19 -22 -21 -48 -4 -25 16 -25 18 -7 24 21 8
55 -5 55 -20z m880 21 c0 -13 -50 -51 -66 -51 -22 0 -16 17 12 39 28 22 54 28
54 12z m50 -5 c0 -24 -31 -49 -44 -36 -8 8 -4 16 14 30 30 24 30 24 30 6z
m-665 -6 c13 -5 14 -9 5 -9 -8 0 -24 4 -35 9 -13 5 -14 9 -5 9 8 0 24 -4 35
-9z m69 -20 c35 -13 33 -30 -3 -30 -29 0 -57 21 -44 33 9 9 17 9 47 -3z m456
1 c0 -14 -41 -41 -62 -41 -10 0 -18 5 -18 11 0 5 -10 3 -22 -5 -25 -18 -68
-21 -68 -6 0 16 38 31 72 28 18 -1 42 3 53 10 24 14 45 15 45 3z m-742 -24
c11 -8 11 -12 0 -19 -8 -5 -4 -7 12 -3 14 3 33 0 44 -8 19 -14 19 -15 -3 -22
-20 -6 -48 7 -111 53 -2 2 2 7 10 12 14 9 23 6 48 -13z m87 -5 c22 -14 34 -16
47 -8 13 7 26 6 52 -7 21 -10 36 -12 36 -6 0 15 73 6 78 -10 4 -11 -4 -13 -35
-9 -22 3 -47 2 -54 -3 -10 -6 -4 -9 19 -9 38 0 75 -17 67 -30 -8 -13 -57 -2
-88 21 -16 12 -37 19 -48 16 -10 -3 -17 0 -16 7 1 7 -10 10 -29 8 -23 -2 -40
4 -60 22 -35 30 -14 35 31 8z m471 7 c9 -15 -14 -29 -48 -29 -34 0 -37 17 -5
30 30 12 45 12 53 -1z m274 2 c0 -6 -10 -17 -22 -26 -26 -17 -37 -3 -18 20 14
17 40 20 40 6z m-392 -27 c26 -4 41 -11 39 -18 -5 -14 -83 -15 -80 -1 1 6 -17
10 -39 10 -26 0 -43 5 -46 14 -3 10 5 12 39 7 24 -4 63 -9 87 -12z m298 7 c-3
-5 -16 -11 -28 -14 -22 -6 -22 -5 -4 8 22 17 40 20 32 6z m34 -16 c0 -12 -28
-35 -44 -35 -14 0 -5 30 12 39 24 14 32 13 32 -4z m-202 -22 c-8 -7 -31 -14
-51 -15 -20 -1 -34 -5 -31 -10 8 -13 -45 -29 -73 -22 -25 7 -25 8 -7 21 10 8
29 13 40 11 12 -2 30 5 41 14 19 17 59 27 81 20 11 -4 11 -7 0 -19z m102 17
c0 -5 -9 -14 -19 -20 -26 -13 -74 -13 -66 1 14 22 85 39 85 19z m-554 -24 c11
-8 31 -16 44 -18 14 -2 24 -9 22 -16 -1 -6 2 -12 8 -12 6 0 10 4 10 9 0 4 11
6 25 3 32 -6 27 -28 -6 -25 -46 3 -94 20 -91 32 1 7 -6 9 -20 6 -27 -6 -53 8
-44 24 10 15 27 14 52 -3z m267 5 c15 -6 16 -9 5 -17 -25 -20 -96 -5 -83 17 7
11 52 11 78 0z m327 0 c0 -15 -30 -41 -46 -41 -11 0 -12 4 -4 19 13 26 50 41
50 22z m-67 -28 c-12 -32 -53 -46 -53 -19 0 12 10 18 57 35 1 1 -1 -7 -4 -16z
m-74 3 c-3 -3 -20 -8 -39 -11 -19 -3 -30 -2 -23 3 13 8 70 15 62 8z m9 -28
c-6 -17 -58 -30 -58 -15 0 9 -2 9 -8 1 -12 -18 -52 -24 -52 -8 0 15 43 30 59
20 5 -4 12 -2 16 4 9 14 48 13 43 -2z m-260 -10 c-3 -7 -19 -14 -36 -16 -25
-3 -31 0 -26 12 7 19 68 23 62 4z m62 -8 c0 -6 -7 -13 -15 -16 -20 -8 -48 3
-40 16 8 13 55 13 55 0z m68 -2 c-5 -15 -58 -24 -58 -10 0 15 12 22 38 22 14
0 22 -5 20 -12z"/>
<path d="M666 1518 c-13 -40 -12 -59 0 -69 10 -8 14 -8 14 0 0 6 -5 11 -12 11
-9 0 -9 3 0 12 8 8 15 8 27 -2 10 -8 15 -9 15 -1 0 6 -4 11 -10 11 -5 0 -7 7
-4 15 5 11 2 13 -12 8 -13 -5 -16 -3 -11 10 3 9 4 17 1 17 -2 0 -6 -6 -8 -12z"/>
<path d="M424 1155 c-10 -16 -16 -46 -16 -80 0 -54 -1 -54 -19 -32 -14 18 -18
19 -22 7 -3 -8 -8 -23 -11 -33 -3 -11 -2 -16 4 -12 6 3 10 13 10 21 0 28 20 4
52 -64 18 -37 53 -94 79 -128 34 -45 44 -66 37 -77 -12 -22 -34 -12 -87 37
-49 46 -79 104 -83 159 -1 20 -5 37 -10 37 -7 0 -4 -43 7 -82 6 -22 6 -22 -9
-4 -9 11 -16 25 -16 30 0 6 -5 4 -10 -4 -6 -8 -9 -48 -8 -89 2 -62 6 -80 30
-115 29 -45 100 -91 124 -82 8 3 13 2 10 -3 -3 -5 5 -12 18 -15 20 -5 24 -12
24 -36 -1 -39 -15 -38 -98 3 -78 39 -120 91 -128 162 -4 37 -2 46 8 40 8 -5
11 -3 9 4 -11 31 -24 5 -23 -42 1 -56 19 -93 64 -136 24 -23 21 -23 -25 -5
-23 9 -19 -27 8 -66 12 -19 42 -44 66 -56 31 -15 39 -23 27 -25 -16 -4 -16 -6
3 -28 11 -12 37 -29 58 -37 21 -7 30 -13 20 -14 -15 0 -16 -4 -7 -20 13 -25
61 -50 94 -50 21 0 24 4 20 25 -3 18 -1 23 10 19 8 -3 13 -11 10 -18 -7 -19
23 -39 51 -34 18 4 26 0 31 -14 8 -25 63 -78 81 -78 15 0 10 31 -14 90 -28 66
-40 125 -37 185 8 192 7 204 -20 248 -14 23 -41 60 -61 82 -77 85 -138 174
-181 263 -25 50 -47 92 -49 92 -3 0 -12 -11 -21 -25z m46 -45 c31 -79 138
-233 230 -333 44 -46 51 -79 48 -229 -2 -128 0 -149 20 -203 31 -82 36 -105
23 -105 -17 0 -68 77 -92 139 -14 37 -23 88 -27 153 -2 54 -7 96 -11 94 -3 -2
-7 7 -7 20 -2 27 -54 112 -86 140 -12 10 -18 13 -14 7 10 -19 1 -16 -15 4 -10
11 -10 14 -1 9 14 -8 15 -5 6 18 -3 9 -10 16 -16 16 -5 0 -6 -5 -2 -12 4 -7 3
-8 -4 -4 -6 4 -9 13 -6 20 3 8 0 17 -7 22 -8 5 -10 3 -4 -7 5 -8 4 -10 0 -6
-5 4 -10 13 -11 21 -3 22 -60 116 -67 110 -3 -3 -3 5 0 18 3 16 2 19 -5 10
-13 -19 -6 102 8 129 14 24 21 18 40 -31z m-100 -258 c15 -26 31 -46 37 -45 6
1 19 -7 29 -19 12 -14 14 -18 4 -13 -9 5 -8 0 4 -13 23 -26 45 -30 25 -4 -13
15 -12 16 3 3 10 -7 16 -17 13 -21 -3 -4 7 -16 22 -25 23 -16 25 -16 20 -1 -4
9 -2 16 4 16 7 0 8 -12 4 -31 -5 -23 -3 -34 12 -44 15 -12 16 -16 4 -27 -12
-11 -13 -10 -8 5 5 13 1 17 -14 17 -29 0 -89 29 -121 58 -15 14 -30 23 -34 20
-3 -3 12 -19 33 -34 54 -40 63 -50 25 -28 -42 24 -67 51 -67 72 0 10 -4 16
-10 15 -5 -1 -11 8 -12 20 -1 12 -5 49 -9 82 -7 66 -2 66 36 -3z m215 -99 c5
-10 9 -25 9 -33 1 -8 6 -15 13 -15 6 0 15 -4 20 -9 5 -5 3 -6 -4 -2 -17 9 -16
5 2 -30 8 -16 15 -37 15 -47 0 -10 5 -15 10 -12 6 3 10 1 10 -4 0 -6 -6 -11
-12 -11 -9 0 -8 -4 2 -11 11 -8 8 -9 -13 -4 -19 4 -26 2 -22 -5 10 -16 -1 -12
-16 7 -10 11 -10 14 -1 9 19 -11 14 9 -7 28 -11 10 -22 29 -25 42 -4 14 -10
23 -14 20 -4 -2 -6 11 -4 30 3 21 10 34 19 34 8 0 11 5 8 10 -4 6 -11 7 -17 4
-7 -4 -8 -2 -4 4 10 17 23 15 31 -5z m-8 -147 c-8 -20 16 -49 44 -52 13 -1 27
-3 32 -3 4 -1 7 -9 7 -18 0 -15 -2 -14 -16 3 -15 19 -15 12 1 -28 18 -46 -54
-1 -80 49 -9 17 -15 22 -15 11 0 -9 12 -31 28 -49 15 -18 21 -30 15 -25 -8 4
-13 1 -13 -8 0 -9 -4 -16 -9 -16 -5 0 -7 8 -4 19 3 12 -3 24 -18 35 -13 9 -18
16 -11 16 7 0 11 4 7 10 -8 13 5 61 16 54 5 -3 9 0 9 5 0 6 3 11 6 11 3 0 4
-6 1 -14z m-170 -19 c4 -5 0 -5 -10 -1 -9 3 -17 3 -17 0 0 -11 75 -37 92 -32
10 2 16 0 13 -4 -3 -5 11 -14 30 -20 19 -6 35 -13 35 -15 0 -2 3 -10 6 -19 5
-13 -2 -16 -42 -16 -78 1 -164 49 -177 100 -4 16 1 18 29 17 18 -2 36 -6 41
-10z m248 -117 c6 -1 12 -4 15 -7 3 -3 -8 -3 -23 1 -19 4 -26 3 -22 -4 3 -5
13 -10 21 -10 8 0 14 -6 14 -14 0 -8 -9 -13 -24 -12 -13 0 -24 3 -23 6 1 3 -4
15 -11 27 -11 20 -10 22 4 16 12 -5 15 -3 9 6 -6 10 -3 11 11 3 11 -6 24 -11
29 -12z m-170 -10 c-4 -6 7 -10 25 -10 18 0 29 4 25 10 -3 6 -1 10 4 10 6 0
11 -4 11 -9 0 -6 9 -8 20 -6 11 2 18 0 16 -4 -3 -4 1 -17 9 -27 18 -24 19 -40
1 -25 -10 9 -19 7 -37 -9 l-24 -19 23 -1 c13 0 21 4 17 9 -3 5 -1 13 5 16 6 4
9 1 8 -7 -2 -7 3 -12 10 -10 7 1 12 -8 12 -23 0 -32 -27 -33 -65 -3 -23 18
-25 22 -11 30 21 12 11 28 -18 28 -13 0 -36 10 -52 22 l-28 22 25 7 c13 4 25
7 27 8 2 1 0 -3 -3 -9z m175 -60 c-25 -6 -25 -6 -2 -12 14 -4 20 -11 16 -21
-5 -13 -9 -12 -30 6 -14 12 -20 23 -15 25 6 2 9 7 6 11 -2 5 8 6 23 3 l27 -6
-25 -6z m40 -50 c0 -5 -5 -10 -11 -10 -5 0 -7 5 -4 10 3 6 8 10 11 10 2 0 4
-4 4 -10z m-15 -28 c-3 -3 -11 0 -18 7 -9 10 -8 11 6 5 10 -3 15 -9 12 -12z"/>
<path d="M410 790 c0 -5 5 -10 11 -10 5 0 7 5 4 10 -3 6 -8 10 -11 10 -2 0 -4
-4 -4 -10z"/>
<path d="M1185 1107 c-43 -95 -75 -144 -172 -260 -100 -120 -104 -131 -101
-296 2 -131 1 -139 -31 -229 -18 -52 -30 -96 -27 -99 9 -9 63 30 80 58 12 21
25 29 45 29 34 0 62 27 42 39 -9 6 -7 10 7 13 16 4 20 1 17 -12 -6 -33 17 -40
62 -20 47 21 76 60 46 61 -10 0 0 7 22 15 22 8 48 24 58 36 17 20 17 23 2 28
-12 4 -5 11 25 24 22 9 51 32 65 50 28 37 34 82 10 72 -8 -3 -23 -9 -32 -13
-10 -4 -3 8 15 28 43 44 64 93 60 144 -3 38 -18 51 -27 24 -2 -7 1 -9 9 -4 24
15 5 -80 -26 -126 -21 -33 -46 -52 -94 -76 -82 -41 -97 -42 -98 -4 0 24 5 30
37 39 80 25 175 112 155 144 -4 6 -3 8 2 5 6 -3 10 25 9 70 0 79 -12 102 -33
61 -10 -19 -11 -20 -8 -3 15 69 17 85 9 85 -5 0 -10 -17 -11 -37 -4 -55 -34
-113 -83 -160 -51 -49 -100 -65 -91 -30 3 12 22 45 43 72 50 68 92 152 83 166
-4 7 -3 9 4 5 6 -3 13 3 17 14 7 23 25 27 25 6 0 -8 4 -18 10 -21 6 -4 7 1 4
12 -3 10 -8 25 -11 33 -3 12 -9 10 -25 -10 l-21 -25 5 28 c3 15 1 27 -3 27 -5
0 -9 -11 -9 -25 0 -13 -18 -58 -39 -99 -22 -41 -36 -77 -33 -81 4 -4 2 -5 -4
-3 -6 2 -32 -23 -58 -54 -47 -57 -56 -75 -33 -62 7 4 9 3 4 -2 -5 -5 -14 -9
-20 -9 -26 0 -59 -86 -66 -170 -3 -46 -3 -81 0 -79 4 2 9 -1 11 -8 3 -8 9 -8
24 0 16 9 16 11 3 12 -9 0 -20 7 -23 16 -3 8 -2 12 4 9 6 -3 10 0 10 7 0 8 14
22 30 31 17 10 30 23 30 28 0 6 -6 7 -12 3 -18 -11 -48 -12 -48 -2 0 5 -4 7
-8 4 -5 -3 -9 1 -9 9 0 8 5 11 10 8 6 -4 8 5 5 20 -3 15 -1 24 3 21 5 -3 9 -1
9 4 0 5 12 26 26 47 14 21 28 47 30 58 4 25 10 31 19 18 3 -6 1 -11 -5 -11 -8
0 -8 -6 0 -21 7 -11 9 -33 6 -47 -9 -35 -38 -92 -48 -92 -5 0 -8 -5 -8 -11 0
-8 4 -8 13 -2 21 16 51 9 54 -12 l3 -20 -9 20 c-9 20 -10 20 -10 -1 -1 -12
-13 -34 -28 -49 -16 -15 -28 -32 -28 -37 0 -5 -11 -16 -25 -23 -15 -9 -19 -14
-10 -15 9 0 26 7 39 16 23 16 23 16 10 -7 -7 -13 -13 -26 -12 -29 1 -3 -10 -6
-23 -6 -22 -2 -30 10 -25 39 0 4 -3 7 -8 7 -5 0 -12 -17 -16 -37 -11 -57 -60
-158 -86 -177 -13 -9 -25 -12 -27 -7 -2 6 9 43 24 83 26 68 28 82 26 216 -2
173 -1 176 103 294 57 64 120 159 158 236 32 66 43 80 53 71 8 -6 14 -25 14
-41 0 -16 4 -27 9 -24 12 8 2 48 -19 76 l-19 25 -36 -78z m141 -307 c-8 -24
-12 -48 -9 -53 4 -6 1 -7 -7 -2 -10 6 -12 4 -7 -7 3 -10 -4 -25 -19 -39 -13
-12 -24 -19 -24 -15 0 4 10 16 23 27 12 10 18 18 12 18 -5 0 -26 -14 -45 -31
-19 -17 -27 -28 -17 -24 11 3 16 2 12 -5 -4 -5 -16 -7 -27 -3 -14 4 -18 2 -14
-5 5 -7 1 -8 -10 -4 -11 4 -15 2 -11 -4 4 -6 -2 -8 -16 -6 -17 3 -26 -2 -34
-19 -7 -13 -12 -17 -12 -9 -1 9 -5 10 -14 5 -7 -5 -2 1 11 12 21 18 24 27 18
58 -4 22 -3 36 3 36 6 0 8 -7 4 -17 -5 -12 2 -10 28 8 55 38 79 61 73 70 -3 5
1 7 8 4 8 -3 26 18 48 57 l35 63 3 -36 c2 -20 -4 -55 -12 -79z m-45 37 c-10
-9 -11 -8 -5 6 3 10 9 15 12 12 3 -3 0 -11 -7 -18z m-111 9 c0 -2 -8 -10 -17
-17 -16 -13 -17 -12 -4 4 13 16 21 21 21 13z m-30 -40 c0 -2 -8 -10 -17 -17
-16 -13 -17 -12 -4 4 13 16 21 21 21 13z m90 -26 c0 -5 -10 -15 -22 -21 l-23
-12 20 21 c23 24 25 25 25 12z m-160 -64 c0 -2 -8 -10 -17 -17 -16 -13 -17
-12 -4 4 13 16 21 21 21 13z m262 -135 c-24 -59 -89 -96 -184 -103 -45 -4 -58
-2 -58 9 0 9 -5 11 -12 6 -7 -4 -2 7 12 23 14 17 31 29 38 26 9 -3 7 -9 -8
-19 -11 -8 -20 -21 -20 -30 0 -11 5 -9 19 8 10 13 47 33 82 44 35 12 65 27 65
33 1 7 2 13 3 15 0 2 16 3 35 4 29 1 33 -2 28 -16z m-309 -26 c4 -8 2 -17 -3
-20 -6 -4 -10 3 -10 14 0 25 6 27 13 6z m187 5 c-8 -5 -19 -10 -25 -10 -5 0
-3 5 5 10 8 5 20 10 25 10 6 0 3 -5 -5 -10z m-32 -97 c-10 -2 -26 -2 -35 0
-10 3 -2 5 17 5 19 0 27 -2 18 -5z m39 -21 c-15 -18 -52 -32 -102 -38 -22 -3
-46 -11 -55 -17 -12 -10 -13 -9 -4 3 5 8 17 26 26 40 14 23 22 25 81 25 54 0
64 -2 54 -13z m-181 -43 c-1 -20 -46 -49 -46 -30 0 4 10 13 23 20 l22 12 -22
-5 c-13 -2 -23 0 -23 4 0 5 10 11 23 13 12 2 23 5 23 6 1 0 1 -9 0 -20z m90
-25 l29 6 -28 -25 c-33 -30 -67 -33 -67 -7 0 25 21 46 31 31 4 -7 18 -9 35 -5z
m-126 -28 c0 -2 -9 -6 -20 -9 -11 -3 -18 -1 -14 4 5 9 34 13 34 5z"/>
<path d="M1337 463 c-4 -3 -7 -11 -7 -17 0 -6 5 -5 12 2 6 6 9 14 7 17 -3 3
-9 2 -12 -2z"/>
</g>
</svg>
