<?xml version="1.0" encoding="utf-8"?>
<!-- Generator: Adobe Illustrator 16.0.0, SVG Export Plug-In . SVG Version: 6.00 Build 0)  -->
<!DOCTYPE svg PUBLIC "-//W3C//DTD SVG 1.1//EN" "http://www.w3.org/Graphics/SVG/1.1/DTD/svg11.dtd">
<svg version="1.1" id="Layer_1" xmlns="http://www.w3.org/2000/svg" xmlns:xlink="http://www.w3.org/1999/xlink" x="0px" y="0px"
	 width="597.417px" height="214.867px" viewBox="0 0 597.417 214.867" enable-background="new 0 0 597.417 214.867"
	 xml:space="preserve">
<g>
	<path d="M269.675,12.723c0.287-1.72,1.576-2.866,3.437-2.866h0.287c2.006,0,3.582,1.576,3.582,3.582v31.078
		c0,2.004-1.576,3.58-3.582,3.58h-1.144c-2.006,0-3.582-1.576-3.582-3.58V29.048c0-9.739-4.583-13.605-11.026-13.605
		c-8.02,0-11.172,5.729-11.172,13.605v71.61c0,8.02,4.583,11.17,10.885,11.17c8.163,0,11.313-4.727,11.313-11.17V82.613
		c0-2.149,1.576-3.725,3.582-3.725h1.144c2.006,0,3.582,1.576,3.582,3.582v17.329c0,13.606-8.308,18.905-19.621,18.905
		c-13.749,0-19.191-7.878-19.191-18.905V27.331c0-13.605,7.589-18.905,18.045-18.905c7.305,0,11.172,3.007,12.746,7.303h0.287
		L269.675,12.723z"/>
	<path d="M330.817,110.254c2.004,0,3.58,1.574,3.58,3.58c0,2.004-1.576,3.437-3.724,3.437h-13.605c-2.149,0-3.582-1.576-3.582-3.58
		c0-2.006,1.576-3.437,3.582-3.437h2.721V82.326l1.289-22.343h-0.143l-19.622,55.138c-0.43,1.29-1.576,2.149-3.007,2.149h-7.019
		c-2.147,0-3.723-1.576-3.723-3.58c0-2.006,1.576-3.437,3.58-3.437h1.29V49.816h-2.864c-2.006,0-3.582-1.576-3.582-3.58
		c0-2.006,1.576-3.438,3.582-3.438h13.605c2.004,0,3.581,1.576,3.581,3.58c0,2.006-1.576,3.439-3.581,3.439h-2.579v29.501
		l-1.433,22.628h0.143l19.765-56.856c0.43-1.433,1.576-2.292,3.009-2.292h8.736c2.004,0,3.58,1.576,3.58,3.58
		c0,2.006-1.576,3.439-3.58,3.439h-2.865v60.438H330.817z"/>
	<path d="M379.496,110.254c2.006,0,3.579,1.574,3.579,3.58c0,2.004-1.431,3.437-3.437,3.437h-13.176
		c-2.006,0-3.437-1.576-3.437-3.58c0-2.006,1.574-3.437,3.58-3.437h2.147V49.816h-12.89v49.839
		c0.287,11.456-3.007,17.615-9.452,17.615h-3.866c-2.004,0-3.58-1.576-3.58-3.58c0-2.006,1.576-3.437,3.58-3.437h-0.287
		c5.013,0,5.442-1.862,5.442-11.745V49.816h-2.72c-2.006,0-3.582-1.576-3.582-3.58c0-2.006,1.576-3.438,3.582-3.438h35.23
		c1.72,0,2.863,1.576,2.863,3.58c0,2.006-1.573,3.439-3.579,3.439h-2.577v60.438H379.496z"/>
	<path d="M413.281,72.73c13.318,0,18.475,9.166,18.475,21.912c0,16.325-7.446,22.628-17.615,22.628h-21.482
		c-1.862,0-3.151-1.576-3.151-3.58c0-2.006,1.576-3.437,3.582-3.437h2.72V49.816h-2.006c-2.434,0-3.724-1.433-3.724-3.439
		c0-2.434,1.863-3.58,4.01-3.58h11.603c2.29,0,4.01,1.146,4.01,3.58c0,2.006-1.576,3.439-3.58,3.439h-2.149V72.73H413.281z
		 M412.708,110.254c7.878,0,10.885-6.589,10.885-15.611c0-11.029-4.583-15.325-10.885-15.325h-8.736v30.937H412.708z"/>
	<path d="M479.867,110.254c2.004,0,3.58,1.574,3.58,3.58c0,2.004-1.576,3.437-3.007,3.437h-14.035c-2.006,0-3.582-1.576-3.582-3.58
		c0-2.006,1.576-3.437,3.582-3.437h2.577V82.756H449.79v27.498h2.58c2.004,0,3.579,1.574,3.579,3.58
		c0,2.004-1.575,3.437-3.007,3.437h-14.035c-2.006,0-3.582-1.576-3.582-3.58c0-2.006,1.576-3.437,3.582-3.437h2.721V49.816h-2.721
		c-2.006,0-3.582-1.576-3.582-3.58c0-2.006,1.576-3.438,3.582-3.438h14.035c1.718,0,3.007,1.576,3.007,3.58
		c0,2.006-1.575,3.439-3.579,3.439h-2.58v26.781h19.192V49.816h-2.721c-2.006,0-3.582-1.576-3.582-3.58
		c0-2.006,1.576-3.438,3.009-3.438h14.035c2.004,0,3.58,1.576,3.58,3.58c0,2.006-1.576,3.439-3.58,3.439h-2.579v60.438H479.867z"/>
	<path d="M513.364,72.73c13.318,0,18.475,9.166,18.475,21.912c0,16.325-7.446,22.628-17.615,22.628h-21.482
		c-1.862,0-3.151-1.576-3.151-3.58c0-2.006,1.575-3.437,3.582-3.437h2.72V49.816h-2.006c-2.434,0-3.724-1.433-3.724-3.439
		c0-2.434,1.863-3.58,4.011-3.58h11.602c2.29,0,4.01,1.146,4.01,3.58c0,2.006-1.576,3.439-3.58,3.439h-2.149V72.73H513.364z
		 M512.791,110.254c7.878,0,10.885-6.589,10.885-15.611c0-11.029-4.583-15.325-10.885-15.325h-8.736v30.937H512.791z
		 M552.606,110.254c2.004,0,3.58,1.574,3.58,3.58c0,2.004-1.576,3.437-3.58,3.437h-13.893c-1.862,0-3.295-1.576-3.295-3.58
		c0-2.006,1.576-3.437,3.582-3.437h2.721V49.816H539c-2.006,0-3.582-1.576-3.582-3.58c0-2.006,1.576-3.438,3.582-3.438h13.605
		c2.004,0,3.58,1.576,3.58,3.58c0,2.006-1.576,3.439-3.58,3.439h-2.723v60.438H552.606z"/>
	<path d="M571.353,99.512c0,8.307,3.866,11.456,9.166,11.456c6.302,0,8.735-4.869,8.735-11.456v-3.437
		c0-2.006,1.576-3.582,3.58-3.582h1.003c2.006,0,3.58,1.576,3.58,3.582v2.72c0,13.749-7.16,19.192-17.186,19.192
		c-12.315,0-17.042-8.021-17.042-19.192v-38.24c0-13.749,7.16-19.189,17.042-19.189c12.316,0,17.186,8.02,17.186,19.046v19.191
		c0,2.006-1.574,3.58-3.58,3.58h-22.484V99.512z M589.254,76.024V59.841c0-8.308-3.723-11.458-9.022-11.458
		c-6.443,0-8.879,4.726-8.879,11.315v16.326H589.254z"/>
	<path d="M275.978,155.226c0,8.736-4.153,13.319-9.739,14.896c7.876,0,11.028,6.014,11.028,14.465v6.873
		c0,14.036-7.735,19.479-18.475,19.479c-13.178,0-18.905-8.02-18.905-19.048v-3.438c0-2.006,1.574-3.579,3.58-3.579h1.003
		c2.004,0,3.58,1.573,3.58,3.579v3.438c0,8.162,4.296,11.314,10.455,11.314c7.59,0,10.597-4.869,10.597-11.458v-6.303
		c0-8.735-4.153-12.173-10.023-12.173c-1.433,0-2.579-1.576-2.579-3.58c0-1.862,1.576-3.149,3.58-3.149h-0.573
		c6.016,0,8.452-4.583,8.452-11.028v-2.437c0-7.876-4.012-11.026-9.596-11.026c-7.019,0-9.739,4.87-9.739,11.456
		c0,1.863-1.576,3.152-3.58,3.152h-0.573c-2.006,0-3.582-1.576-3.582-3.582v-13.749c0-2.003,1.576-3.579,3.582-3.579
		c1.574,0,2.72,1.289,2.863,3.151l0.43,3.438h0.143c2.147-5.3,6.874-8.02,11.743-8.02c12.031,0,16.328,7.303,16.328,17.472V155.226z
		"/>
	<path d="M327.812,203.204c2.004,0,3.58,1.574,3.58,3.58c0,2.004-1.576,3.437-3.007,3.437H314.35c-2.006,0-3.582-1.576-3.582-3.58
		c0-2.006,1.576-3.437,3.582-3.437h2.577v-27.497h-19.192v27.497h2.579c2.004,0,3.58,1.574,3.58,3.58
		c0,2.004-1.576,3.437-3.007,3.437h-14.036c-2.006,0-3.582-1.576-3.582-3.58c0-2.006,1.576-3.437,3.582-3.437h2.721v-60.438h-2.721
		c-2.006,0-3.582-1.576-3.582-3.582c0-2.004,1.576-3.437,3.582-3.437h14.036c1.717,0,3.007,1.576,3.007,3.579
		c0,2.007-1.576,3.439-3.58,3.439h-2.579v26.781h19.192v-26.781h-2.721c-2.006,0-3.582-1.576-3.582-3.582
		c0-2.004,1.576-3.437,3.009-3.437h14.035c2.004,0,3.58,1.576,3.58,3.579c0,2.007-1.576,3.439-3.58,3.439h-2.578v60.438H327.812z"/>
	<path d="M347.418,141.906c2.293-5.442,7.304-7.589,12.173-7.589c10.455,0,15.182,7.446,15.182,18.475v50.412h2.721
		c2.006,0,3.582,1.574,3.582,3.58c0,2.004-1.576,3.437-3.582,3.437h-5.584c-2.149,0-3.724-1.576-3.724-3.58v-5.729
		c-1.862,7.159-8.165,10.741-14.608,10.741c-11.602,0-17.044-9.165-17.044-19.478c0-12.173,6.732-20.768,20.911-25.494l9.165-3.007
		v-10.312c0-9.022-3.58-12.029-8.879-12.029c-6.876,0-9.596,5.013-9.596,12.889v3.437c0,2.006-1.576,3.582-3.58,3.582
		c-2.006,0-3.438-1.576-3.438-3.582v-18.332c0-2.003,1.576-3.579,3.582-3.579c1.287,0,2.29,1.433,2.577,3.295v2.863H347.418z
		 M358.161,173.271c-9.166,2.864-13.319,9.596-13.319,18.188c0,6.446,3.008,12.746,10.024,12.746
		c7.878,0,11.744-5.727,11.744-17.615v-16.039L358.161,173.271z"/>
	<path d="M430.474,203.204c2.004,0,3.58,1.574,3.58,3.58c0,2.004-1.576,3.437-3.007,3.437h-14.035c-2.006,0-3.582-1.576-3.582-3.58
		c0-2.006,1.576-3.437,3.582-3.437h2.577v-27.497h-19.191v27.497h2.579c2.003,0,3.58,1.574,3.58,3.58
		c0,2.004-1.577,3.437-3.008,3.437h-14.035c-2.006,0-3.582-1.576-3.582-3.58c0-2.006,1.576-3.437,3.582-3.437h2.721v-60.438h-2.721
		c-2.006,0-3.582-1.576-3.582-3.582c0-2.004,1.576-3.437,3.582-3.437h14.035c1.718,0,3.008,1.576,3.008,3.579
		c0,2.007-1.577,3.439-3.58,3.439h-2.579v26.781h19.191v-26.781h-2.721c-2.006,0-3.582-1.576-3.582-3.582
		c0-2.004,1.576-3.437,3.009-3.437h14.035c2.004,0,3.58,1.576,3.58,3.579c0,2.007-1.576,3.439-3.58,3.439h-2.578v60.438H430.474z"/>
	<path d="M485.309,203.204c2.004,0,3.58,1.574,3.58,3.58c0,2.004-1.576,3.437-3.723,3.437h-13.605c-2.149,0-3.582-1.576-3.582-3.58
		c0-2.006,1.575-3.437,3.582-3.437h2.72v-27.927l1.29-22.342h-0.144l-19.621,55.136c-0.431,1.29-1.576,2.149-3.007,2.149h-7.02
		c-2.146,0-3.723-1.576-3.723-3.58c0-2.006,1.576-3.437,3.58-3.437h1.289v-60.438h-2.863c-2.006,0-3.582-1.576-3.582-3.582
		c0-2.004,1.576-3.437,3.582-3.437h13.605c2.004,0,3.58,1.576,3.58,3.579c0,2.007-1.576,3.439-3.58,3.439h-2.579v29.501
		l-1.433,22.629h0.144l19.765-56.856c0.43-1.433,1.575-2.292,3.009-2.292h8.735c2.004,0,3.58,1.576,3.58,3.579
		c0,2.007-1.576,3.439-3.58,3.439h-2.865v60.438H485.309z"/>
	<path d="M534.707,203.204c2.006,0,3.582,1.574,3.582,3.58c0,2.004-1.576,3.437-3.582,3.437h-14.034
		c-1.862,0-3.295-1.576-3.295-3.58c0-2.006,1.576-3.437,3.58-3.437h2.723V175.42h-6.876c-6.3,0-8.736,5.44-8.736,13.319v17.759
		c0,2.146-1.573,3.723-3.58,3.723h-6.873c-2.149,0-3.726-1.576-3.726-3.58c0-2.006,1.576-3.437,3.582-3.437h2.435V189.74
		c0-12.603,4.439-17.615,10.599-17.902c-9.023-0.571-12.462-7.303-12.462-16.325c0-14.179,7.019-19.765,17.188-19.765h18.332
		c2.29,0,4.01,1.146,4.01,3.579c0,2.007-1.576,3.439-3.58,3.439h-2.149v60.438H534.707z M516.518,142.767
		c-7.59,0-10.454,5.442-10.454,12.889c0,9.31,4.297,12.746,10.597,12.746h7.02v-25.635H516.518z"/>
</g>
<g>
	<path d="M70.137,86.5c0.027,0.002,0.105,0.004,0.229,0.004c1.433,0,8.913-0.249,14.046-5.234c3.178-3.089,4.79-7.259,4.79-12.392
		c0-1.787-1.45-3.236-3.236-3.236c-1.787,0-3.237,1.45-3.237,3.236c0,3.35-0.917,5.876-2.802,7.725
		c-3.548,3.473-9.503,3.401-9.613,3.428c-1.848-0.139-3.268,1.357-3.318,3.142C66.943,84.96,68.35,86.45,70.137,86.5z"/>
	<path d="M46.879,131.932c-3.304-0.541-5.649-1.854-7.166-4.012c-2.883-4.101-1.842-9.978-1.829-10.047
		c0.333-1.751-0.813-3.44-2.564-3.78c-1.761-0.335-3.456,0.808-3.793,2.563c-0.067,0.348-1.591,8.559,2.855,14.936
		c2.533,3.637,6.387,5.899,11.452,6.729c0.177,0.029,0.352,0.042,0.526,0.042c1.558,0,2.929-1.127,3.19-2.714
		C49.839,133.885,48.643,132.221,46.879,131.932z"/>
	<path d="M78.58,145.438c-1.654-0.641-3.521,0.193-4.166,1.852c-0.645,1.661,0.181,3.534,1.837,4.188
		c0.628,0.246,15.302,6.267,9.764,24.598c-0.518,1.711,0.451,3.517,2.162,4.033c0.312,0.095,0.625,0.139,0.938,0.139
		c1.389,0,2.674-0.901,3.095-2.301C99.517,153.764,78.791,145.519,78.58,145.438z"/>
	<path d="M199.875,104.443h-6.671V65.986c0-9.352-7.609-16.958-16.96-16.958c-3.839,0-7.372,1.297-10.217,3.456V32.856
		c0-9.352-7.608-16.958-16.96-16.958c-4.31,0-8.236,1.629-11.231,4.286v-3.226c0-9.352-7.608-16.958-16.96-16.958
		c-6.327,0-11.847,3.489-14.76,8.638C100.459,3.273,93.076,0,85.066,0c-14.601,0-24.411,5.413-29.76,16.424
		c-6.917,2.169-34.356,13.067-35.037,49.03C10.039,74.765,0,89.431,0,111.144c0,17.804,9.348,30.202,20.593,38.682
		c-0.696,8.147-1.014,40.018,34.896,49.205c0.23,0.06,0.459,0.086,0.687,0.094c4.525,8.393,12.818,15.742,26.987,15.741
		c6.309-0.233,15.672-2.577,22.895-8.732c2.899,5.203,8.451,8.734,14.818,8.734c8.367,0,15.321-6.097,16.696-14.077
		c3.025,2.799,7.057,4.525,11.495,4.525c9.352,0,16.96-7.606,16.96-16.958v-11.566c2.846,2.159,6.378,3.456,10.217,3.456
		c9.352,0,16.96-7.608,16.96-16.96v-33.963h6.671c3.254,0,5.901-2.646,5.901-5.9v-13.08
		C205.776,107.09,203.13,104.443,199.875,104.443z M83.043,208.395c-23.905,0-25.053-25.674-25.091-26.767
		c-0.061-1.787-1.626-3.192-3.337-3.129c-1.785,0.057-3.186,1.544-3.131,3.329c0.084,2.793,0.572,6.196,1.61,9.742
		c-23.711-8.019-26.406-28.075-26.281-37.534c15.395,9.369,31.756,12.396,32.067,12.45c0.189,0.033,0.377,0.048,0.564,0.048
		c1.541,0,2.908-1.104,3.184-2.676c0.31-1.76-0.866-3.438-2.627-3.748c-0.535-0.093-53.527-9.874-53.527-48.967
		c0-20.025,9.271-33.273,18.589-41.543c0.379-0.216,0.708-0.503,0.972-0.848c8.682-7.39,17.125-10.503,17.849-10.76
		c1.684-0.599,2.566-2.447,1.97-4.13c-0.596-1.684-2.452-2.562-4.124-1.974c-0.165,0.059-6.753,2.462-14.647,8.081
		c2.497-22.324,17.014-31.901,25.362-35.607c-0.247,0.969-0.478,1.958-0.679,2.985c-3.955,20.272,13.188,32.443,13.92,32.953
		c0.563,0.39,1.203,0.577,1.839,0.577c1.022,0,2.027-0.484,2.655-1.386c1.022-1.462,0.664-3.477-0.794-4.503
		c-0.59-0.415-14.402-10.329-11.264-26.402c0.588-3.017,1.374-5.687,2.364-8.047c0.047-0.097,0.097-0.192,0.135-0.294
		c4.13-9.552,11.803-13.771,24.446-13.771c7.447,0,14.213,3.618,18.911,9.329c-0.026,0.384-0.059,0.766-0.059,1.157v30.481
		c-1.205,0.898-2.505,1.548-3.843,1.856c-5.308,1.222-10.552-3.163-14.764-12.341c-0.746-1.623-2.655-2.333-4.292-1.591
		c-1.625,0.746-2.337,2.667-1.591,4.292c7.598,16.551,17.102,17.099,22.099,15.947c0.815-0.188,1.61-0.465,2.392-0.792v27.231
		c-2.813,5.398-7.124,10.674-13.631,15.199c-7.362,5.123-14.563,7.049-21.149,7.142c-0.067-0.005-0.131-0.022-0.2-0.023
		c-0.219-0.021-0.436-0.01-0.648,0.024c-16.709-0.162-29.253-11.955-29.985-12.657c-1.288-1.235-3.335-1.199-4.575,0.086
		c-1.239,1.285-1.205,3.329,0.078,4.57c0.197,0.191,13.65,12.911,31.963,14.278c0.562,6.992,3.571,23.48,19.378,27.596
		c0.274,0.072,0.548,0.105,0.817,0.105c1.437,0,2.75-0.965,3.129-2.421c0.451-1.729-0.585-3.498-2.315-3.946
		c-11.507-2.997-13.993-15.508-14.522-21.347c6.874-0.555,14.241-2.89,21.724-8.094c3.994-2.777,7.256-5.804,9.935-8.962v104.314
		c0,0.423,0.033,0.838,0.063,1.254C96.194,207.7,83.719,208.364,83.043,208.395z M131.363,197.907
		c0,5.782-4.706,10.487-10.487,10.487s-10.485-4.705-10.485-10.487V16.958c0-5.782,4.703-10.485,10.485-10.485
		s10.487,4.703,10.487,10.485V197.907z M159.554,63.079c-0.165,0.946-0.268,1.914-0.268,2.907v97.301
		c0,0.993,0.103,1.961,0.268,2.907v22.163c0,5.782-4.706,10.485-10.487,10.485s-10.485-4.703-10.485-10.485V32.856
		c0-5.782,4.703-10.485,10.485-10.485s10.487,4.703,10.487,10.485V63.079z M186.731,163.287c0,5.782-4.705,10.487-10.487,10.487
		c-4.983,0-9.157-3.498-10.217-8.166V63.665c1.06-4.667,5.234-8.164,10.217-8.164c5.782,0,10.487,4.703,10.487,10.485V163.287z
		 M200.169,123.424c0,0.157-0.137,0.294-0.294,0.294h-6.671v-13.667h6.671c0.157,0,0.294,0.137,0.294,0.293V123.424z"/>
</g>
</svg>
