<?xml version="1.0" encoding="UTF-8" standalone="no"?>
<!-- Generator: Adobe Illustrator 22.1.0, SVG Export Plug-In . SVG Version: 6.00 Build 0)  -->

<svg
   xmlns:dc="http://purl.org/dc/elements/1.1/"
   xmlns:cc="http://creativecommons.org/ns#"
   xmlns:rdf="http://www.w3.org/1999/02/22-rdf-syntax-ns#"
   xmlns:svg="http://www.w3.org/2000/svg"
   xmlns="http://www.w3.org/2000/svg"
   xmlns:sodipodi="http://sodipodi.sourceforge.net/DTD/sodipodi-0.dtd"
   xmlns:inkscape="http://www.inkscape.org/namespaces/inkscape"
   version="1.1"
   x="0px"
   y="0px"
   viewBox="0 0 341.60001 341.60001"
   xml:space="preserve"
   id="svg174"
   sodipodi:docname="anon.svg"
   width="341.60001"
   height="341.60001"
   inkscape:version="0.92.4 (5da689c313, 2019-01-14)"><metadata
   id="metadata180"><rdf:RDF><cc:Work
       rdf:about=""><dc:format>image/svg+xml</dc:format><dc:type
         rdf:resource="http://purl.org/dc/dcmitype/StillImage" /><dc:title></dc:title></cc:Work></rdf:RDF></metadata><defs
   id="defs178" /><sodipodi:namedview
   pagecolor="#ffffff"
   bordercolor="#666666"
   borderopacity="1"
   objecttolerance="10"
   gridtolerance="10"
   guidetolerance="10"
   inkscape:pageopacity="0"
   inkscape:pageshadow="2"
   inkscape:window-width="716"
   inkscape:window-height="480"
   id="namedview176"
   showgrid="false"
   fit-margin-top="0"
   fit-margin-left="0"
   fit-margin-right="0"
   fit-margin-bottom="0"
   inkscape:zoom="0.472"
   inkscape:cx="151.2"
   inkscape:cy="157.60001"
   inkscape:window-x="0"
   inkscape:window-y="0"
   inkscape:window-maximized="0"
   inkscape:current-layer="svg174" />
<style
   type="text/css"
   id="style2">
	.st0{display:none;}
	.st1{fill:none;stroke:#202020;stroke-width:5;stroke-miterlimit:10;}
	.st2{fill:none;stroke:#202020;stroke-width:6;stroke-linecap:round;stroke-linejoin:round;stroke-miterlimit:10;}
	.st3{fill:none;stroke:#202020;stroke-width:5;stroke-linecap:round;stroke-linejoin:round;stroke-miterlimit:10;}
	.st4{fill:none;stroke:#D2A56C;stroke-width:3;stroke-linecap:round;stroke-linejoin:round;stroke-miterlimit:10;}
	.st5{fill:none;stroke:#2B2B2B;stroke-width:6;stroke-miterlimit:10;}
	.st6{fill:none;stroke:#202020;stroke-width:6;stroke-miterlimit:10;}
	.st7{fill:none;stroke:#2B2B2B;stroke-width:6;stroke-linecap:round;stroke-linejoin:round;stroke-miterlimit:10;}
	.st8{fill:none;stroke:#2B2B2B;stroke-width:6;stroke-linecap:round;stroke-miterlimit:10;}
	.st9{fill:none;stroke:#2B2B2B;stroke-width:7;stroke-miterlimit:10;}
	.st10{fill:none;stroke:#2B2B2B;stroke-width:6;stroke-linejoin:round;stroke-miterlimit:10;}
	.st11{fill:none;stroke:#D2A56C;stroke-width:8;stroke-linecap:round;stroke-linejoin:round;stroke-miterlimit:10;}
	.st12{fill:none;stroke:#252525;stroke-width:6;stroke-linecap:round;stroke-linejoin:round;stroke-miterlimit:10;}
	.st13{fill:none;stroke:#2B2B2B;stroke-width:6;stroke-linecap:square;stroke-linejoin:round;stroke-miterlimit:10;}
</style>
<g
   id="Слой_1"
   class="st0"
   style="display:none"
   transform="translate(-98.800003,-66)">
</g>
<g
   id="Слой_2"
   transform="translate(-98.800003,-66)">
	<g
   id="g9">
		<line
   class="st4"
   x1="103.7"
   y1="223.5"
   x2="172.60001"
   y2="256.10001"
   id="line5"
   style="fill:none;stroke:#d2a56c;stroke-width:3;stroke-linecap:round;stroke-linejoin:round;stroke-miterlimit:10" />
		<line
   class="st4"
   x1="435.60001"
   y1="221.7"
   x2="363.70001"
   y2="255.7"
   id="line7"
   style="fill:none;stroke:#d2a56c;stroke-width:3;stroke-linecap:round;stroke-linejoin:round;stroke-miterlimit:10" />
	</g>
	<g
   id="g15">
		<line
   class="st4"
   x1="112.1"
   y1="187.60001"
   x2="204.89999"
   y2="231.5"
   id="line11"
   style="fill:none;stroke:#d2a56c;stroke-width:3;stroke-linecap:round;stroke-linejoin:round;stroke-miterlimit:10" />
		<line
   class="st4"
   x1="427.20001"
   y1="185.8"
   x2="332.60001"
   y2="230.60001"
   id="line13"
   style="fill:none;stroke:#d2a56c;stroke-width:3;stroke-linecap:round;stroke-linejoin:round;stroke-miterlimit:10" />
	</g>
	<g
   id="g21">
		<line
   class="st4"
   x1="108"
   y1="205.60001"
   x2="187.7"
   y2="243.3"
   id="line17"
   style="fill:none;stroke:#d2a56c;stroke-width:3;stroke-linecap:round;stroke-linejoin:round;stroke-miterlimit:10" />
		<line
   class="st4"
   x1="431.70001"
   y1="203.60001"
   x2="348.39999"
   y2="243"
   id="line19"
   style="fill:none;stroke:#d2a56c;stroke-width:3;stroke-linecap:round;stroke-linejoin:round;stroke-miterlimit:10" />
	</g>
	<g
   id="g27">
		<line
   class="st4"
   x1="117.6"
   y1="170.3"
   x2="161.3"
   y2="191"
   id="line23"
   style="fill:none;stroke:#d2a56c;stroke-width:3;stroke-linecap:round;stroke-linejoin:round;stroke-miterlimit:10" />
		<line
   class="st4"
   x1="421.89999"
   y1="168.39999"
   x2="372.79999"
   y2="191.60001"
   id="line25"
   style="fill:none;stroke:#d2a56c;stroke-width:3;stroke-linecap:round;stroke-linejoin:round;stroke-miterlimit:10" />
	</g>
	<g
   id="g33">
		<line
   class="st4"
   x1="126.4"
   y1="154.60001"
   x2="189.7"
   y2="184.5"
   id="line29"
   style="fill:none;stroke:#d2a56c;stroke-width:3;stroke-linecap:round;stroke-linejoin:round;stroke-miterlimit:10" />
		<line
   class="st4"
   x1="413.10001"
   y1="152.7"
   x2="344.39999"
   y2="185.2"
   id="line31"
   style="fill:none;stroke:#d2a56c;stroke-width:3;stroke-linecap:round;stroke-linejoin:round;stroke-miterlimit:10" />
	</g>
	<g
   id="g39">
		<line
   class="st4"
   x1="136"
   y1="139.10001"
   x2="209.7"
   y2="174"
   id="line35"
   style="fill:none;stroke:#d2a56c;stroke-width:3;stroke-linecap:round;stroke-linejoin:round;stroke-miterlimit:10" />
		<line
   class="st4"
   x1="402.5"
   y1="137.8"
   x2="327.5"
   y2="173.3"
   id="line37"
   style="fill:none;stroke:#d2a56c;stroke-width:3;stroke-linecap:round;stroke-linejoin:round;stroke-miterlimit:10" />
	</g>
	<g
   id="g45">
		<line
   class="st4"
   x1="147.89999"
   y1="123.4"
   x2="218.2"
   y2="156.60001"
   id="line41"
   style="fill:none;stroke:#d2a56c;stroke-width:3;stroke-linecap:round;stroke-linejoin:round;stroke-miterlimit:10" />
		<line
   class="st4"
   x1="389.79999"
   y1="122.3"
   x2="316.60001"
   y2="157"
   id="line43"
   style="fill:none;stroke:#d2a56c;stroke-width:3;stroke-linecap:round;stroke-linejoin:round;stroke-miterlimit:10" />
	</g>
	<g
   id="g51">
		<line
   class="st4"
   x1="179.89999"
   y1="98.699997"
   x2="243.2"
   y2="128.60001"
   id="line47"
   style="fill:none;stroke:#d2a56c;stroke-width:3;stroke-linecap:round;stroke-linejoin:round;stroke-miterlimit:10" />
		<line
   class="st4"
   x1="358.39999"
   y1="97.400002"
   x2="290.20001"
   y2="129.7"
   id="line49"
   style="fill:none;stroke:#d2a56c;stroke-width:3;stroke-linecap:round;stroke-linejoin:round;stroke-miterlimit:10" />
	</g>
	<g
   id="g57">
		<line
   class="st4"
   x1="161.8"
   y1="110"
   x2="230.3"
   y2="142.39999"
   id="line53"
   style="fill:none;stroke:#d2a56c;stroke-width:3;stroke-linecap:round;stroke-linejoin:round;stroke-miterlimit:10" />
		<line
   class="st4"
   x1="374.79999"
   y1="109.5"
   x2="306"
   y2="142.10001"
   id="line55"
   style="fill:none;stroke:#d2a56c;stroke-width:3;stroke-linecap:round;stroke-linejoin:round;stroke-miterlimit:10" />
	</g>
	<g
   id="g63">
		<line
   class="st4"
   x1="198"
   y1="87.300003"
   x2="267.39999"
   y2="120.2"
   id="line59"
   style="fill:none;stroke:#d2a56c;stroke-width:3;stroke-linecap:round;stroke-linejoin:round;stroke-miterlimit:10" />
		<line
   class="st4"
   x1="338.39999"
   y1="86.900002"
   x2="268.10001"
   y2="120.2"
   id="line61"
   style="fill:none;stroke:#d2a56c;stroke-width:3;stroke-linecap:round;stroke-linejoin:round;stroke-miterlimit:10" />
	</g>
	<g
   id="g69">
		<line
   class="st4"
   x1="222.89999"
   y1="79.199997"
   x2="267.39999"
   y2="100.3"
   id="line65"
   style="fill:none;stroke:#d2a56c;stroke-width:3;stroke-linecap:round;stroke-linejoin:round;stroke-miterlimit:10" />
		<line
   class="st4"
   x1="315.5"
   y1="77.900002"
   x2="268.10001"
   y2="100.3"
   id="line67"
   style="fill:none;stroke:#d2a56c;stroke-width:3;stroke-linecap:round;stroke-linejoin:round;stroke-miterlimit:10" />
	</g>
	<g
   id="g75">
		<line
   class="st4"
   x1="251.5"
   y1="72.900002"
   x2="267.20001"
   y2="80.300003"
   id="line71"
   style="fill:none;stroke:#d2a56c;stroke-width:3;stroke-linecap:round;stroke-linejoin:round;stroke-miterlimit:10" />
		<line
   class="st4"
   x1="286.5"
   y1="71.599998"
   x2="268"
   y2="80.300003"
   id="line73"
   style="fill:none;stroke:#d2a56c;stroke-width:3;stroke-linecap:round;stroke-linejoin:round;stroke-miterlimit:10" />
	</g>
	<g
   id="g79">
		<path
   class="st5"
   d="m 152.6,357.1 v -26.9 c 0,0 3,-28.1 66,-30.7"
   id="path77"
   inkscape:connector-curvature="0"
   style="fill:none;stroke:#2b2b2b;stroke-width:6;stroke-miterlimit:10" />
	</g>
	<g
   id="g83">
		<path
   class="st5"
   d="m 386.6,357.1 v -26.9 c 0,0 -3,-28.1 -66,-30.7"
   id="path81"
   inkscape:connector-curvature="0"
   style="fill:none;stroke:#2b2b2b;stroke-width:6;stroke-miterlimit:10" />
	</g>
	<circle
   class="st7"
   cx="269.60001"
   cy="350"
   r="7.0999999"
   id="circle85"
   style="fill:none;stroke:#2b2b2b;stroke-width:6;stroke-linecap:round;stroke-linejoin:round;stroke-miterlimit:10" />
	<circle
   class="st7"
   cx="269.60001"
   cy="380"
   r="7.0999999"
   id="circle87"
   style="fill:none;stroke:#2b2b2b;stroke-width:6;stroke-linecap:round;stroke-linejoin:round;stroke-miterlimit:10" />
	<g
   id="g105">
		<g
   id="g97">
			<path
   class="st5"
   d="m 334,232.6 c 0,-6.4 -0.9,-12.5 -2.7,-18.3"
   id="path89"
   inkscape:connector-curvature="0"
   style="fill:none;stroke:#2b2b2b;stroke-width:6;stroke-miterlimit:10" />
			<path
   class="st8"
   d="m 316.3,304.4 c 9.9,-14.2 17.6,-36.6 17.7,-71.9"
   id="path91"
   inkscape:connector-curvature="0"
   style="fill:none;stroke:#2b2b2b;stroke-width:6;stroke-linecap:round;stroke-miterlimit:10" />
			<path
   class="st8"
   d="m 305.2,316.8 c 1.8,-1.5 3.6,-3.1 5.4,-5"
   id="path93"
   inkscape:connector-curvature="0"
   style="fill:none;stroke:#2b2b2b;stroke-width:6;stroke-linecap:round;stroke-miterlimit:10" />
			<path
   class="st8"
   d="m 270.5,329 c 0,0 13,1.1 27.3,-7.2"
   id="path95"
   inkscape:connector-curvature="0"
   style="fill:none;stroke:#2b2b2b;stroke-width:6;stroke-linecap:round;stroke-miterlimit:10" />
		</g>
		<g
   id="g103">
			<path
   class="st5"
   d="m 208.4,213 c -2,6.2 -3.1,12.8 -3.1,19.7"
   id="path99"
   inkscape:connector-curvature="0"
   style="fill:none;stroke:#2b2b2b;stroke-width:6;stroke-miterlimit:10" />
			<path
   class="st5"
   d="m 268.8,329 c 0,0 -63,5.5 -63.5,-96.5"
   id="path101"
   inkscape:connector-curvature="0"
   style="fill:none;stroke:#2b2b2b;stroke-width:6;stroke-miterlimit:10" />
		</g>
	</g>
	<g
   id="g123">
		<g
   id="g113">
			<g
   id="g111">
				<g
   id="g109">
					<path
   class="st9"
   d="m 262.5,253.2 c -1.9,4.6 -5.7,7.7 -8.8,10.2 -1.8,1.4 -3.5,2.6 -5.1,3.5 -3.2,1.9 -5.6,2.7 -5.6,2.7 -2.5,1.1 -5.2,1.7 -8.1,1.7 -10.7,0 -19.4,-8.7 -19.4,-19.4 0,-9.7 7.1,-17.8 16.5,-19.2 0,0 12.5,-1.4 24.2,1.2 -0.1,0 12.6,4.3 6.3,19.3 z"
   id="path107"
   inkscape:connector-curvature="0"
   style="fill:none;stroke:#2b2b2b;stroke-width:7;stroke-miterlimit:10" />
				</g>
			</g>
		</g>
		<g
   id="g121">
			<g
   id="g119">
				<g
   id="g117">
					<path
   class="st9"
   d="m 276.7,253.2 c 1.9,4.6 5.7,7.7 8.8,10.2 1.8,1.4 3.5,2.6 5.1,3.5 3.2,1.9 5.6,2.7 5.6,2.7 2.5,1.1 5.2,1.7 8.1,1.7 10.7,0 19.4,-8.7 19.4,-19.4 0,-9.7 -7.1,-17.8 -16.5,-19.2 0,0 -12.5,-1.4 -24.2,1.2 0.1,0 -12.5,4.3 -6.3,19.3 z"
   id="path115"
   inkscape:connector-curvature="0"
   style="fill:none;stroke:#2b2b2b;stroke-width:7;stroke-miterlimit:10" />
				</g>
			</g>
		</g>
	</g>
	<line
   class="st8"
   x1="257.39999"
   y1="233.89999"
   x2="282.10001"
   y2="233.89999"
   id="line125"
   style="fill:none;stroke:#2b2b2b;stroke-width:6;stroke-linecap:round;stroke-miterlimit:10" />
	<path
   class="st5"
   d="m 263,251 c 1.7,-1.9 4.1,-3 6.7,-3 2.3,0 4.3,0.8 5.9,2.2"
   id="path127"
   inkscape:connector-curvature="0"
   style="fill:none;stroke:#2b2b2b;stroke-width:6;stroke-miterlimit:10" />
	<g
   id="g131">
		<path
   class="st10"
   d="m 204.8,233.5 c 0,0 -34.7,19 -45,42 0,0 32.2,12.5 44.8,25.3"
   id="path129"
   inkscape:connector-curvature="0"
   style="fill:none;stroke:#2b2b2b;stroke-width:6;stroke-linejoin:round;stroke-miterlimit:10" />
	</g>
	<g
   id="g135">
		<path
   class="st10"
   d="m 334.5,233.5 c 0,0 34.7,19 45,42 0,0 -32.2,12.5 -44.8,25.3"
   id="path133"
   inkscape:connector-curvature="0"
   style="fill:none;stroke:#2b2b2b;stroke-width:6;stroke-linejoin:round;stroke-miterlimit:10" />
	</g>
	<g
   id="g141">
		<path
   class="st7"
   d="m 150.7,196.9 c 0,0 35.5,15 119,29.5"
   id="path137"
   inkscape:connector-curvature="0"
   style="fill:none;stroke:#2b2b2b;stroke-width:6;stroke-linecap:round;stroke-linejoin:round;stroke-miterlimit:10" />
		<path
   class="st7"
   d="m 388.6,196.9 c 0,0 -35.5,15 -119,29.5"
   id="path139"
   inkscape:connector-curvature="0"
   style="fill:none;stroke:#2b2b2b;stroke-width:6;stroke-linecap:round;stroke-linejoin:round;stroke-miterlimit:10" />
	</g>
	<path
   class="st7"
   d="m 150.6,195.7 c 0,0 16.9,-5.9 54.3,-12.6 0,0 16.3,-30.7 34.3,-50.8"
   id="path143"
   inkscape:connector-curvature="0"
   style="fill:none;stroke:#2b2b2b;stroke-width:6;stroke-linecap:round;stroke-linejoin:round;stroke-miterlimit:10" />
	<path
   class="st7"
   d="m 388,195.7 c 0,0 -16.9,-5.9 -54.3,-12.6 0,0 -12.7,-23.9 -28.1,-43.4"
   id="path145"
   inkscape:connector-curvature="0"
   style="fill:none;stroke:#2b2b2b;stroke-width:6;stroke-linecap:round;stroke-linejoin:round;stroke-miterlimit:10" />
	<path
   class="st7"
   d="m 276.8,141.7 c -4.2,-2.3 -9.6,-5.8 -16,-11 -2.6,-2.1 -5.8,-3.3 -9.3,-3.5 -4.7,-0.2 -8.9,1.7 -11.9,4.7"
   id="path147"
   inkscape:connector-curvature="0"
   style="fill:none;stroke:#2b2b2b;stroke-width:6;stroke-linecap:round;stroke-linejoin:round;stroke-miterlimit:10" />
	<path
   class="st7"
   d="m 306.1,140.4 c 0,0 -16.3,-22.9 -36.4,-4.3"
   id="path149"
   inkscape:connector-curvature="0"
   style="fill:none;stroke:#2b2b2b;stroke-width:6;stroke-linecap:round;stroke-linejoin:round;stroke-miterlimit:10" />
	<circle
   class="st11"
   cx="269.60001"
   cy="236.8"
   r="166.8"
   id="circle151"
   style="fill:none;stroke:#d2a56c;stroke-width:8;stroke-linecap:round;stroke-linejoin:round;stroke-miterlimit:10" />
	<path
   class="st8"
   d="m 287,145.5 c -0.7,-0.1 -1.5,-0.3 -2.2,-0.6"
   id="path153"
   inkscape:connector-curvature="0"
   style="fill:none;stroke:#2b2b2b;stroke-width:6;stroke-linecap:round;stroke-miterlimit:10" />
	<g
   id="g159">
		<path
   class="st8"
   d="m 214,288.3 c 0,0 -7.4,-10.5 -15.7,-13.7"
   id="path155"
   inkscape:connector-curvature="0"
   style="fill:none;stroke:#2b2b2b;stroke-width:6;stroke-linecap:round;stroke-miterlimit:10" />
		<path
   class="st8"
   d="m 325.1,288.3 c 0,0 7.4,-10.5 15.7,-13.7"
   id="path157"
   inkscape:connector-curvature="0"
   style="fill:none;stroke:#2b2b2b;stroke-width:6;stroke-linecap:round;stroke-miterlimit:10" />
	</g>
	<path
   class="st8"
   d="m 258,195.9 c 0,0 8.8,3.8 20.4,0"
   id="path161"
   inkscape:connector-curvature="0"
   style="fill:none;stroke:#2b2b2b;stroke-width:6;stroke-linecap:round;stroke-miterlimit:10" />
	<line
   class="st8"
   x1="276"
   y1="251.3"
   x2="276"
   y2="277.5"
   id="line163"
   style="fill:none;stroke:#2b2b2b;stroke-width:6;stroke-linecap:round;stroke-miterlimit:10" />
	<path
   class="st8"
   d="m 261.7,379.3 c -1.8,-1.5 -3.6,-3.1 -5.4,-5"
   id="path165"
   inkscape:connector-curvature="0"
   style="fill:none;stroke:#2b2b2b;stroke-width:6;stroke-linecap:round;stroke-miterlimit:10" />
	<path
   class="st8"
   d="m 276.4,374.1 c 1.8,-1.5 3.6,-3.1 5.4,-5"
   id="path167"
   inkscape:connector-curvature="0"
   style="fill:none;stroke:#2b2b2b;stroke-width:6;stroke-linecap:round;stroke-miterlimit:10" />
	<rect
   x="182.7"
   y="350.70001"
   class="st7"
   width="46.299999"
   height="10.3"
   id="rect169"
   style="fill:none;stroke:#2b2b2b;stroke-width:6;stroke-linecap:round;stroke-linejoin:round;stroke-miterlimit:10" />
</g>
<g
   id="Слой_3"
   transform="translate(-98.800003,-66)">
</g>
<g
   id="Слой_4"
   transform="translate(-98.800003,-66)">
</g>
</svg>