<?xml version="1.0" encoding="UTF-8" standalone="no"?>
<!-- Generator: Adobe Illustrator 22.1.0, SVG Export Plug-In . SVG Version: 6.00 Build 0)  -->

<svg
   xmlns:dc="http://purl.org/dc/elements/1.1/"
   xmlns:cc="http://creativecommons.org/ns#"
   xmlns:rdf="http://www.w3.org/1999/02/22-rdf-syntax-ns#"
   xmlns:svg="http://www.w3.org/2000/svg"
   xmlns="http://www.w3.org/2000/svg"
   xmlns:sodipodi="http://sodipodi.sourceforge.net/DTD/sodipodi-0.dtd"
   xmlns:inkscape="http://www.inkscape.org/namespaces/inkscape"
   version="1.1"
   x="0px"
   y="0px"
   viewBox="0 0 32 31.999999"
   xml:space="preserve"
   id="svg22"
   sodipodi:docname="point.svg"
   width="32"
   height="32"
   inkscape:version="0.92.4 (5da689c313, 2019-01-14)"><metadata
   id="metadata28"><rdf:RDF><cc:Work
       rdf:about=""><dc:format>image/svg+xml</dc:format><dc:type
         rdf:resource="http://purl.org/dc/dcmitype/StillImage" /><dc:title></dc:title></cc:Work></rdf:RDF></metadata><defs
   id="defs26" /><sodipodi:namedview
   pagecolor="#ffffff"
   bordercolor="#666666"
   borderopacity="1"
   objecttolerance="10"
   gridtolerance="10"
   guidetolerance="10"
   inkscape:pageopacity="0"
   inkscape:pageshadow="2"
   inkscape:window-width="716"
   inkscape:window-height="480"
   id="namedview24"
   showgrid="false"
   fit-margin-top="0"
   fit-margin-left="0"
   fit-margin-right="0"
   fit-margin-bottom="0"
   inkscape:zoom="5.6594723"
   inkscape:cx="15.95"
   inkscape:cy="17.35"
   inkscape:window-x="0"
   inkscape:window-y="0"
   inkscape:window-maximized="0"
   inkscape:current-layer="svg22" />
<style
   type="text/css"
   id="style2">
	.st0{display:none;}
	.st1{display:inline;}
	.st2{fill:#D2A56D;}
	.st3{fill:#FFFFFF;}
</style>
<g
   id="Слой_1"
   class="st0"
   style="display:none"
   transform="translate(-5.8,-6.2)">
	<g
   id="_x31__15_"
   class="st1"
   style="display:inline">
		<g
   id="g6">
			<path
   class="st2"
   d="m 15.2,5 c -6.6,0 -12,5.4 -12,12 0,5 10,20 12,20 2,0 12,-15 12,-20 0,-6.6 -5.4,-12 -12,-12 z m 0,29 c -1.7,0 -10,-12.8 -10,-17 0,-5.5 4.5,-10 10,-10 5.5,0 10,4.5 10,10 0,4.1 -8.4,17 -10,17 z m 0,-22 c -2.8,0 -5,2.2 -5,5 0,2.8 2.2,5 5,5 2.8,0 5,-2.2 5,-5 0,-2.8 -2.3,-5 -5,-5 z m 0,8 c -1.7,0 -3,-1.3 -3,-3 0,-1.7 1.3,-3 3,-3 1.7,0 3,1.3 3,3 0,1.7 -1.4,3 -3,3 z"
   id="path4"
   inkscape:connector-curvature="0"
   style="fill:#d2a56d" />
		</g>
	</g>
</g>
<g
   id="Слой_2"
   class="st0"
   style="display:none"
   transform="translate(-5.8,-6.2)">
	<g
   id="_x34__17_"
   class="st1"
   style="display:inline">
		<g
   id="g12">
			<path
   class="st2"
   d="M 34.7,29.3 29,25 c -1,-0.7 -2.1,-0.8 -2.9,0 l -1.8,1.8 c -1.8,-1.3 -3.7,-2.9 -5.4,-4.6 -2,-2 -3.8,-4.2 -5.3,-6.2 l 1.7,-1.7 c 0.8,-0.8 0.7,-1.9 0,-2.9 L 11,5.6 C 10.3,4.6 8.9,4.8 8.1,5.6 L 5.3,8.5 c -1.6,1.6 -1.1,3.7 0,5.8 0,0 3.6,6.4 9,11.8 5.1,5.1 11.8,9.1 11.8,9.1 2.3,0.8 4.2,1.6 5.7,0 l 2.9,-2.9 c 0.8,-0.9 0.8,-2.2 0,-3 z m -2.3,2.4 -1.8,1.8 c -0.7,0.7 -2.2,0.5 -3,0.1 C 24.4,31.9 19.4,28.1 16.1,25 12.2,21.4 6.8,12.8 6.8,12.8 6.5,12.1 6.4,10.3 6.9,9.8 L 8.7,8 c 0.6,-0.4 1.4,-0.5 1.8,0 l 2.7,3.7 c 0.4,0.6 0.5,1.3 0,1.8 L 11,15.7 c 0.4,0.5 5.9,9 13.6,13.7 l 2.3,-2.3 c 0.5,-0.5 1.2,-0.4 1.8,0 l 3.7,2.7 c 0.6,0.6 0.5,1.4 0,1.9 z"
   id="path10"
   inkscape:connector-curvature="0"
   style="fill:#d2a56d" />
		</g>
	</g>
</g>
<g
   id="Слой_3"
   transform="translate(-5.8,-6.2)">
	<g
   id="_x33__2_">
		<g
   id="g18">
			<path
   class="st3"
   d="m 29,17.6 -7.1,7.1 -7.1,-7.1 c -0.4,-0.4 -1,-0.4 -1.4,0 -0.4,0.4 -0.4,1 0,1.4 l 7.7,7.7 c 0.2,0.2 0.6,0.3 0.9,0.3 0.3,0.1 0.6,0 0.9,-0.3 L 30.6,19 C 31,18.6 31,18 30.6,17.6 30,17.2 29.3,17.2 29,17.6 Z M 21.8,6.2 c -8.8,0 -16,7.2 -16,16 0,8.8 7.2,16 16,16 8.8,0 16,-7.2 16,-16 0,-8.9 -7.1,-16 -16,-16 z m 0,30 c -7.7,0 -14,-6.3 -14,-14 0,-7.7 6.3,-14 14,-14 7.7,0 14,6.3 14,14 0,7.7 -6.2,14 -14,14 z"
   id="path16"
   inkscape:connector-curvature="0"
   style="fill:#ffffff" />
		</g>
	</g>
</g>
</svg>