<?xml version="1.0" encoding="UTF-8" standalone="no"?>
<!-- Generator: Adobe Illustrator 22.1.0, SVG Export Plug-In . SVG Version: 6.00 Build 0)  -->

<svg
   xmlns:dc="http://purl.org/dc/elements/1.1/"
   xmlns:cc="http://creativecommons.org/ns#"
   xmlns:rdf="http://www.w3.org/1999/02/22-rdf-syntax-ns#"
   xmlns:svg="http://www.w3.org/2000/svg"
   xmlns="http://www.w3.org/2000/svg"
   xmlns:sodipodi="http://sodipodi.sourceforge.net/DTD/sodipodi-0.dtd"
   xmlns:inkscape="http://www.inkscape.org/namespaces/inkscape"
   version="1.1"
   id="Слой_1"
   x="0px"
   y="0px"
   viewBox="0 0 32.099998 31.9"
   xml:space="preserve"
   sodipodi:docname="zoom.svg"
   width="32.099998"
   height="31.9"
   inkscape:version="0.92.4 (5da689c313, 2019-01-14)"><metadata
   id="metadata14"><rdf:RDF><cc:Work
       rdf:about=""><dc:format>image/svg+xml</dc:format><dc:type
         rdf:resource="http://purl.org/dc/dcmitype/StillImage" /><dc:title></dc:title></cc:Work></rdf:RDF></metadata><defs
   id="defs12" /><sodipodi:namedview
   pagecolor="#ffffff"
   bordercolor="#666666"
   borderopacity="1"
   objecttolerance="10"
   gridtolerance="10"
   guidetolerance="10"
   inkscape:pageopacity="0"
   inkscape:pageshadow="2"
   inkscape:window-width="716"
   inkscape:window-height="480"
   id="namedview10"
   showgrid="false"
   fit-margin-top="0"
   fit-margin-left="0"
   fit-margin-right="0"
   fit-margin-bottom="0"
   inkscape:zoom="3.6875"
   inkscape:cx="16.6"
   inkscape:cy="13.5"
   inkscape:window-x="0"
   inkscape:window-y="0"
   inkscape:window-maximized="0"
   inkscape:current-layer="Слой_1" />
<style
   type="text/css"
   id="style2">
	.st0{fill:#FFFFFF;}
</style>
<g
   id="_x35__1_"
   transform="translate(-15.4,-13.6)">
	<g
   id="g6">
		<path
   class="st0"
   d="m 47.2,43.8 -8.3,-8.1 c 2.2,-2.4 3.5,-5.5 3.5,-8.9 0,-7.3 -6,-13.2 -13.5,-13.2 -7.5,0 -13.5,5.9 -13.5,13.2 0,7.3 6,13.2 13.5,13.2 3.2,0 6.2,-1.1 8.5,-3 l 8.3,8.2 c 0.4,0.4 1.1,0.4 1.5,0 0.4,-0.4 0.4,-1 0,-1.4 z M 29,38 c -6.3,0 -11.4,-5 -11.4,-11.2 0,-6.2 5.1,-11.2 11.4,-11.2 6.3,0 11.4,5 11.4,11.2 C 40.3,32.9 35.3,38 29,38 Z m 5,-12.1 h -4 v -4 c 0,-0.6 -0.4,-1 -1,-1 -0.6,0 -1,0.4 -1,1 v 4 h -4 c -0.6,0 -1,0.2 -1,0.7 0,0.6 0.4,1.3 1,1.3 h 4 v 4 c 0,0.6 0.4,1 1,1 0.6,0 1,-0.4 1,-1 v -4 h 4 c 0.6,0 1,-0.4 1,-1 0,-0.5 -0.4,-1 -1,-1 z"
   id="path4"
   inkscape:connector-curvature="0"
   style="fill:#ffffff" />
	</g>
</g>
</svg>