<svg xmlns:svg="http://www.w3.org/2000/svg" xmlns="http://www.w3.org/2000/svg" width="304.58118" height="279.01334">
  <g fill-rule="nonzero" fill="none">
    <path fill="#435466" d="M130.88 226.33733l-30.22534 52.352H0L130.88 52l130.87999 226.68933H161.10533z"/>
    <path fill="#bababa" d="M130.528 226.66133l-30.22533 52.352H52L130.528 143l78.528 136.01333h-48.30267z"/>
    <path fill="#4dba87" d="M130.88 52.352L100.65466 0H0l130.88 226.68933L261.75999 0H161.10533z"/>
    <path fill="#435466" d="M130.528 52.351999L100.30267 0H52l78.528 136.01333L209.056 0h-48.30267z"/>
    <path d="M131.40906 225.08913l-.0601-.1037-.75805 1.30895L80.5 139.80158 131.349 52l50.151 86.59633z" style="mix-blend-mode:multiply" fill="#4dba87" fill-opacity=".21000001"/>
    <path fill="#435466" d="M130.528 52.351999L100.30267 0H52l78.528 136.01333L209.056 0h-48.30267z"/>
    <svg width="305" height="279">
      <g fill-rule="nonzero">
        <path fill="#435466" d="M151.88 226.33733l-30.22534 52.352H21L151.88 52l130.87999 226.68933H182.10533z"/>
        <path fill="#bababa" d="M151.528 226.66133l-30.22533 52.352H73L151.528 143l78.528 136.01333h-48.30267z"/>
        <path fill="#4dba87" d="M151.88 52.352L121.65466 0H21l130.88 226.68933L282.75999 0H182.10533z"/>
        <path fill="#435466" d="M151.528 52.351999L121.30267 0H73l78.528 136.01333L230.056 0h-48.30267z"/>
        <path fill="#435466" d="M151.528 52.351999L121.30267 0H73l78.528 136.01333L230.056 0h-48.30267z"/>
        <path d="M267.70975 127.21004c-13.06758 11.12873-29.34548 22.50458-48.1251 33.64937-13.8106 8.19593-28.69105 16.03937-44.24644 23.29297-9.24734 4.3121-18.50711 8.31039-27.69222 11.96363-4.7643 1.89493-9.50315 3.69487-14.20299 5.39542-29.60562 10.7122-57.193205 17.30857-79.172431 18.94971-26.353874 1.96777-44.7390405-3.03307-51.3322109-17.17217-3.70283674-7.94076-2.68371042-17.08209 2.0990348-26.7349 6.2326541-12.57909 19.2753921-26.78655 37.5602581-41.3721l15.148703 11.0038c-18.467468 14.18972-31.30159 27.70615-36.580198 38.35974-2.570076 5.18707-2.978817 8.85338-1.914258 11.13633 2.379991 5.10391 14.098073 8.29127 33.67839 6.82926 20.179978-1.50678 46.21614-7.7322 74.388342-17.92575 4.52205-1.63622 9.0849-3.36931 13.675-5.19495 8.86202-3.52474 17.80343-7.38556 26.73746-11.55156 15.02019-7.00403 29.37352-14.56963 42.66728-22.45884 17.50133-10.38619 32.82578-21.13687 45.02654-31.47428C255.14669 112.64818 255 111.34122 255 110c0-9.94112 8.05887-18 18-18 9.94112 0 18 8.05888 18 18 0 9.94113-8.05888 18-18 18-1.84105 0-3.61755-.2764-5.29025-.78996zm28.113-30.913816c-2.75598-5.475815-7.89441-9.546579-14.05422-10.851198 2.97985-5.071615 3.74431-9.183511 2.73212-13.450708-1.80444-7.607129-17.94886-11.389518-36.07443-7.858894l10.1228-17.532872c24.15358-1.161925 36.00868 4.367569 42.26517 17.784637 4.28752 9.194633 2.25679 20.078573-4.99144 31.909032zM62.148209 120.96467c6.938303-4.51264 16.283715-10.30247 21.066661-13.31138l8.925967 15.47626c-3.308387 2.08128-8.822694 5.54942-14.095438 8.93609z" fill="#bababa"/>
        <path d="M52.910858 116.44977C55.086382 115.51668 57.482853 115 60 115c9.941125 0 18 8.05888 18 18s-8.058875 18-18 18-18-8.05888-18-18c0-.68191.03792-1.35496.111763-2.01716C11.378449 106.05632-3.7891017 82.090497 4.4660862 64.387189 10.722568 50.970121 20.874958 45.85564 45.028531 47.017565l10.033613 17.369624c-23.229323-3.109906-32.077706 2.878895-34.282518 7.607129-2.208219 4.735542 2.03735 14.720706 14.011019 27.657821 5.002199 5.404691 11.09561 11.047721 18.120213 16.797631zm32.864363 23.37057c2.963475 1.8618 6.000799 3.71647 9.106682 5.55966 13.293767 7.88921 27.647097 15.45481 42.667287 22.45884 8.93402 4.166 17.87543 8.02682 26.73745 11.55156 4.5901 1.82564 9.15295 3.55873 13.675 5.19495 28.1722 10.19355 54.20837 16.41897 74.38834 17.92575 19.58032 1.46201 31.2984-1.72535 33.67839-6.82926 1.06456-2.28295.65582-5.94926-1.91425-11.13633-5.30666-10.71019-18.24932-24.31372-36.87503-38.58597l15.15437-11.00791c18.43654 14.66628 31.58396 28.95714 37.84942 41.60244 4.78274 9.65281 5.80187 18.79414 2.09903 26.7349-6.59317 14.1391-24.97833 19.13994-51.33221 17.17217-21.97922-1.64114-49.56681-8.23751-79.17243-18.94971-4.69984-1.70055-9.43869-3.50049-14.20299-5.39542-9.18511-3.65324-18.44488-7.65153-27.69222-11.96363-15.55539-7.2536-30.435836-15.09704-44.246441-23.29297-3.680371-2.18412-7.264658-4.37711-10.747528-6.57538 5.465697-2.95451 9.506555-8.20756 10.82713-14.46369zm140.630379-7.59898c-5.69873-3.26079-11.65577-6.58957-14.95123-8.66271l8.95085-15.47008c4.73355 2.97784 14.81304 8.44945 22.20729 12.81555z" fill="#dfdfdf"/>
        <path d="M152.90906 225.08913l-.0601-.1037-.75805 1.30895L102 139.80158 152.849 52 203 138.59633z" style="mix-blend-mode:multiply" fill="#4dba87" fill-opacity=".21000001"/>
      </g>
    </svg>
  </g>
</svg>