<svg width="90" height="90" viewBox="0 0 90 90" fill="none" xmlns="http://www.w3.org/2000/svg">
<path fill-rule="evenodd" clip-rule="evenodd" d="M20.2914 52.8979C26.5147 55.4045 35.2496 57 45 57C54.7504 57 63.4853 55.4045 69.7086 52.8979C72.8256 51.6424 75.2145 50.1977 76.7917 48.6957C78.3642 47.1983 79 45.7801 79 44.5C79 43.2199 78.3642 41.8017 76.7917 40.3043C75.2145 38.8023 72.8256 37.3576 69.7086 36.1021C63.4853 33.5955 54.7504 32 45 32C35.2496 32 26.5147 33.5955 20.2914 36.1021C17.1744 37.3576 14.7855 38.8023 13.2083 40.3043C11.6358 41.8017 11 43.2199 11 44.5C11 45.7801 11.6358 47.1983 13.2083 48.6957C14.7855 50.1977 17.1744 51.6424 20.2914 52.8979ZM9 44.5C9 52.5081 25.1177 59 45 59C64.8823 59 81 52.5081 81 44.5C81 36.4919 64.8823 30 45 30C25.1177 30 9 36.4919 9 44.5Z" fill="white"/>
<path fill-rule="evenodd" clip-rule="evenodd" d="M25.0383 27.1867C26.1593 33.8688 29.3615 42.2668 34.443 50.7336C39.5245 59.2005 45.4293 65.9764 50.7989 70.1087C53.4888 72.1789 55.9593 73.5197 58.0537 74.1259C60.1445 74.7311 61.6593 74.5557 62.7184 73.9201C63.7775 73.2844 64.6447 72.0302 65.0942 69.9004C65.5443 67.767 65.5232 64.9562 64.9616 61.6087C63.8406 54.9265 60.6384 46.5285 55.5569 38.0617C50.4753 29.5949 44.5705 22.8189 39.201 18.6866C36.511 16.6165 34.0405 15.2757 31.9462 14.6695C29.8553 14.0643 28.3405 14.2396 27.2814 14.8753C26.2223 15.5109 25.3551 16.7652 24.9057 18.895C24.4555 21.0283 24.4767 23.8392 25.0383 27.1867ZM26.2522 13.1604C19.4747 17.2281 22.3741 34.511 32.7281 51.7629C43.0822 69.0147 56.9701 79.7026 63.7476 75.6349C70.5251 71.5673 67.6258 54.2844 57.2717 37.0325C46.9176 19.7807 33.0297 9.09275 26.2522 13.1604Z" fill="white"/>
<path fill-rule="evenodd" clip-rule="evenodd" d="M64.9616 27.1867C63.8406 33.8688 60.6384 42.2668 55.5569 50.7336C50.4753 59.2005 44.5706 65.9764 39.201 70.1087C36.5111 72.1789 34.0406 73.5197 31.9462 74.1259C29.8554 74.7311 28.3406 74.5557 27.2815 73.9201C26.2223 73.2844 25.3551 72.0302 24.9057 69.9004C24.4555 67.767 24.4767 64.9562 25.0383 61.6087C26.1593 54.9265 29.3615 46.5285 34.443 38.0617C39.5246 29.5949 45.4293 22.8189 50.7989 18.6866C53.4888 16.6165 55.9593 15.2757 58.0537 14.6695C60.1446 14.0643 61.6593 14.2396 62.7184 14.8753C63.7776 15.5109 64.6448 16.7652 65.0942 18.895C65.5444 21.0283 65.5232 23.8392 64.9616 27.1867ZM63.7477 13.1604C70.5252 17.2281 67.6258 34.511 57.2717 51.7629C46.9177 69.0147 33.0298 79.7026 26.2523 75.6349C19.4747 71.5673 22.3741 54.2844 32.7282 37.0325C43.0822 19.7807 56.9701 9.09275 63.7477 13.1604Z" fill="white"/>
<circle cx="45" cy="44" r="5" fill="white"/>
</svg>
