<svg width="90" height="90" viewBox="0 0 90 90" fill="none" xmlns="http://www.w3.org/2000/svg">
<rect x="14" y="15" width="61" height="61" rx="7" stroke="white" stroke-width="2"/>
<path d="M34.439 52.4813L34.364 41.5768H26V39.5602H45.0909V41.5768H36.6894L36.6144 52.4813L36.6894 65.4398H34.364L34.439 52.4813Z" fill="white"/>
<path d="M56.0359 66C52.9353 66 50.5599 65.3154 48.9096 63.9461C47.2593 62.5768 46.2466 60.6473 45.8716 58.1577L47.8969 57.6722C48.322 59.7635 49.1346 61.3444 50.3349 62.4149C51.5601 63.4606 53.4604 63.9834 56.0359 63.9834C58.2113 63.9834 59.8741 63.5104 61.0243 62.5643C62.1745 61.5934 62.7496 60.2988 62.7496 58.6805C62.7496 57.2116 62.1995 56.0664 61.0993 55.2448C60.0241 54.3983 58.1738 53.6888 55.5483 53.1162C52.4477 52.444 50.2348 51.5353 48.9096 50.39C47.5844 49.2448 46.9217 47.6888 46.9217 45.722C46.9217 43.6058 47.6344 41.9627 49.0596 40.7925C50.4849 39.5975 52.4852 39 55.0607 39C57.8362 39 59.9991 39.6473 61.5494 40.9419C63.1247 42.2116 64.1123 43.9544 64.5124 46.1701L62.4495 46.6556C62.1745 44.9129 61.4244 43.5436 60.1991 42.5477C58.9739 41.527 57.2736 41.0166 55.0982 41.0166C53.2229 41.0166 51.7601 41.4274 50.7099 42.249C49.6847 43.0705 49.1721 44.2033 49.1721 45.6473C49.1721 47.0913 49.7097 48.2116 50.7849 49.0083C51.8601 49.805 53.7105 50.4896 56.3359 51.0622C58.4613 51.5104 60.1491 52.0581 61.3994 52.7054C62.6496 53.3527 63.5622 54.1618 64.1373 55.1328C64.7125 56.0788 65 57.249 65 58.6432C65 60.9087 64.1999 62.7012 62.5996 64.0207C60.9993 65.3403 58.8114 66 56.0359 66Z" fill="white"/>
</svg>
