<?xml version="1.0" encoding="UTF-8" standalone="no"?>
<svg
   xmlns:dc="http://purl.org/dc/elements/1.1/"
   xmlns:cc="http://creativecommons.org/ns#"
   xmlns:rdf="http://www.w3.org/1999/02/22-rdf-syntax-ns#"
   xmlns:svg="http://www.w3.org/2000/svg"
   xmlns="http://www.w3.org/2000/svg"
   xmlns:sodipodi="http://sodipodi.sourceforge.net/DTD/sodipodi-0.dtd"
   xmlns:inkscape="http://www.inkscape.org/namespaces/inkscape"
   width="304.58118"
   height="279.01334"
   viewBox="0 0 304.58118 279.01334"
   version="1.1"
   id="svg29"
   sodipodi:docname="vuex.svg"
   inkscape:version="0.92.4 (5da689c313, 2019-01-14)">
  <metadata
     id="metadata33">
    <rdf:RDF>
      <cc:Work
         rdf:about="">
        <dc:format>image/svg+xml</dc:format>
        <dc:type
           rdf:resource="http://purl.org/dc/dcmitype/StillImage" />
        <dc:title>vuex-logo</dc:title>
      </cc:Work>
    </rdf:RDF>
  </metadata>
  <sodipodi:namedview
     pagecolor="#ffffff"
     bordercolor="#666666"
     borderopacity="1"
     objecttolerance="10"
     gridtolerance="10"
     guidetolerance="10"
     inkscape:pageopacity="0"
     inkscape:pageshadow="2"
     inkscape:window-width="1920"
     inkscape:window-height="1027"
     id="namedview31"
     showgrid="false"
     fit-margin-top="0"
     fit-margin-left="0"
     fit-margin-right="0"
     fit-margin-bottom="0"
     scale-x="1"
     inkscape:zoom="0.84587814"
     inkscape:cx="131"
     inkscape:cy="139.51333"
     inkscape:window-x="-8"
     inkscape:window-y="-8"
     inkscape:window-maximized="1"
     inkscape:current-layer="svg29" />
  <title
     id="title2">vuex-logo</title>
  <defs
     id="defs4" />
  <g
     id="vuex"
     style="fill:none;fill-rule:evenodd;stroke:none;stroke-width:1">
    <g
       id="vuex-logo"
       style="fill-rule:nonzero">
      <polygon
         id="path14-copy-4"
         points="130.88,226.33733 100.65466,278.68933 0,278.68933 130.88,52 261.75999,278.68933 161.10533,278.68933 "
         style="fill:#435466" />
      <polygon
         id="path18-copy-5"
         points="130.528,226.66133 100.30267,279.01333 52,279.01333 130.528,143 209.056,279.01333 160.75333,279.01333 "
         style="fill:#bababa" />
      <polygon
         id="path14"
         transform="matrix(1,0,0,-1,0,226.68933)"
         points="130.88,174.33733 100.65466,226.68933 0,226.68933 130.88,0 261.75999,226.68933 161.10533,226.68933 "
         style="fill:#4dba87" />
      <polygon
         id="path18"
         transform="matrix(1,0,0,-1,0,136.01333)"
         points="130.528,83.661331 100.30267,136.01333 52,136.01333 130.528,0 209.056,136.01333 160.75333,136.01333 "
         style="fill:#435466" />
      <path
         d="m 131.40906,225.08913 -0.0601,-0.1037 -0.75805,1.30895 L 80.5,139.80158 131.349,52 181.5,138.59633 Z"
         id="Combined-Shape-Copy-2"
         style="mix-blend-mode:multiply;fill:#4dba87;fill-opacity:0.21000001"
         inkscape:connector-curvature="0" />
      <polygon
         id="path18-copy-6"
         transform="matrix(1,0,0,-1,0,136.01333)"
         points="130.528,83.661331 100.30267,136.01333 52,136.01333 130.528,0 209.056,136.01333 160.75333,136.01333 "
         style="fill:#435466" />
      <svg
         width="305"
         height="279"
         viewBox="0 0 305 279"
         version="1.1"
         id="svg25">
        <title
           id="title12">vue-logo</title>
        <g
           id="atoms"
           style="fill:none;fill-rule:evenodd;stroke:none;stroke-width:1">
          <g
             id="vue-logo"
             style="fill-rule:nonzero">
            <polygon
               id="path14-copy-5"
               points="151.88,226.33733 121.65466,278.68933 21,278.68933 151.88,52 282.75999,278.68933 182.10533,278.68933 "
               style="fill:#435466" />
            <polygon
               id="path18-copy-7"
               points="151.528,226.66133 121.30267,279.01333 73,279.01333 151.528,143 230.056,279.01333 181.75333,279.01333 "
               style="fill:#bababa" />
            <polygon
               id="path14-copy"
               transform="matrix(1,0,0,-1,0,226.68933)"
               points="151.88,174.33733 121.65466,226.68933 21,226.68933 151.88,0 282.75999,226.68933 182.10533,226.68933 "
               style="fill:#4dba87" />
            <polygon
               id="path18-copy"
               transform="matrix(1,0,0,-1,0,136.01333)"
               points="151.528,83.661331 121.30267,136.01333 73,136.01333 151.528,6.0396132e-14 230.056,136.01333 181.75333,136.01333 "
               style="fill:#435466" />
            <polygon
               id="path18-copy-8"
               transform="matrix(1,0,0,-1,0,136.01333)"
               points="151.528,83.661331 121.30267,136.01333 73,136.01333 151.528,0 230.056,136.01333 181.75333,136.01333 "
               style="fill:#435466" />
            <path
               d="m 267.70975,127.21004 c -13.06758,11.12873 -29.34548,22.50458 -48.1251,33.64937 -13.8106,8.19593 -28.69105,16.03937 -44.24644,23.29297 -9.24734,4.3121 -18.50711,8.31039 -27.69222,11.96363 -4.7643,1.89493 -9.50315,3.69487 -14.20299,5.39542 C 103.83738,212.22363 76.249795,218.82 54.270569,220.46114 27.916695,222.42891 9.5315285,217.42807 2.9383581,203.28897 -0.76447864,195.34821 0.25464768,186.20688 5.0373929,176.55407 11.270047,163.97498 24.312785,149.76752 42.597651,135.18197 l 15.148703,11.0038 c -18.467468,14.18972 -31.30159,27.70615 -36.580198,38.35974 -2.570076,5.18707 -2.978817,8.85338 -1.914258,11.13633 2.379991,5.10391 14.098073,8.29127 33.67839,6.82926 20.179978,-1.50678 46.21614,-7.7322 74.388342,-17.92575 4.52205,-1.63622 9.0849,-3.36931 13.675,-5.19495 8.86202,-3.52474 17.80343,-7.38556 26.73746,-11.55156 15.02019,-7.00403 29.37352,-14.56963 42.66728,-22.45884 17.50133,-10.38619 32.82578,-21.13687 45.02654,-31.47428 C 255.14669,112.64818 255,111.34122 255,110 c 0,-9.94112 8.05887,-18 18,-18 9.94112,0 18,8.05888 18,18 0,9.94113 -8.05888,18 -18,18 -1.84105,0 -3.61755,-0.2764 -5.29025,-0.78996 z m 28.113,-30.913816 c -2.75598,-5.475815 -7.89441,-9.546579 -14.05422,-10.851198 2.97985,-5.071615 3.74431,-9.183511 2.73212,-13.450708 -1.80444,-7.607129 -17.94886,-11.389518 -36.07443,-7.858894 l 10.1228,-17.532872 c 24.15358,-1.161925 36.00868,4.367569 42.26517,17.784637 4.28752,9.194633 2.25679,20.078573 -4.99144,31.909032 z M 62.148209,120.96467 c 6.938303,-4.51264 16.283715,-10.30247 21.066661,-13.31138 l 8.925967,15.47626 c -3.308387,2.08128 -8.822694,5.54942 -14.095438,8.93609 z"
               id="Combined-Shape"
               inkscape:connector-curvature="0"
               style="fill:#bababa" />
            <path
               d="M 52.910858,116.44977 C 55.086382,115.51668 57.482853,115 60,115 c 9.941125,0 18,8.05888 18,18 0,9.94112 -8.058875,18 -18,18 -9.941125,0 -18,-8.05888 -18,-18 0,-0.68191 0.03792,-1.35496 0.111763,-2.01716 C 11.378449,106.05632 -3.7891017,82.090497 4.4660862,64.387189 10.722568,50.970121 20.874958,45.85564 45.028531,47.017565 l 10.033613,17.369624 c -23.229323,-3.109906 -32.077706,2.878895 -34.282518,7.607129 -2.208219,4.735542 2.03735,14.720706 14.011019,27.657821 5.002199,5.404691 11.09561,11.047721 18.120213,16.797631 z m 32.864363,23.37057 c 2.963475,1.8618 6.000799,3.71647 9.106682,5.55966 13.293767,7.88921 27.647097,15.45481 42.667287,22.45884 8.93402,4.166 17.87543,8.02682 26.73745,11.55156 4.5901,1.82564 9.15295,3.55873 13.675,5.19495 28.1722,10.19355 54.20837,16.41897 74.38834,17.92575 19.58032,1.46201 31.2984,-1.72535 33.67839,-6.82926 1.06456,-2.28295 0.65582,-5.94926 -1.91425,-11.13633 -5.30666,-10.71019 -18.24932,-24.31372 -36.87503,-38.58597 l 15.15437,-11.00791 c 18.43654,14.66628 31.58396,28.95714 37.84942,41.60244 4.78274,9.65281 5.80187,18.79414 2.09903,26.7349 -6.59317,14.1391 -24.97833,19.13994 -51.33221,17.17217 -21.97922,-1.64114 -49.56681,-8.23751 -79.17243,-18.94971 -4.69984,-1.70055 -9.43869,-3.50049 -14.20299,-5.39542 -9.18511,-3.65324 -18.44488,-7.65153 -27.69222,-11.96363 -15.55539,-7.2536 -30.435836,-15.09704 -44.246441,-23.29297 -3.680371,-2.18412 -7.264658,-4.37711 -10.747528,-6.57538 5.465697,-2.95451 9.506555,-8.20756 10.82713,-14.46369 z M 226.4056,132.22136 c -5.69873,-3.26079 -11.65577,-6.58957 -14.95123,-8.66271 l 8.95085,-15.47008 c 4.73355,2.97784 14.81304,8.44945 22.20729,12.81555 z"
               id="path20"
               inkscape:connector-curvature="0"
               style="fill:#dfdfdf" />
            <path
               d="m 152.90906,225.08913 -0.0601,-0.1037 -0.75805,1.30895 L 102,139.80158 152.849,52 203,138.59633 Z"
               id="Combined-Shape-Copy-3"
               style="mix-blend-mode:multiply;fill:#4dba87;fill-opacity:0.21000001"
               inkscape:connector-curvature="0" />
          </g>
        </g>
      </svg>
    </g>
  </g>
</svg>
