<?xml version="1.0" encoding="UTF-8" standalone="no"?>
<!-- Generator: Adobe Illustrator 22.1.0, SVG Export Plug-In . SVG Version: 6.00 Build 0)  -->

<svg
   xmlns:dc="http://purl.org/dc/elements/1.1/"
   xmlns:cc="http://creativecommons.org/ns#"
   xmlns:rdf="http://www.w3.org/1999/02/22-rdf-syntax-ns#"
   xmlns:svg="http://www.w3.org/2000/svg"
   xmlns="http://www.w3.org/2000/svg"
   xmlns:sodipodi="http://sodipodi.sourceforge.net/DTD/sodipodi-0.dtd"
   xmlns:inkscape="http://www.inkscape.org/namespaces/inkscape"
   version="1.1"
   x="0px"
   y="0px"
   viewBox="0 0 341.60001 341.60001"
   xml:space="preserve"
   id="svg143"
   sodipodi:docname="comfort.svg"
   width="341.60001"
   height="341.60001"
   inkscape:version="0.92.4 (5da689c313, 2019-01-14)"><metadata
   id="metadata149"><rdf:RDF><cc:Work
       rdf:about=""><dc:format>image/svg+xml</dc:format><dc:type
         rdf:resource="http://purl.org/dc/dcmitype/StillImage" /><dc:title></dc:title></cc:Work></rdf:RDF></metadata><defs
   id="defs147" /><sodipodi:namedview
   pagecolor="#ffffff"
   bordercolor="#666666"
   borderopacity="1"
   objecttolerance="10"
   gridtolerance="10"
   guidetolerance="10"
   inkscape:pageopacity="0"
   inkscape:pageshadow="2"
   inkscape:window-width="716"
   inkscape:window-height="480"
   id="namedview145"
   showgrid="false"
   fit-margin-top="0"
   fit-margin-left="0"
   fit-margin-right="0"
   fit-margin-bottom="0"
   inkscape:zoom="0.472"
   inkscape:cx="163.59999"
   inkscape:cy="146.40001"
   inkscape:window-x="0"
   inkscape:window-y="0"
   inkscape:window-maximized="0"
   inkscape:current-layer="svg143" />
<style
   type="text/css"
   id="style2">
	.st0{fill:none;stroke:#202020;stroke-width:5;stroke-miterlimit:10;}
	.st1{fill:none;stroke:#202020;stroke-width:6;stroke-linecap:round;stroke-linejoin:round;stroke-miterlimit:10;}
	.st2{fill:none;stroke:#202020;stroke-width:5;stroke-linecap:round;stroke-linejoin:round;stroke-miterlimit:10;}
	.st3{fill:none;stroke:#D2A56C;stroke-width:3;stroke-linecap:round;stroke-linejoin:round;stroke-miterlimit:10;}
	.st4{fill:none;stroke:#2B2B2B;stroke-width:6;stroke-miterlimit:10;}
	.st5{fill:none;stroke:#202020;stroke-width:6;stroke-miterlimit:10;}
	.st6{fill:none;stroke:#2B2B2B;stroke-width:4;stroke-miterlimit:10;}
	.st7{fill:none;stroke:#2B2B2B;stroke-width:4;stroke-linecap:round;stroke-linejoin:round;stroke-miterlimit:10;}
	.st8{fill:none;stroke:#2B2B2B;stroke-width:6;stroke-linecap:round;stroke-miterlimit:10;}
	.st9{fill:none;stroke:#2B2B2B;stroke-width:4;stroke-linecap:round;stroke-miterlimit:10;}
	.st10{fill:none;stroke:#2B2B2B;stroke-width:4;stroke-linejoin:round;stroke-miterlimit:10;}
	.st11{fill:none;stroke:#2B2B2B;stroke-width:6;stroke-linecap:round;stroke-linejoin:round;stroke-miterlimit:10;}
	.st12{fill:none;stroke:#D2A56C;stroke-width:8;stroke-linecap:round;stroke-linejoin:round;stroke-miterlimit:10;}
	.st13{fill:none;stroke:#252525;stroke-width:6;stroke-linecap:round;stroke-linejoin:round;stroke-miterlimit:10;}
	.st14{fill:none;stroke:#252525;stroke-width:4;stroke-linecap:round;stroke-linejoin:round;stroke-miterlimit:10;}
	.st15{fill:none;stroke:#2B2B2B;stroke-width:4;stroke-linecap:square;stroke-linejoin:round;stroke-miterlimit:10;}
	.st16{fill:none;stroke:#2B2B2B;stroke-width:6;stroke-linecap:square;stroke-linejoin:round;stroke-miterlimit:10;}
</style>
<g
   id="Слой_2"
   transform="translate(-86.400009,-54.800003)">
</g>
<g
   id="Слой_3"
   transform="translate(-86.400009,-54.800003)">
	<g
   id="g139">
		<line
   class="st3"
   x1="91.199997"
   y1="212.3"
   x2="189.39999"
   y2="258.70001"
   id="line5"
   style="fill:none;stroke:#d2a56c;stroke-width:3;stroke-linecap:round;stroke-linejoin:round;stroke-miterlimit:10" />
		<line
   class="st3"
   x1="423.10001"
   y1="210.5"
   x2="368.89999"
   y2="236.10001"
   id="line7"
   style="fill:none;stroke:#d2a56c;stroke-width:3;stroke-linecap:round;stroke-linejoin:round;stroke-miterlimit:10" />
		<line
   class="st3"
   x1="99.699997"
   y1="176.39999"
   x2="191.5"
   y2="219.89999"
   id="line9"
   style="fill:none;stroke:#d2a56c;stroke-width:3;stroke-linecap:round;stroke-linejoin:round;stroke-miterlimit:10" />
		<line
   class="st3"
   x1="414.79999"
   y1="174.60001"
   x2="318.20001"
   y2="220.3"
   id="line11"
   style="fill:none;stroke:#d2a56c;stroke-width:3;stroke-linecap:round;stroke-linejoin:round;stroke-miterlimit:10" />
		<line
   class="st3"
   x1="95.599998"
   y1="194.39999"
   x2="190.2"
   y2="239.10001"
   id="line13"
   style="fill:none;stroke:#d2a56c;stroke-width:3;stroke-linecap:round;stroke-linejoin:round;stroke-miterlimit:10" />
		<line
   class="st3"
   x1="419.20001"
   y1="192.39999"
   x2="328.89999"
   y2="235.10001"
   id="line15"
   style="fill:none;stroke:#d2a56c;stroke-width:3;stroke-linecap:round;stroke-linejoin:round;stroke-miterlimit:10" />
		<line
   class="st3"
   x1="105.2"
   y1="159.10001"
   x2="219.39999"
   y2="213.10001"
   id="line17"
   style="fill:none;stroke:#d2a56c;stroke-width:3;stroke-linecap:round;stroke-linejoin:round;stroke-miterlimit:10" />
		<line
   class="st3"
   x1="409.39999"
   y1="157.2"
   x2="318.89999"
   y2="200.10001"
   id="line19"
   style="fill:none;stroke:#d2a56c;stroke-width:3;stroke-linecap:round;stroke-linejoin:round;stroke-miterlimit:10" />
		<line
   class="st3"
   x1="114"
   y1="143.39999"
   x2="255.3"
   y2="210.2"
   id="line21"
   style="fill:none;stroke:#d2a56c;stroke-width:3;stroke-linecap:round;stroke-linejoin:round;stroke-miterlimit:10" />
		<line
   class="st3"
   x1="400.60001"
   y1="141.5"
   x2="255.3"
   y2="210.2"
   id="line23"
   style="fill:none;stroke:#d2a56c;stroke-width:3;stroke-linecap:round;stroke-linejoin:round;stroke-miterlimit:10" />
		<line
   class="st3"
   x1="123.5"
   y1="128"
   x2="233.5"
   y2="180"
   id="line25"
   style="fill:none;stroke:#d2a56c;stroke-width:3;stroke-linecap:round;stroke-linejoin:round;stroke-miterlimit:10" />
		<line
   class="st3"
   x1="390"
   y1="126.6"
   x2="278"
   y2="179.60001"
   id="line27"
   style="fill:none;stroke:#d2a56c;stroke-width:3;stroke-linecap:round;stroke-linejoin:round;stroke-miterlimit:10" />
		<line
   class="st3"
   x1="135.5"
   y1="112.2"
   x2="232.3"
   y2="158"
   id="line29"
   style="fill:none;stroke:#d2a56c;stroke-width:3;stroke-linecap:round;stroke-linejoin:round;stroke-miterlimit:10" />
		<line
   class="st3"
   x1="377.39999"
   y1="111.1"
   x2="277.70001"
   y2="158.3"
   id="line31"
   style="fill:none;stroke:#d2a56c;stroke-width:3;stroke-linecap:round;stroke-linejoin:round;stroke-miterlimit:10" />
		<line
   class="st3"
   x1="167.39999"
   y1="87.5"
   x2="248"
   y2="125.6"
   id="line33"
   style="fill:none;stroke:#d2a56c;stroke-width:3;stroke-linecap:round;stroke-linejoin:round;stroke-miterlimit:10" />
		<line
   class="st3"
   x1="346"
   y1="86.199997"
   x2="262.60001"
   y2="125.6"
   id="line35"
   style="fill:none;stroke:#d2a56c;stroke-width:3;stroke-linecap:round;stroke-linejoin:round;stroke-miterlimit:10" />
		<line
   class="st3"
   x1="149.39999"
   y1="98.800003"
   x2="238.89999"
   y2="141.2"
   id="line37"
   style="fill:none;stroke:#d2a56c;stroke-width:3;stroke-linecap:round;stroke-linejoin:round;stroke-miterlimit:10" />
		<g
   id="g43">
			<line
   class="st3"
   x1="185.60001"
   y1="76.099998"
   x2="255"
   y2="109"
   id="line39"
   style="fill:none;stroke:#d2a56c;stroke-width:3;stroke-linecap:round;stroke-linejoin:round;stroke-miterlimit:10" />
			<line
   class="st3"
   x1="326"
   y1="75.699997"
   x2="255.7"
   y2="109"
   id="line41"
   style="fill:none;stroke:#d2a56c;stroke-width:3;stroke-linecap:round;stroke-linejoin:round;stroke-miterlimit:10" />
		</g>
		<g
   id="g49">
			<line
   class="st3"
   x1="210.5"
   y1="68"
   x2="255"
   y2="89.099998"
   id="line45"
   style="fill:none;stroke:#d2a56c;stroke-width:3;stroke-linecap:round;stroke-linejoin:round;stroke-miterlimit:10" />
			<line
   class="st3"
   x1="303"
   y1="66.699997"
   x2="255.7"
   y2="89.099998"
   id="line47"
   style="fill:none;stroke:#d2a56c;stroke-width:3;stroke-linecap:round;stroke-linejoin:round;stroke-miterlimit:10" />
		</g>
		<g
   id="g55">
			<line
   class="st3"
   x1="239.10001"
   y1="61.700001"
   x2="254.8"
   y2="69.099998"
   id="line51"
   style="fill:none;stroke:#d2a56c;stroke-width:3;stroke-linecap:round;stroke-linejoin:round;stroke-miterlimit:10" />
			<line
   class="st3"
   x1="274"
   y1="60.400002"
   x2="255.5"
   y2="69.099998"
   id="line53"
   style="fill:none;stroke:#d2a56c;stroke-width:3;stroke-linecap:round;stroke-linejoin:round;stroke-miterlimit:10" />
		</g>
		<line
   class="st3"
   x1="362.39999"
   y1="98.300003"
   x2="271.60001"
   y2="141.3"
   id="line57"
   style="fill:none;stroke:#d2a56c;stroke-width:3;stroke-linecap:round;stroke-linejoin:round;stroke-miterlimit:10" />
		<path
   class="st14"
   d="m 191.4,288.5 v -34.8 -4.1 -5.6 -23 c 0,0 33,-10.2 63.7,-10.2 30.7,0 55,-9 62.3,-13.8 v 36.5"
   id="path59"
   inkscape:connector-curvature="0"
   style="fill:none;stroke:#252525;stroke-width:4;stroke-linecap:round;stroke-linejoin:round;stroke-miterlimit:10" />
		<line
   class="st14"
   x1="255.2"
   y1="181.39999"
   x2="255.2"
   y2="219.39999"
   id="line61"
   style="fill:none;stroke:#252525;stroke-width:4;stroke-linecap:round;stroke-linejoin:round;stroke-miterlimit:10" />
		<g
   id="g69">
			<path
   class="st14"
   d="m 278.7,170.2 c 0,12.9 -10.6,23.4 -23.7,23.4 -13.1,0 -23.7,-10.5 -23.7,-23.4"
   id="path63"
   inkscape:connector-curvature="0"
   style="fill:none;stroke:#252525;stroke-width:4;stroke-linecap:round;stroke-linejoin:round;stroke-miterlimit:10" />
			<path
   class="st14"
   d="m 254.7,118.5 c 0,0 -26.6,31.2 -22.8,56.3"
   id="path65"
   inkscape:connector-curvature="0"
   style="fill:none;stroke:#252525;stroke-width:4;stroke-linecap:round;stroke-linejoin:round;stroke-miterlimit:10" />
			<path
   class="st14"
   d="m 255.5,118.5 c 0,0 26.6,31.2 22.8,56.3"
   id="path67"
   inkscape:connector-curvature="0"
   style="fill:none;stroke:#252525;stroke-width:4;stroke-linecap:round;stroke-linejoin:round;stroke-miterlimit:10" />
		</g>
		<line
   class="st14"
   x1="211.8"
   y1="235.5"
   x2="211.8"
   y2="263.60001"
   id="line71"
   style="fill:none;stroke:#252525;stroke-width:4;stroke-linecap:round;stroke-linejoin:round;stroke-miterlimit:10" />
		<line
   class="st14"
   x1="211.8"
   y1="274.70001"
   x2="211.8"
   y2="279.20001"
   id="line73"
   style="fill:none;stroke:#252525;stroke-width:4;stroke-linecap:round;stroke-linejoin:round;stroke-miterlimit:10" />
		<g
   id="g81">
			<path
   class="st14"
   d="m 272,177 c 0,9.4 -7.7,17 -17.1,17 -9.4,0 -17.1,-7.6 -17.1,-17"
   id="path75"
   inkscape:connector-curvature="0"
   style="fill:none;stroke:#252525;stroke-width:4;stroke-linecap:round;stroke-linejoin:round;stroke-miterlimit:10" />
			<path
   class="st14"
   d="m 254.5,139.5 c 0,0 -19.3,22.7 -16.6,40.8"
   id="path77"
   inkscape:connector-curvature="0"
   style="fill:none;stroke:#252525;stroke-width:4;stroke-linecap:round;stroke-linejoin:round;stroke-miterlimit:10" />
			<path
   class="st14"
   d="m 255.1,139.5 c 0,0 19.3,22.7 16.6,40.8"
   id="path79"
   inkscape:connector-curvature="0"
   style="fill:none;stroke:#252525;stroke-width:4;stroke-linecap:round;stroke-linejoin:round;stroke-miterlimit:10" />
		</g>
		<path
   class="st9"
   d="m 245.2,219.5 c 0,0 8.8,3.8 20.4,0"
   id="path83"
   inkscape:connector-curvature="0"
   style="fill:none;stroke:#2b2b2b;stroke-width:4;stroke-linecap:round;stroke-miterlimit:10" />
		<path
   class="st9"
   d="m 205.7,232 c 0,0 12.7,7.1 31.7,8"
   id="path85"
   inkscape:connector-curvature="0"
   style="fill:none;stroke:#2b2b2b;stroke-width:4;stroke-linecap:round;stroke-miterlimit:10" />
		<path
   class="st9"
   d="m 294.7,236.3 h 71 c 15,0 27.2,12.3 27.2,27.2 v 0 c 0,15 -12.3,27.2 -27.2,27.2 h -71 c -15,0 -27.2,-12.3 -27.2,-27.2 v 0 c -0.1,-14.9 12.2,-27.2 27.2,-27.2 z"
   id="path87"
   inkscape:connector-curvature="0"
   style="fill:none;stroke:#2b2b2b;stroke-width:4;stroke-linecap:round;stroke-miterlimit:10" />
		<path
   class="st9"
   d="m 315.7,270.7 c -3.9,0 -7.1,-3.2 -7.1,-7.1 0,-3.9 3.2,-7.1 7.1,-7.1"
   id="path89"
   inkscape:connector-curvature="0"
   style="fill:none;stroke:#2b2b2b;stroke-width:4;stroke-linecap:round;stroke-miterlimit:10" />
		<line
   class="st9"
   x1="315.70001"
   y1="270.70001"
   x2="351.20001"
   y2="270.70001"
   id="line91"
   style="fill:none;stroke:#2b2b2b;stroke-width:4;stroke-linecap:round;stroke-miterlimit:10" />
		<line
   class="st9"
   x1="316.20001"
   y1="256.5"
   x2="336"
   y2="256.5"
   id="line93"
   style="fill:none;stroke:#2b2b2b;stroke-width:4;stroke-linecap:round;stroke-miterlimit:10" />
		<path
   class="st9"
   d="M 366.6,351 H 276 c -14.9,0 -27.1,-12 -27.1,-26.7 v -6.1 c 0,-14.7 12.2,-26.7 27.1,-26.7 h 95.7 c 13,0 24,9.2 26.5,21.3"
   id="path95"
   inkscape:connector-curvature="0"
   style="fill:none;stroke:#2b2b2b;stroke-width:4;stroke-linecap:round;stroke-miterlimit:10" />
		<path
   class="st9"
   d="m 290.5,333.8 c -6,0 -10.8,-4.7 -10.8,-10.5 0,-5.8 4.8,-10.5 10.8,-10.5"
   id="path97"
   inkscape:connector-curvature="0"
   style="fill:none;stroke:#2b2b2b;stroke-width:4;stroke-linecap:round;stroke-miterlimit:10" />
		<path
   class="st9"
   d="m 344.3,291.6 c 12.2,0 22,9.5 22,21.1 0,11.6 -9.9,21.1 -22,21.1"
   id="path99"
   inkscape:connector-curvature="0"
   style="fill:none;stroke:#2b2b2b;stroke-width:4;stroke-linecap:round;stroke-miterlimit:10" />
		<line
   class="st9"
   x1="290.5"
   y1="333.79999"
   x2="344.60001"
   y2="333.79999"
   id="line101"
   style="fill:none;stroke:#2b2b2b;stroke-width:4;stroke-linecap:round;stroke-miterlimit:10" />
		<line
   class="st9"
   x1="290.5"
   y1="312.79999"
   x2="308.70001"
   y2="312.79999"
   id="line103"
   style="fill:none;stroke:#2b2b2b;stroke-width:4;stroke-linecap:round;stroke-miterlimit:10" />
		<line
   class="st9"
   x1="319.20001"
   y1="312.79999"
   x2="322.89999"
   y2="312.79999"
   id="line105"
   style="fill:none;stroke:#2b2b2b;stroke-width:4;stroke-linecap:round;stroke-miterlimit:10" />
		<polyline
   class="st7"
   points="338.2,370.6 247.8,370.6 247.8,351 267.8,351 271.3,351   "
   id="polyline107"
   style="fill:none;stroke:#2b2b2b;stroke-width:4;stroke-linecap:round;stroke-linejoin:round;stroke-miterlimit:10" />
		<path
   class="st7"
   d="m 277.4,388.9 c 1.4,-5.7 4.5,-15.4 10,-17.9"
   id="path109"
   inkscape:connector-curvature="0"
   style="fill:none;stroke:#2b2b2b;stroke-width:4;stroke-linecap:round;stroke-linejoin:round;stroke-miterlimit:10" />
		<line
   class="st7"
   x1="258.39999"
   y1="371.89999"
   x2="258.39999"
   y2="390.29999"
   id="line111"
   style="fill:none;stroke:#2b2b2b;stroke-width:4;stroke-linecap:round;stroke-linejoin:round;stroke-miterlimit:10" />
		<g
   id="g117">
			<path
   class="st7"
   d="m 166.1,360.1 c -2.9,-12.3 1.9,-28.9 13.7,-43.1 13.7,-16.5 32.5,-24.7 46.4,-21.6"
   id="path113"
   inkscape:connector-curvature="0"
   style="fill:none;stroke:#2b2b2b;stroke-width:4;stroke-linecap:round;stroke-linejoin:round;stroke-miterlimit:10" />
			<path
   class="st7"
   d="m 226.5,295.5 c 6.3,12.5 2,32.2 -11.7,48.8 -6,7.2 -12.9,12.8 -20,16.6"
   id="path115"
   inkscape:connector-curvature="0"
   style="fill:none;stroke:#2b2b2b;stroke-width:4;stroke-linecap:round;stroke-linejoin:round;stroke-miterlimit:10" />
		</g>
		<g
   id="g123">
			<path
   class="st7"
   d="m 176,320.9 c -1,-1.3 -2,-2.7 -3.1,-4 -13.7,-16.5 -32.5,-24.7 -46.4,-21.6"
   id="path119"
   inkscape:connector-curvature="0"
   style="fill:none;stroke:#2b2b2b;stroke-width:4;stroke-linecap:round;stroke-linejoin:round;stroke-miterlimit:10" />
			<path
   class="st7"
   d="m 126.3,295.5 c -5.1,10 -3.3,24.7 4.7,38.7"
   id="path121"
   inkscape:connector-curvature="0"
   style="fill:none;stroke:#2b2b2b;stroke-width:4;stroke-linecap:round;stroke-linejoin:round;stroke-miterlimit:10" />
		</g>
		<g
   id="g129">
			<path
   class="st7"
   d="m 196.1,301 c -3.6,-13.4 -10.9,-23.9 -19.9,-28.6"
   id="path125"
   inkscape:connector-curvature="0"
   style="fill:none;stroke:#2b2b2b;stroke-width:4;stroke-linecap:round;stroke-linejoin:round;stroke-miterlimit:10" />
			<path
   class="st7"
   d="m 175.8,272.4 c -9.3,4 -16.8,14.1 -20.5,27.5"
   id="path127"
   inkscape:connector-curvature="0"
   style="fill:none;stroke:#2b2b2b;stroke-width:4;stroke-linecap:round;stroke-linejoin:round;stroke-miterlimit:10" />
		</g>
		<line
   class="st7"
   x1="162.89999"
   y1="361.5"
   x2="236.7"
   y2="361.5"
   id="line131"
   style="fill:none;stroke:#2b2b2b;stroke-width:4;stroke-linecap:round;stroke-linejoin:round;stroke-miterlimit:10" />
		<path
   class="st7"
   d="m 214.5,386.2 c 0,0 3,-20.8 11.4,-24.7"
   id="path133"
   inkscape:connector-curvature="0"
   style="fill:none;stroke:#2b2b2b;stroke-width:4;stroke-linecap:round;stroke-linejoin:round;stroke-miterlimit:10" />
		<circle
   class="st12"
   cx="257.20001"
   cy="225.60001"
   r="166.8"
   id="circle135"
   style="fill:none;stroke:#d2a56c;stroke-width:8;stroke-linecap:round;stroke-linejoin:round;stroke-miterlimit:10" />
		<path
   class="st9"
   d="m 360.1,236.3 c 9,0 16.4,7.6 16.4,16.9 0,9.3 -7.3,16.9 -16.4,16.9"
   id="path137"
   inkscape:connector-curvature="0"
   style="fill:none;stroke:#2b2b2b;stroke-width:4;stroke-linecap:round;stroke-miterlimit:10" />
	</g>
</g>
<g
   id="Слой_4"
   transform="translate(-86.400009,-54.800003)">
</g>
</svg>