<?xml version="1.0" encoding="UTF-8" standalone="no"?>
<!-- Generator: Adobe Illustrator 19.0.0, SVG Export Plug-In . SVG Version: 6.00 Build 0)  -->

<svg
   xmlns:dc="http://purl.org/dc/elements/1.1/"
   xmlns:cc="http://creativecommons.org/ns#"
   xmlns:rdf="http://www.w3.org/1999/02/22-rdf-syntax-ns#"
   xmlns:svg="http://www.w3.org/2000/svg"
   xmlns="http://www.w3.org/2000/svg"
   xmlns:sodipodi="http://sodipodi.sourceforge.net/DTD/sodipodi-0.dtd"
   xmlns:inkscape="http://www.inkscape.org/namespaces/inkscape"
   version="1.1"
   id="Layer_1"
   x="0px"
   y="0px"
   viewBox="0 0 384.93328 511.26854"
   xml:space="preserve"
   sodipodi:docname="flame.svg"
   width="384.93329"
   height="511.26855"
   inkscape:version="0.92.4 (5da689c313, 2019-01-14)"><metadata
   id="metadata41"><rdf:RDF><cc:Work
       rdf:about=""><dc:format>image/svg+xml</dc:format><dc:type
         rdf:resource="http://purl.org/dc/dcmitype/StillImage" /><dc:title /></cc:Work></rdf:RDF></metadata><defs
   id="defs39" /><sodipodi:namedview
   pagecolor="#ffffff"
   bordercolor="#666666"
   borderopacity="1"
   objecttolerance="10"
   gridtolerance="10"
   guidetolerance="10"
   inkscape:pageopacity="0"
   inkscape:pageshadow="2"
   inkscape:window-width="1920"
   inkscape:window-height="1027"
   id="namedview37"
   showgrid="false"
   fit-margin-top="0"
   fit-margin-left="0"
   fit-margin-right="0"
   fit-margin-bottom="0"
   inkscape:zoom="0.46159694"
   inkscape:cx="-863.64993"
   inkscape:cy="255.63383"
   inkscape:window-x="-8"
   inkscape:window-y="-8"
   inkscape:window-maximized="1"
   inkscape:current-layer="Layer_1" />
<path
   style="fill:#ffffff;fill-opacity:1"
   d="m 77.198923,465.067 c -23.467,-26.667 -46.933,-54.4 -61.867,-87.467 C 0.39892349,342.4 -3.8680765,301.867 3.5989235,263.467 11.065923,225.067 28.131923,188.8 52.665923,157.867 c -2.133,26.667 7.467,54.4 25.6,74.667 -10.667,-51.2 6.4,-106.667 40.532997,-147.2 34.133,-40.533 81.067,-67.201 130.133,-85.334 -24.533,25.6 -27.733,66.133 -18.133,100.267 9.6,34.133 29.867,64 48,94.933 18.133,30.933 35.2,62.933 36.267,98.133 9.6,-18.133 20.267,-36.267 26.667,-56.533 6.4,-20.267 9.6,-41.6 4.267,-61.867 19.2,23.467 29.867,46.933 35.2,76.8 5.333,29.867 4.267,60.8 1.067,90.667 -4.267,33.067 -12.8,67.2 -30.933,94.933 -21.333,33.067 -55.467,56.533 -92.8,69.333 -66.135,11.734 -131.202,2.134 -181.334997,-41.599 z"
   id="path2"
   inkscape:connector-curvature="0" />
<path
   style="fill:#ffffff;fill-opacity:0"
   d="m 158.26592,504.533 c 87.466,34.134 173.866,-69.333 125.866,-149.333 0,-1.067 -1.067,-1.067 -1.067,-2.133 4.267,43.733 -6.4,75.733 -26.667,93.867 10.667,-25.6 3.2,-55.467 -9.6,-81.067 -12.8,-24.533 -30.933,-46.933 -44.8,-70.4 -13.867,-24.533 -24.533,-52.267 -18.133,-80 -25.6,19.2 -43.733,48 -51.2,78.933 -7.467,30.933 -3.2,65.067 10.667,93.867 -16,-11.733 -27.733,-30.933 -28.8,-51.2 -17.066997,20.267 -27.732997,46.933 -26.666997,73.6 10e-4,41.6 33.066997,78.933 70.400997,93.866 z"
   id="path4"
   inkscape:connector-curvature="0" />
<g
   id="g6"
   transform="translate(-63.168077)">
</g>
<g
   id="g8"
   transform="translate(-63.168077)">
</g>
<g
   id="g10"
   transform="translate(-63.168077)">
</g>
<g
   id="g12"
   transform="translate(-63.168077)">
</g>
<g
   id="g14"
   transform="translate(-63.168077)">
</g>
<g
   id="g16"
   transform="translate(-63.168077)">
</g>
<g
   id="g18"
   transform="translate(-63.168077)">
</g>
<g
   id="g20"
   transform="translate(-63.168077)">
</g>
<g
   id="g22"
   transform="translate(-63.168077)">
</g>
<g
   id="g24"
   transform="translate(-63.168077)">
</g>
<g
   id="g26"
   transform="translate(-63.168077)">
</g>
<g
   id="g28"
   transform="translate(-63.168077)">
</g>
<g
   id="g30"
   transform="translate(-63.168077)">
</g>
<g
   id="g32"
   transform="translate(-63.168077)">
</g>
<g
   id="g34"
   transform="translate(-63.168077)">
</g>
</svg>