<?xml version="1.0" encoding="utf-8"?>
<svg xmlns="http://www.w3.org/2000/svg"
	xmlns:xlink="http://www.w3.org/1999/xlink"
	width="114px" height="114px" viewBox="0 0 114 114">
<path fillRule="evenodd" d="M 44 38C 44 38 44 76 44 76 44 76 78 57 78 57 78 57 44 38 44 38Z" fill="rgb(229,47,37)"/><path fillRule="evenodd" d="M 57 4C 57 4 57 8 57 8 84.06 8.05 105.95 29.94 106 57 105.95 84.06 84.06 105.95 57 106 29.94 105.95 8.05 84.06 8 57 8.05 29.94 29.94 8.05 57 8 57 8 57 4 57 4 57 4 57-0 57-0 25.52 0 0 25.52 0 57 0 88.48 25.52 114 57 114 88.48 114 114 88.48 114 57 114 25.52 88.48 0 57-0 57-0 57 4 57 4 57 4 57 4 57 4Z" fill="rgb(229,47,37)"/></svg>