<?xml version="1.0" encoding="utf-8"?>
<svg xmlns="http://www.w3.org/2000/svg"
	xmlns:xlink="http://www.w3.org/1999/xlink"
	width="71px" height="50px" viewBox="0 0 71 50">
<path fillRule="evenodd" d="M 64.35-0.01C 64.35-0.01 6.64-0.01 6.64-0.01 2.98-0.01-0.01 2.98-0.01 6.64-0.01 6.64-0.01 43.36-0.01 43.36-0.01 47.03 2.98 50.01 6.64 50.01 6.64 50.01 64.35 50.01 64.35 50.01 68.02 50.01 71.01 47.03 71.01 43.36 71.01 43.36 71.01 6.64 71.01 6.64 71.01 2.98 68.02-0.01 64.35-0.01ZM 5.08 5.09C 5.08 5.09 23.45 22.82 23.45 22.82 23.45 22.82 4.43 35.43 4.43 35.43 4.43 35.43 4.43 6.64 4.43 6.64 4.43 6.04 4.68 5.49 5.08 5.09ZM 10.8 4.43C 10.8 4.43 60.21 4.43 60.21 4.43 60.21 4.43 38.23 25.62 38.23 25.62 36.69 27.1 34.29 27.1 32.75 25.62 32.75 25.62 10.8 4.43 10.8 4.43ZM 65.92 5.08C 66.32 5.48 66.57 6.04 66.57 6.64 66.57 6.64 66.57 35.55 66.57 35.55 66.57 35.55 47.45 22.9 47.45 22.9 47.45 22.9 65.92 5.08 65.92 5.08ZM 64.35 45.58C 64.35 45.58 6.64 45.58 6.64 45.58 5.43 45.58 4.43 44.58 4.43 43.36 4.43 43.36 4.43 40.76 4.43 40.76 4.43 40.76 26.73 25.99 26.73 25.99 26.73 25.99 29.67 28.82 29.67 28.82 31.31 30.39 33.4 31.17 35.5 31.17 37.59 31.17 39.69 30.39 41.32 28.82 41.32 28.82 44.18 26.06 44.18 26.06 44.18 26.06 66.57 40.88 66.57 40.88 66.57 40.88 66.57 43.36 66.57 43.36 66.57 44.58 65.57 45.58 64.35 45.58Z" fill="rgb(255,255,255)"/></svg>