<?xml version="1.0" encoding="utf-8"?>
<svg xmlns="http://www.w3.org/2000/svg"
	xmlns:xlink="http://www.w3.org/1999/xlink"
	width="59px" height="103px" viewBox="0 0 59 103">
<path fillRule="evenodd" d="M 51.66 37.16C 54.84 34.18 56.83 29.95 56.83 25.25 56.83 16.26 49.52 8.94 40.53 8.94 32.45 8.94 25.73 14.85 24.45 22.57 24.45 22.57 18.66 10.82 18.66 10.82 14.35 0.85 10.26-2.63 3.34 2.04 0.24 4.14-0.81 8.3 0.68 11.87 0.68 11.87 13.72 43.26 13.72 43.26 14.24 44.53 14.51 45.86 14.51 47.23 14.51 47.23 14.54 95.85 14.54 95.85 14.54 99.79 17.74 103 21.68 103 25.62 103 28.82 99.79 28.82 95.85 28.82 95.85 28.82 77.34 28.82 77.34 28.82 75.95 29.95 74.83 31.33 74.83 32.72 74.83 33.84 75.95 33.84 77.34 33.84 77.34 33.84 95.85 33.84 95.85 33.84 99.79 37.05 103 40.98 103 44.92 103 48.13 99.79 48.13 95.85 48.13 95.85 48.09 70.9 48.09 70.9 49.2 71.65 50.54 72.09 51.98 72.09 53.86 72.09 55.62 71.35 56.94 70.03 58.26 68.71 59 66.94 59 65.07 59 65.07 59 52.83 59 52.83 59 46.72 56.33 41.05 51.66 37.16 51.66 37.16 51.66 37.16 51.66 37.16ZM 40.53 12.05C 47.81 12.05 53.73 17.97 53.73 25.25 53.73 32.53 47.81 38.46 40.53 38.46 33.26 38.46 27.34 32.53 27.34 25.25 27.34 17.97 33.26 12.05 40.53 12.05 40.53 12.05 40.53 12.05 40.53 12.05ZM 14.96 10.33C 14.96 10.33 26.09 32.84 26.41 33.39 29.23 38.28 34.5 41.57 40.53 41.57 43.69 41.57 46.63 40.66 49.13 39.1 49.16 39.13 49.19 39.16 49.23 39.19 53.46 42.49 55.89 47.46 55.89 52.83 55.89 52.83 55.89 65.07 55.89 65.07 55.89 65.07 55.89 65.07 55.89 65.07 55.89 66.11 55.48 67.09 54.74 67.83 54.01 68.57 53.03 68.98 51.98 68.98 49.83 68.98 48.08 67.22 48.08 65.07 48.08 65.07 48.08 49.79 48.08 49.79 48.08 48.93 47.38 48.23 46.52 48.23 45.66 48.23 44.97 48.93 44.97 49.79 44.97 49.79 44.97 95.85 44.97 95.85 44.97 98.08 43.21 99.89 40.98 99.89 38.76 99.89 36.95 98.08 36.95 95.85 36.95 95.85 36.95 77.34 36.95 77.34 36.95 74.24 34.43 71.72 31.33 71.72 28.24 71.72 25.72 74.24 25.72 77.34 25.72 77.34 25.72 95.85 25.72 95.85 25.72 98.08 23.91 99.89 21.68 99.89 19.46 99.89 17.65 98.08 17.65 95.85 17.65 95.85 17.62 47.23 17.62 47.23 17.62 45.45 17.27 43.71 16.59 42.07 16.59 42.07 3.54 10.68 3.54 10.68 2.51 8.19 3.52 5.36 5.89 4.09 6.66 3.68 7.48 3.47 8.34 3.47 10.33 3.47 12.18 4.64 13.05 6.46 13.05 6.46 13.58 7.54 13.58 7.54 13.58 7.54 14.96 10.33 14.96 10.33Z" fill="rgb(255,255,255)"/></svg>