<?xml version="1.0" encoding="utf-8"?>
<svg xmlns="http://www.w3.org/2000/svg"
	xmlns:xlink="http://www.w3.org/1999/xlink"
	width="47px" height="32px" viewBox="0 0 47 32">
<path fillRule="evenodd" d="M 46.31 14.47C 46.31 14.47 32.34 0.63 32.34 0.63 31.49-0.22 30.11-0.22 29.25 0.63 28.4 1.47 28.4 2.84 29.25 3.69 29.25 3.69 39.5 13.83 39.5 13.83 39.5 13.83 2.18 13.83 2.18 13.83 0.98 13.83-0 14.8-0 16-0 17.19 0.98 18.16 2.18 18.16 2.18 18.16 39.5 18.16 39.5 18.16 39.5 18.16 29.25 28.31 29.25 28.31 28.4 29.15 28.4 30.52 29.25 31.37 29.68 31.79 30.24 32 30.8 32 31.36 32 31.92 31.79 32.34 31.37 32.34 31.37 46.31 17.53 46.31 17.53 47.17 16.68 47.17 15.31 46.31 14.47 46.31 14.47 46.31 14.47 46.31 14.47Z" fill="rgb(255,255,255)"/></svg>