<svg xmlns="http://www.w3.org/2000/svg" xmlns:xlink="http://www.w3.org/1999/xlink" width="101px" height="88px" viewBox="0 0 101 88">
    <path fill="#fff" fillRule="evenodd" d="M 92.59 71.37C 92.59 71.37 65.47 71.37 65.47 71.37 65.47 71.37 70.53 82.49 70.53 82.49 70.8 83.01 70.96 83.6 70.96 84.23 70.96 86.31 69.26 88 67.17 88 67.17 88 67.17 88 67.16 88 67.16 88 33.84 88 33.84 88 32.55 88 31.35 87.35 30.65 86.27 29.95 85.2 29.85 83.84 30.39 82.67 30.39 82.67 35.53 71.37 35.53 71.37 35.53 71.37 8.41 71.37 8.41 71.37 3.77 71.37-0 67.61-0 63-0 63-0 8.38-0 8.38-0 3.76 3.77 0 8.41 0 8.41 0 92.59 0 92.59 0 97.23 0 101 3.76 101 8.38 101 8.38 101 63 101 63 101 67.61 97.23 71.37 92.59 71.37ZM 93.42 8.38C 93.42 7.92 93.05 7.54 92.59 7.54 92.59 7.54 8.41 7.54 8.41 7.54 7.95 7.54 7.57 7.92 7.57 8.38 7.57 8.38 7.57 63 7.57 63 7.57 63.45 7.95 63.83 8.41 63.83 8.41 63.83 92.59 63.83 92.59 63.83 93.05 63.83 93.42 63.45 93.42 63 93.42 63 93.42 8.38 93.42 8.38ZM 80.9 27.67C 79.85 27.55 78.87 27.22 78 26.73 78 26.73 60.54 39.41 60.54 39.41 60.54 39.7 60.53 39.99 60.5 40.29 60.03 44.45 56.24 47.46 52.06 46.99 48.32 46.57 45.51 43.51 45.3 39.88 45.3 39.88 24.61 32.48 24.61 32.48 23.03 34.04 20.77 34.9 18.39 34.64 14.21 34.17 11.19 30.4 11.66 26.24 12.13 22.07 15.92 19.07 20.1 19.54 24.28 20.01 27.3 23.77 26.83 27.94 26.83 27.98 26.82 28.02 26.81 28.06 26.81 28.06 46.61 35.15 46.61 35.15 48.16 32.91 50.87 31.56 53.77 31.88 55.81 32.12 57.58 33.14 58.8 34.61 58.8 34.61 74.72 23.05 74.72 23.05 74.23 21.89 74.02 20.6 74.17 19.27 74.64 15.1 78.43 12.1 82.61 12.57 86.79 13.03 89.81 16.8 89.34 20.97 88.87 25.13 85.08 28.14 80.9 27.67ZM 19.55 24.41C 18.07 24.24 16.72 25.31 16.56 26.78 16.39 28.26 17.46 29.6 18.94 29.77 20.43 29.93 21.77 28.87 21.94 27.39 22.1 25.91 21.03 24.58 19.55 24.41ZM 53.22 36.76C 51.73 36.59 50.39 37.66 50.22 39.13 50.05 40.61 51.13 41.95 52.61 42.11 54.09 42.28 55.44 41.22 55.6 39.74 55.77 38.26 54.7 36.92 53.22 36.76ZM 82.06 17.44C 80.57 17.27 79.23 18.34 79.06 19.81 78.9 21.29 79.97 22.63 81.45 22.79 82.93 22.96 84.28 21.89 84.44 20.42 84.61 18.94 83.54 17.6 82.06 17.44ZM 18.12 38.71C 18.49 38.75 18.87 38.77 19.25 38.77 19.25 38.77 19.25 38.77 19.25 38.77 21.38 38.77 23.4 38.11 25.11 36.9 25.11 36.9 43.08 43.33 43.08 43.33 44.02 47.43 47.46 50.57 51.78 51.06 52.16 51.1 52.54 51.12 52.92 51.12 58.01 51.12 62.28 47.36 62.92 42.35 62.92 42.35 78.28 31.19 78.28 31.19 79.03 31.46 79.82 31.65 80.62 31.74 81 31.78 81.38 31.8 81.76 31.8 84.79 31.8 87.53 30.47 89.38 28.33 89.38 28.33 89.38 60.02 89.38 60.02 89.38 60.02 11.61 60.02 11.61 60.02 11.61 60.02 11.61 35.29 11.61 35.29 13.22 37.14 15.49 38.41 18.12 38.71Z" />
</svg>
