<svg xmlns="http://www.w3.org/2000/svg" xmlns:xlink="http://www.w3.org/1999/xlink" width="106px" height="106px" viewBox="0 0 106 106">
    <path fill="#fff" fillRule="evenodd" d="M 53 106C 23.73 106 0 82.27 0 53 0 23.73 23.73-0 53-0 82.27-0 106 23.73 106 53 106 82.27 82.27 106 53 106ZM 53 8.28C 28.3 8.28 8.28 28.3 8.28 53 8.28 77.7 28.3 97.72 53 97.72 77.7 97.72 97.72 77.7 97.72 53 97.72 28.3 77.7 8.28 53 8.28ZM 53 69.56C 43.85 69.56 36.44 62.15 36.44 53 36.44 43.85 43.85 36.44 53 36.44 62.15 36.44 69.56 43.85 69.56 53 69.56 62.15 62.15 69.56 53 69.56Z" />
</svg>
