<svg xmlns="http://www.w3.org/2000/svg" xmlns:xlink="http://www.w3.org/1999/xlink" width="89px" height="88px" viewBox="0 0 89 88">
    <path fill="#fff" fillRule="evenodd" d="M 70.84 23.78C 70.84 23.78 56.32 38.13 56.32 38.13 56.32 38.13 50.43 32.31 50.43 32.31 50.43 32.31 64.95 17.95 64.95 17.95 64.95 17.95 71.11 6.18 71.11 6.18 71.11 6.18 83.19 0.01 83.19 0.01 83.19 0.01 88.99 5.75 88.99 5.75 88.99 5.75 82.75 17.69 82.75 17.69 82.75 17.69 70.84 23.78 70.84 23.78ZM 66.55 56.02C 68.37 55.35 70.3 54.95 72.33 54.95 72.33 54.95 73.44 55.06 73.44 55.06 82.13 55.65 88.99 62.7 88.99 71.41 88.99 73.97 88.37 76.35 87.34 78.5 87.34 78.5 76.24 67.55 76.24 67.55 75.67 66.96 74.96 66.59 74.26 66.32 73.64 66.08 72.98 65.95 72.33 65.95 70.89 65.95 69.48 66.48 68.4 67.55 66.79 69.11 66.41 71.39 67.12 73.35 67.42 74.04 67.8 74.74 68.4 75.31 68.4 75.31 79.47 86.25 79.47 86.25 77.3 87.3 74.88 87.92 72.33 87.92 63.49 87.92 56.35 81.1 55.75 72.54 55.75 72.54 55.64 71.41 55.64 71.41 55.64 69.4 56.08 67.5 56.73 65.73 56.73 65.73 22.51 31.91 22.51 31.91 20.71 32.55 18.79 32.98 16.76 32.98 16.76 32.98 15.62 32.87 15.62 32.87 6.96 32.28 0.07 25.23 0.07 16.48 0.07 13.96 0.69 11.57 1.75 9.42 1.75 9.42 12.82 20.37 12.82 20.37 13.39 20.96 14.09 21.33 14.83 21.61 15.43 21.85 16.07 21.98 16.76 21.98 18.17 21.98 19.58 21.44 20.67 20.37 22.26 18.81 22.65 16.53 21.91 14.57 21.67 13.88 21.26 13.18 20.67 12.62 20.67 12.62 9.59 1.64 9.59 1.64 11.76 0.63 14.18 0.01 16.76 0.01 25.58 0.01 32.71 6.79 33.31 15.38 33.31 15.38 33.41 16.48 33.41 16.48 33.41 18.49 33.01 20.4 32.33 22.19 32.33 22.19 66.55 56.02 66.55 56.02ZM 29.81 46.87C 29.81 46.87 41.58 58.52 41.58 58.52 41.58 58.52 14.23 85.58 14.23 85.58 12.6 87.19 10.46 87.99 8.31 87.99 6.2 87.99 4.06 87.19 2.43 85.58-0.83 82.36-0.83 77.15 2.43 73.94 2.43 73.94 29.81 46.87 29.81 46.87Z" />
</svg>
