<?xml version="1.0" encoding="utf-8"?>
<svg xmlns="http://www.w3.org/2000/svg"
	xmlns:xlink="http://www.w3.org/1999/xlink"
	width="99px" height="91px" viewBox="0 0 99 91">
<path fillRule="evenodd" d="M 18.11 91C 15.03 91 12.18 89.01 11.23 85.93 11.23 85.93 0.33 50.36 0.33 50.36-0.82 46.59 1.32 42.58 5.11 41.43 5.11 41.43 21.77 36.37 21.77 36.37 21.77 36.37 21.77 6.7 21.77 6.7 21.77 3 24.8-0.01 28.52-0.01 28.52-0.01 92.26-0.01 92.26-0.01 95.97-0.01 99 3 99 6.7 99 6.7 99 44.76 99 44.76 99 48.47 95.97 51.48 92.26 51.48 92.26 51.48 81.42 51.48 81.42 51.48 81.42 51.48 85.1 63.49 85.1 63.49 85.66 65.32 85.47 67.26 84.57 68.94 83.67 70.63 82.16 71.87 80.32 72.42 80.32 72.42 20.2 90.69 20.2 90.69 19.51 90.9 18.8 91 18.11 91 18.11 91 18.11 91 18.11 91ZM 7.28 63.4C 7.28 63.4 13.93 85.11 13.93 85.11 14.64 87.4 17.08 88.7 19.38 88 19.38 88 79.5 69.73 79.5 69.73 81.8 69.03 83.1 66.6 82.4 64.31 82.4 64.31 78.54 51.74 78.54 51.74 78.54 51.74 69.85 51.74 69.85 51.74 69.85 51.74 71.21 56.14 71.21 56.14 71.32 56.5 71.28 56.88 71.1 57.21 70.93 57.54 70.63 57.79 70.27 57.9 70.27 57.9 19.91 73.26 19.91 73.26 19.16 73.49 18.37 73.07 18.15 72.33 18.15 72.33 16.54 67.1 16.54 67.1 16.43 66.75 16.46 66.36 16.64 66.03 16.81 65.7 17.11 65.46 17.47 65.35 17.47 65.35 62.08 51.73 62.08 51.73 62.08 51.73 45.48 51.73 45.48 51.73 45.48 51.73 7.28 63.4 7.28 63.4ZM 19.65 67.62C 19.65 67.62 20.43 70.16 20.43 70.16 20.43 70.16 68.09 55.62 68.09 55.62 68.09 55.62 67.31 53.08 67.31 53.08 67.31 53.08 19.65 67.62 19.65 67.62ZM 3.71 51.72C 3.71 51.72 6.46 60.71 6.46 60.71 6.46 60.71 35.85 51.73 35.85 51.73 35.85 51.73 28.96 51.73 28.96 51.73 26.97 51.73 25.16 50.92 23.86 49.62 22.91 48.71 22.22 47.53 21.93 46.2 21.93 46.2 3.71 51.72 3.71 51.72ZM 21.77 39.31C 21.77 39.31 5.94 44.12 5.94 44.12 3.81 44.77 2.54 46.9 2.91 49.02 2.91 49.02 21.77 43.31 21.77 43.31 21.77 43.31 21.77 39.31 21.77 39.31ZM 25.84 47.61C 26.54 48.27 27.48 48.67 28.52 48.67 28.52 48.67 92.26 48.67 92.26 48.67 94.42 48.67 96.18 46.92 96.18 44.76 96.18 44.76 96.18 6.7 96.18 6.7 96.18 4.55 94.42 2.8 92.26 2.8 92.26 2.8 28.52 2.8 28.52 2.8 26.36 2.8 24.6 4.55 24.6 6.7 24.6 6.7 24.6 44.32 24.6 44.32 24.6 44.34 24.6 44.36 24.6 44.38 24.6 44.38 24.6 44.58 24.6 44.58 24.6 45.76 25.07 46.83 25.84 47.61 25.84 47.61 25.84 47.61 25.84 47.61ZM 90.67 37.16C 90.67 37.16 80.78 37.16 80.78 37.16 80 37.16 79.37 36.54 79.37 35.76 79.37 34.98 80 34.35 80.78 34.35 80.78 34.35 90.67 34.35 90.67 34.35 91.45 34.35 92.08 34.98 92.08 35.76 92.08 36.54 91.45 37.16 90.67 37.16 90.67 37.16 90.67 37.16 90.67 37.16ZM 73.88 37.16C 73.88 37.16 63.99 37.16 63.99 37.16 63.21 37.16 62.58 36.54 62.58 35.76 62.58 34.98 63.21 34.35 63.99 34.35 63.99 34.35 73.88 34.35 73.88 34.35 74.66 34.35 75.29 34.98 75.29 35.76 75.29 36.54 74.66 37.16 73.88 37.16 73.88 37.16 73.88 37.16 73.88 37.16ZM 57.09 37.16C 57.09 37.16 47.21 37.16 47.21 37.16 46.43 37.16 45.79 36.54 45.79 35.76 45.79 34.98 46.43 34.35 47.21 34.35 47.21 34.35 57.09 34.35 57.09 34.35 57.87 34.35 58.5 34.98 58.5 35.76 58.5 36.54 57.87 37.16 57.09 37.16 57.09 37.16 57.09 37.16 57.09 37.16ZM 40.3 37.16C 40.3 37.16 30.42 37.16 30.42 37.16 29.64 37.16 29.01 36.54 29.01 35.76 29.01 34.98 29.64 34.35 30.42 34.35 30.42 34.35 40.3 34.35 40.3 34.35 41.08 34.35 41.72 34.98 41.72 35.76 41.72 36.54 41.08 37.16 40.3 37.16 40.3 37.16 40.3 37.16 40.3 37.16ZM 37.96 27.14C 37.96 27.14 32.76 27.14 32.76 27.14 30.69 27.14 29.01 25.46 29.01 23.4 29.01 23.4 29.01 19.16 29.01 19.16 29.01 17.1 30.69 15.42 32.76 15.42 32.76 15.42 37.96 15.42 37.96 15.42 40.03 15.42 41.72 17.1 41.72 19.16 41.72 19.16 41.72 23.4 41.72 23.4 41.72 25.46 40.03 27.14 37.96 27.14 37.96 27.14 37.96 27.14 37.96 27.14ZM 32.76 18.24C 32.25 18.24 31.83 18.65 31.83 19.16 31.83 19.16 31.83 23.4 31.83 23.4 31.83 23.91 32.25 24.33 32.76 24.33 32.76 24.33 37.96 24.33 37.96 24.33 38.47 24.33 38.89 23.91 38.89 23.4 38.89 23.4 38.89 19.16 38.89 19.16 38.89 18.65 38.47 18.24 37.96 18.24 37.96 18.24 32.76 18.24 32.76 18.24Z" fill="rgb(255,255,255)"/></svg>