<?xml version="1.0" encoding="utf-8"?>
<svg xmlns="http://www.w3.org/2000/svg"
	xmlns:xlink="http://www.w3.org/1999/xlink"
	width="91px" height="99px" viewBox="0 0 91 99">
<path fillRule="evenodd" d="M 51.28 37.76C 51.28 37.76 12.85 37.76 12.85 37.76 11.95 37.76 11.24 37.03 11.24 36.15 11.24 35.25 11.95 34.53 12.85 34.53 12.85 34.53 51.28 34.53 51.28 34.53 52.16 34.53 52.88 35.25 52.88 36.15 52.88 37.03 52.16 37.76 51.28 37.76 51.28 37.76 51.28 37.76 51.28 37.76ZM 34.29 50.64C 34.29 49.76 33.57 49.03 32.68 49.03 32.68 49.03 12.85 49.03 12.85 49.03 11.95 49.03 11.24 49.76 11.24 50.64 11.24 51.52 11.95 52.24 12.85 52.24 12.85 52.24 32.68 52.24 32.68 52.24 33.58 52.24 34.29 51.52 34.29 50.64 34.29 50.64 34.29 50.64 34.29 50.64ZM 12.85 63.52C 11.95 63.52 11.24 64.25 11.24 65.12 11.24 66.01 11.95 66.73 12.85 66.73 12.85 66.73 23.02 66.73 23.02 66.73 23.9 66.73 24.62 66.01 24.62 65.12 24.62 64.25 23.9 63.52 23.02 63.52 23.02 63.52 12.85 63.52 12.85 63.52ZM 91.01 76.95C 91.01 77.84 90.29 78.56 89.39 78.56 89.39 78.56 76.21 78.56 76.21 78.56 75.65 78.56 75.11 78.26 74.83 77.77 74.83 77.77 73.26 75.15 73.26 75.15 73.26 75.15 69.21 81.39 69.21 81.39 68.91 81.86 68.39 82.13 67.86 82.13 67.79 82.13 67.73 82.13 67.68 82.11 67.07 82.05 66.55 81.64 66.34 81.07 66.34 81.07 62.38 70.36 62.38 70.36 62.38 70.36 59.71 77.5 59.71 77.5 59.48 78.15 58.88 78.56 58.2 78.56 58.2 78.56 50.47 78.56 50.47 78.56 49.59 78.56 48.87 77.84 48.87 76.95 48.87 76.06 49.59 75.33 50.47 75.33 50.47 75.33 57.07 75.33 57.07 75.33 57.07 75.33 60.87 65.17 60.87 65.17 61.1 64.54 61.7 64.13 62.38 64.13 63.06 64.13 63.65 64.54 63.89 65.19 63.89 65.19 68.25 76.95 68.25 76.95 68.25 76.95 71.96 71.23 71.96 71.23 72.26 70.77 72.74 70.46 73.33 70.5 73.9 70.5 74.4 70.8 74.7 71.28 74.7 71.28 77.13 75.33 77.13 75.33 77.13 75.33 84.59 75.33 84.59 75.33 85.25 74.14 85.75 72.99 85.99 71.95 86.45 70.52 86.67 69.2 86.67 67.88 86.67 63.22 84.12 58.93 80.04 56.68 78.17 55.64 76.02 55.09 73.88 55.09 70.06 55.09 66.47 56.77 64.03 59.72 63.72 60.09 63.26 60.3 62.79 60.3 62.31 60.3 61.84 60.09 61.54 59.72 57.72 55.09 50.8 53.79 45.53 56.68 41.45 58.93 38.92 63.22 38.92 67.88 38.92 69.22 39.14 70.54 39.55 71.81 41.63 81.07 58.74 92.81 62.79 95.48 65.45 93.72 73.73 88.07 79.71 81.77 80.32 81.12 81.35 81.11 81.98 81.7 82.64 82.32 82.65 83.34 82.05 83.98 74.59 91.85 64.09 98.48 63.65 98.75 63.39 98.93 63.08 99 62.79 99 62.49 99 62.19 98.93 61.94 98.75 60.99 98.17 39.05 84.27 36.45 72.66 35.96 71.21 35.71 69.55 35.71 67.88 35.71 62.06 38.87 56.7 43.97 53.86 49.29 50.95 56.03 51.44 60.9 54.79 60.9 54.79 60.9 17.95 60.9 17.95 60.9 17.95 48.9 17.95 48.9 17.95 48.9 17.95 48.9 21.42 48.9 21.42 48.9 22.31 48.18 23.03 47.28 23.03 47.28 23.03 16.83 23.03 16.83 23.03 15.94 23.03 15.21 22.31 15.21 21.42 15.21 21.42 15.21 17.95 15.21 17.95 15.21 17.95 3.22 17.95 3.22 17.95 3.22 17.95 3.22 90.07 3.22 90.07 3.22 90.07 43.42 90.07 43.42 90.07 44.32 90.07 45.04 90.79 45.04 91.68 45.04 92.57 44.32 93.29 43.42 93.29 43.42 93.29 1.61 93.29 1.61 93.29 0.73 93.29 0 92.57 0 91.68 0 91.68 0 16.35 0 16.35 0 15.45 0.73 14.73 1.61 14.73 1.61 14.73 15.23 14.73 15.23 14.73 15.23 14.73 15.23 10.31 15.23 10.31 15.23 9.43 15.95 8.71 16.83 8.71 16.83 8.71 23.44 8.71 23.44 8.71 23.44 8.71 23.44 8.63 23.44 8.63 23.44 3.88 27.32 0.01 32.07 0.01 36.83 0.01 40.68 3.88 40.68 8.63 40.68 8.63 40.68 8.71 40.68 8.71 40.68 8.71 47.29 8.71 47.29 8.71 48.18 8.71 48.9 9.43 48.9 10.31 48.9 10.31 48.9 14.73 48.9 14.73 48.9 14.73 62.52 14.73 62.52 14.73 63.41 14.73 64.12 15.45 64.12 16.35 64.12 16.35 64.12 55.25 64.12 55.25 69.04 51.52 76.09 50.83 81.61 53.85 86.73 56.68 89.9 62.04 89.9 67.86 89.9 69.55 89.63 71.2 89.11 72.8 88.93 73.57 88.63 74.44 88.23 75.33 88.23 75.33 89.41 75.33 89.41 75.33 90.29 75.33 91.01 76.06 91.01 76.95 91.01 76.95 91.01 76.95 91.01 76.95ZM 45.67 11.93C 45.67 11.93 38.84 11.93 38.84 11.93 38.34 11.93 37.88 11.7 37.56 11.3 37.27 10.92 37.16 10.4 37.27 9.92 37.39 9.43 37.46 9.01 37.46 8.63 37.46 5.66 35.03 3.23 32.06 3.23 29.08 3.23 26.66 5.66 26.66 8.63 26.66 9.02 26.72 9.43 26.84 9.92 26.97 10.4 26.86 10.91 26.56 11.3 26.25 11.7 25.78 11.93 25.29 11.93 25.29 11.93 18.44 11.93 18.44 11.93 18.44 11.93 18.44 19.81 18.44 19.81 18.44 19.81 45.67 19.81 45.67 19.81 45.67 19.81 45.67 11.93 45.67 11.93Z" fill="rgb(255,255,255)"/></svg>