<svg xmlns="http://www.w3.org/2000/svg" xmlns:xlink="http://www.w3.org/1999/xlink" width="68px" height="106px" viewBox="0 0 68 106">
    <path fill="#fff" fillRule="evenodd" d="M 51.78 32.63C 42.83 32.63 35.57 25.32 35.57 16.31 35.57 7.3 42.83-0.02 51.78-0.02 60.73-0.02 67.98 7.3 67.98 16.31 67.98 25.32 60.73 32.63 51.78 32.63ZM 47.36 34.6C 47.36 34.6 20.08 59.9 20.08 59.9 19.26 60.85 18.06 61.46 16.7 61.46 14.23 61.46 12.22 59.44 12.22 56.94 12.22 55.64 12.68 54.67 13.47 53.55 13.47 53.55 35.03 24.66 35.03 24.66 37.45 29.57 41.95 33.28 47.36 34.6ZM 16.54 63.72C 16.54 63.72 11.45 65.5 11.45 65.5 9.17 68.14 4.58 74.43 4.96 78.79 5.07 80.06 5.59 81.02 6.62 81.81 11.33 85.46 20.8 78.17 23.74 75.33 23.99 75.11 28.29 71.27 33.77 68.62 43.78 63.78 49.49 66.82 52.51 70.22 54.87 72.87 55.91 76.05 55.59 79.68 54.53 91.74 38.05 104.9 37.34 105.46 36.89 105.82 36.36 105.99 35.82 105.99 35.08 105.99 34.36 105.66 33.87 105.03 33.03 103.95 33.21 102.38 34.29 101.53 38.59 98.12 49.94 87.46 50.65 79.23 50.84 77.02 50.25 75.16 48.81 73.56 41.96 65.83 27.26 78.86 27.12 79 26.6 79.51 12.66 92.79 3.6 85.78 1.47 84.14 0.23 81.87 0.01 79.21-0.59 72 6.37 63.73 7.99 61.9 7.99 61.9 10.28 57.21 10.28 57.21 10.28 57.21 10.88 59.41 13.12 61.44 15.52 63.6 16.54 63.72 16.54 63.72Z" />
</svg>
