<svg xmlns="http://www.w3.org/2000/svg" xmlns:xlink="http://www.w3.org/1999/xlink" width="94px" height="80px" viewBox="0 0 94 80">
    <path fill="#fff" fillRule="evenodd" d="M 92.03 28.59C 90.72 27.29 89.14 26.64 87.28 26.64 87.28 26.64 87.28 6.65 87.28 6.65 87.28 4.85 86.62 3.29 85.29 1.97 83.96 0.65 82.38-0.01 80.57-0.01 64.45 13.32 48.78 19.97 33.57 19.97 33.57 19.97 8.39 19.97 8.39 19.97 6.09 19.97 4.11 20.79 2.46 22.42 0.82 24.05 0 26.01 0 28.3 0 28.3 0 38.3 0 38.3 0 40.59 0.82 42.55 2.46 44.18 4.11 45.81 6.08 46.63 8.39 46.63 8.39 46.63 14.79 46.63 14.79 46.63 14.2 48.5 13.81 50.42 13.64 52.38 13.46 54.34 13.4 56.05 13.45 57.5 13.5 58.96 13.77 60.71 14.24 62.76 14.71 64.81 15.11 66.35 15.45 67.39 15.78 68.43 16.34 70.07 17.13 72.31 17.91 74.55 18.43 76.07 18.67 76.87 20.28 78.32 22.59 79.29 25.6 79.75 28.6 80.22 31.55 80.02 34.44 79.16 37.32 78.29 39.27 76.85 40.28 74.83 38.96 73.79 37.88 72.92 37.06 72.21 36.24 71.49 35.4 70.63 34.54 69.6 33.68 68.58 33.1 67.63 32.78 66.74 32.47 65.86 32.36 64.85 32.47 63.72 32.57 62.59 32.98 61.46 33.67 60.31 32.34 58.96 31.65 57.35 31.58 55.5 31.51 53.64 32.05 51.9 33.2 50.27 34.36 48.64 35.95 47.49 37.98 46.83 51.79 47.98 65.99 54.57 80.57 66.61 82.38 66.61 83.96 65.95 85.29 64.63 86.62 63.32 87.28 61.75 87.28 59.95 87.28 59.95 87.28 39.96 87.28 39.96 89.14 39.96 90.72 39.31 92.03 38.01 93.34 36.71 94 35.14 94 33.3 94 31.46 93.34 29.89 92.03 28.59 92.03 28.59 92.03 28.59 92.03 28.59ZM 80.57 58.07C 66.9 47.7 53.47 41.79 40.29 40.33 40.29 40.33 40.29 26.27 40.29 26.27 53.36 24.85 66.79 18.9 80.57 8.42 80.57 8.42 80.57 58.07 80.57 58.07Z" />
</svg>
