<svg xmlns="http://www.w3.org/2000/svg" xmlns:xlink="http://www.w3.org/1999/xlink" width="102px" height="89px" viewBox="0 0 102 89">
    <path fillRule="evenodd" fill="#fff" d="M 93.5 72.18C 93.5 72.18 66.11 72.18 66.11 72.18 66.11 72.18 71.23 83.43 71.23 83.43 71.5 83.95 71.66 84.55 71.66 85.19 71.66 87.29 69.95 89 67.83 89 67.83 89 67.83 89 67.83 89 67.83 89 34.17 89 34.17 89 32.87 89 31.66 88.34 30.95 87.25 30.25 86.16 30.15 84.79 30.69 83.61 30.69 83.61 35.89 72.18 35.89 72.18 35.89 72.18 8.5 72.18 8.5 72.18 3.81 72.18-0 68.38-0 63.71-0 63.71-0 8.47-0 8.47-0 3.8 3.81-0 8.5-0 8.5-0 93.5-0 93.5-0 98.19-0 102 3.8 102 8.47 102 8.47 102 63.71 102 63.71 102 68.38 98.19 72.18 93.5 72.18ZM 94.35 8.47C 94.35 8.01 93.97 7.63 93.5 7.63 93.5 7.63 8.5 7.63 8.5 7.63 8.03 7.63 7.65 8.01 7.65 8.47 7.65 8.47 7.65 63.71 7.65 63.71 7.65 64.18 8.03 64.55 8.5 64.55 8.5 64.55 93.5 64.55 93.5 64.55 93.97 64.55 94.35 64.18 94.35 63.71 94.35 63.71 94.35 8.47 94.35 8.47ZM 64.43 29.24C 64.27 29.4 64.08 29.49 63.88 29.5 63.69 29.52 63.5 29.46 63.37 29.33 63.37 29.33 57.48 23.45 57.48 23.45 57.21 23.19 57.25 22.71 57.57 22.39 57.57 22.39 61.72 18.26 61.72 18.26 62.04 17.94 62.51 17.9 62.78 18.17 62.78 18.17 68.67 24.04 68.67 24.04 68.94 24.31 68.9 24.78 68.58 25.1 68.58 25.1 64.43 29.24 64.43 29.24ZM 62.32 31.06C 62.31 31.26 62.21 31.45 62.06 31.61 62.06 31.61 57.45 36.2 57.45 36.2 57.98 36.8 58.49 37.39 58.98 37.97 59.24 38.28 59.34 38.69 59.25 39.09 59.16 39.48 58.89 39.81 58.52 39.98 57.7 40.35 56.94 40.89 56.25 41.58 55.7 42.12 55.25 42.69 54.9 43.26 54.7 43.59 54.37 43.81 53.99 43.87 53.93 43.88 53.86 43.89 53.79 43.89 53.48 43.89 53.18 43.78 52.95 43.58 52.44 43.15 51.92 42.7 51.4 42.24 51.4 42.24 45.42 48.2 45.42 48.2 45.26 48.36 45.06 48.45 44.87 48.46 44.67 48.48 44.49 48.42 44.36 48.29 44.36 48.29 38.46 42.41 38.46 42.41 38.2 42.15 38.23 41.67 38.55 41.35 38.55 41.35 44.42 35.51 44.42 35.51 41.33 32.26 38.63 29.03 36.66 26.21 34.59 23.25 33.45 20.91 33.44 19.61 33.43 19.26 33.57 18.92 33.82 18.68 34.07 18.43 34.41 18.29 34.76 18.3 36.67 18.33 40.11 20.59 41.99 21.94 44.65 23.85 47.68 26.39 50.7 29.24 50.7 29.24 55.19 24.76 55.19 24.76 55.51 24.44 55.99 24.41 56.26 24.67 56.26 24.67 62.15 30.55 62.15 30.55 62.28 30.68 62.34 30.86 62.32 31.06ZM 36.6 43.75C 36.87 43.66 37.14 43.71 37.32 43.89 37.32 43.89 42.88 49.43 42.88 49.43 43.05 49.61 43.1 49.88 43.01 50.14 42.92 50.41 42.7 50.63 42.43 50.71 42.43 50.71 34.03 53.54 34.03 53.54 33.97 53.56 33.9 53.58 33.84 53.58 33.65 53.6 33.46 53.54 33.33 53.41 33.16 53.23 33.1 52.97 33.19 52.7 33.19 52.7 36.03 44.33 36.03 44.33 36.12 44.06 36.34 43.84 36.6 43.75ZM 61.78 41.07C 63.59 41.07 65.34 42 66.6 43.64 68.23 45.76 68.88 48.79 68.42 52.15 68.36 52.6 68.08 52.98 67.66 53.16 67.5 53.24 67.31 53.28 67.13 53.28 66.88 53.28 66.62 53.2 66.4 53.05 65.35 52.34 64.16 52.15 62.9 51.95 61.71 51.76 60.35 51.55 58.87 50.86 57.14 50.06 56.01 48.79 55.75 47.36 55.5 45.92 56.14 44.39 57.6 42.93 58.82 41.71 60.27 41.07 61.78 41.07Z" />
</svg>
