<?xml version="1.0" encoding="utf-8"?>
<!-- Generator: Adobe Illustrator 16.0.0, SVG Export Plug-In . SVG Version: 6.00 Build 0)  -->
<!DOCTYPE svg PUBLIC "-//W3C//DTD SVG 1.1//EN" "http://www.w3.org/Graphics/SVG/1.1/DTD/svg11.dtd">
<svg version="1.1" id="Capa_1" xmlns="http://www.w3.org/2000/svg" xmlns:xlink="http://www.w3.org/1999/xlink" x="0px" y="0px"
	 width="512px" height="416.066px" viewBox="0 47.958 512 416.066" enable-background="new 0 47.958 512 416.066"
	 xml:space="preserve">
<g>
	<path fill="#FFDA44" d="M410.404,73.685c0.331-15.694-0.265-25.61-0.265-25.61l-153.361-0.116l0,0H256h-0.778l0,0l-153.378,0.116
		c0,0-0.58,9.916-0.248,25.61H0v16.753c0,3.824,0.646,94.03,56.319,143.446c23.226,20.61,52.196,30.973,86.349,30.99
		c5.165,0,10.479-0.348,15.859-0.811c19.402,26.57,41.817,45.178,67.029,54.447v73.586h-74.016v46.088h-24.451v25.841h128.133h1.556
		H384.91v-25.825h-24.468v-46.088h-74.015v-73.584c25.195-9.271,47.627-27.879,67.029-54.449c5.413,0.464,10.728,0.795,15.893,0.795
		c34.135-0.033,63.105-10.379,86.332-31.006C511.354,184.451,512,94.245,512,90.421V73.685H410.404z M78.667,208.902
		c-31.801-28.143-41.205-76.317-43.986-101.711h68.834c2.914,31.636,9.768,71.052,25.577,105.701
		c2.897,6.357,5.943,12.383,9.055,18.276C114.425,230.258,94.46,222.858,78.667,208.902z M433.333,208.902
		c-15.776,13.972-35.758,21.355-59.465,22.266c3.112-5.876,6.159-11.919,9.056-18.276c15.81-34.649,22.663-74.065,25.561-105.701
		h68.834C474.537,132.569,465.15,180.743,433.333,208.902z"/>
</g>
</svg>
