<?xml version="1.0" encoding="utf-8"?>
<!-- Generator: Adobe Illustrator 16.0.0, SVG Export Plug-In . SVG Version: 6.00 Build 0)  -->
<!DOCTYPE svg PUBLIC "-//W3C//DTD SVG 1.1//EN" "http://www.w3.org/Graphics/SVG/1.1/DTD/svg11.dtd">
<svg version="1.1" id="Capa_1" xmlns="http://www.w3.org/2000/svg" xmlns:xlink="http://www.w3.org/1999/xlink" x="0px" y="0px"
	 width="442.344px" height="442.344px" viewBox="0 0 442.344 442.344" enable-background="new 0 0 442.344 442.344"
	 xml:space="preserve">
<g>
	<path d="M295.975,0c37.621,0,68.109,30.495,68.109,68.11c0,37.614-30.488,68.106-68.109,68.106
		c-37.609,0-68.105-30.492-68.105-68.106C227.87,30.495,258.366,0,295.975,0z"/>
	<path d="M148.576,256.536c5.681,0,10.722-2.562,14.183-6.532L277.4,144.44c-22.754-5.521-41.646-20.963-51.823-41.475
		l-90.568,120.557c-3.338,4.662-5.316,8.726-5.316,14.123C129.693,248.072,138.157,256.536,148.576,256.536z"/>
	<path d="M93.474,358.007c38.097,29.274,96.661-26.176,98.849-28.292c0.629-0.549,62.4-54.934,91.197-22.723
		c6.012,6.701,8.523,14.459,7.727,23.712c-3.029,34.308-50.674,78.774-68.785,93.009c-4.521,3.56-5.306,10.118-1.75,14.645
		c2.056,2.619,5.102,3.986,8.201,3.986c2.239,0,4.523-0.736,6.406-2.217c2.962-2.324,72.25-57.222,76.684-107.575
		c1.334-15.106-3.021-28.381-12.938-39.465c-12.695-14.198-36.695-26.878-78.794-6.668c-23.048,11.044-41.072,27.069-42.104,27.987
		c-12.385,11.854-52.203,42.259-72.002,27.054c-4.31-3.31-6.524-7.313-6.989-12.595c-1.559-18.238,17.721-44.495,27.312-55.483
		l21.362-7.448c0,0-4.278-0.478-14.351-9.507c-9.419-8.464-11.918-17.616-11.918-17.616l-9.614,19.532
		c-6.847,7.634-36.097,42.193-33.552,72.277C79.348,341.693,84.553,351.167,93.474,358.007z"/>
</g>
</svg>
