<?xml version="1.0" encoding="UTF-8" standalone="no"?>
<svg
   xmlns:dc="http://purl.org/dc/elements/1.1/"
   xmlns:cc="http://creativecommons.org/ns#"
   xmlns:rdf="http://www.w3.org/1999/02/22-rdf-syntax-ns#"
   xmlns:svg="http://www.w3.org/2000/svg"
   xmlns="http://www.w3.org/2000/svg"
   xmlns:sodipodi="http://sodipodi.sourceforge.net/DTD/sodipodi-0.dtd"
   xmlns:inkscape="http://www.inkscape.org/namespaces/inkscape"
   width="93.561996"
   height="93.561996"
   viewBox="0 0 93.562 93.562"
   version="1.1"
   id="svg4"
   sodipodi:docname="plus--black.svg"
   inkscape:version="0.92.4 (5da689c313, 2019-01-14)">
  <metadata
     id="metadata10">
    <rdf:RDF>
      <cc:Work
         rdf:about="">
        <dc:format>image/svg+xml</dc:format>
        <dc:type
           rdf:resource="http://purl.org/dc/dcmitype/StillImage" />
        <dc:title></dc:title>
      </cc:Work>
    </rdf:RDF>
  </metadata>
  <defs
     id="defs8" />
  <sodipodi:namedview
     pagecolor="#ffffff"
     bordercolor="#666666"
     borderopacity="1"
     objecttolerance="10"
     gridtolerance="10"
     guidetolerance="10"
     inkscape:pageopacity="0"
     inkscape:pageshadow="2"
     inkscape:window-width="716"
     inkscape:window-height="480"
     id="namedview6"
     showgrid="false"
     inkscape:zoom="2.5223917"
     inkscape:cx="46.780998"
     inkscape:cy="46.780998"
     inkscape:window-x="0"
     inkscape:window-y="0"
     inkscape:window-maximized="0"
     inkscape:current-layer="svg4" />
  <path
     d="M87.952 41.17l-36.386.11V5.61c0-3.108-2.502-5.61-5.61-5.61-3.107 0-5.61 2.502-5.61 5.61l.11 35.561H5.61c-3.108 0-5.61 2.502-5.61 5.61 0 3.107 2.502 5.609 5.61 5.609h34.791v35.562c0 3.106 2.502 5.61 5.61 5.61 3.108 0 5.61-2.504 5.61-5.61V52.391h36.331c3.108 0 5.61-2.504 5.61-5.61 0-3.109-2.53-5.611-5.61-5.611z"
     fill="#fff"
     id="path2"
     style="fill:#000000;fill-opacity:1" />
</svg>
