<?xml version="1.0" encoding="UTF-8" standalone="no"?>
<svg
   xmlns:dc="http://purl.org/dc/elements/1.1/"
   xmlns:cc="http://creativecommons.org/ns#"
   xmlns:rdf="http://www.w3.org/1999/02/22-rdf-syntax-ns#"
   xmlns:svg="http://www.w3.org/2000/svg"
   xmlns="http://www.w3.org/2000/svg"
   xmlns:sodipodi="http://sodipodi.sourceforge.net/DTD/sodipodi-0.dtd"
   xmlns:inkscape="http://www.inkscape.org/namespaces/inkscape"
   width="92.1315"
   height="90.412247"
   viewBox="0 0 92.131496 90.412243"
   version="1.1"
   id="svg4"
   sodipodi:docname="times--black.svg"
   inkscape:version="0.92.4 (5da689c313, 2019-01-14)">
  <metadata
     id="metadata10">
    <rdf:RDF>
      <cc:Work
         rdf:about="">
        <dc:format>image/svg+xml</dc:format>
        <dc:type
           rdf:resource="http://purl.org/dc/dcmitype/StillImage" />
        <dc:title></dc:title>
      </cc:Work>
    </rdf:RDF>
  </metadata>
  <defs
     id="defs8" />
  <sodipodi:namedview
     pagecolor="#ffffff"
     bordercolor="#666666"
     borderopacity="1"
     objecttolerance="10"
     gridtolerance="10"
     guidetolerance="10"
     inkscape:pageopacity="0"
     inkscape:pageshadow="2"
     inkscape:window-width="716"
     inkscape:window-height="480"
     id="namedview6"
     showgrid="false"
     inkscape:zoom="2.6102659"
     inkscape:cx="46.06575"
     inkscape:cy="45.206123"
     inkscape:window-x="0"
     inkscape:window-y="0"
     inkscape:window-maximized="0"
     inkscape:current-layer="svg4" />
  <path
     d="M2.14100007 88.27025c1.425 1.429 3.299 2.142 5.167 2.142 1.869 0 3.742-.713 5.167-2.142l33.591-33.592 33.591 33.592c1.426 1.429 3.299 2.142 5.167 2.142 1.867 0 3.74-.713 5.167-2.142 2.854-2.854 2.854-7.48 0-10.334l-33.593-33.591 31.869-31.869c2.855-2.853 2.855-7.481 0-10.334-2.853-2.855-7.479-2.855-10.334 0l-31.868 31.868-31.867-31.869c-2.854-2.855-7.481-2.855-10.333 0-2.855 2.853-2.855 7.481 0 10.334l31.868 31.869-33.59 33.591c-2.857 2.853-2.857 7.479-.002 10.335z"
     fill="#fff"
     id="path2"
     style="fill:#000000;fill-opacity:1" />
</svg>
