<svg xmlns="http://www.w3.org/2000/svg" viewBox="0 0 384.93328 511.26854" width="384.93329" height="511.26855">
  <path d="M77.198923 465.067c-23.467-26.667-46.933-54.4-61.867-87.467C.39892349 342.4-3.8680765 301.867 3.5989235 263.467c7.4669995-38.4 24.5329995-74.667 49.0669995-105.6-2.133 26.667 7.467 54.4 25.6 74.667-10.667-51.2 6.4-106.667 40.532997-147.2 34.133-40.533 81.067-67.201 130.133-85.334-24.533 25.6-27.733 66.133-18.133 100.267 9.6 34.133 29.867 64 48 94.933 18.133 30.933 35.2 62.933 36.267 98.133 9.6-18.133 20.267-36.267 26.667-56.533 6.4-20.267 9.6-41.6 4.267-61.867 19.2 23.467 29.867 46.933 35.2 76.8 5.333 29.867 4.267 60.8 1.067 90.667-4.267 33.067-12.8 67.2-30.933 94.933-21.333 33.067-55.467 56.533-92.8 69.333-66.135 11.734-131.202 2.134-181.334997-41.599z" fill="#fff"/>
  <path d="M158.26592 504.533c87.466 34.134 173.866-69.333 125.866-149.333 0-1.067-1.067-1.067-1.067-2.133 4.267 43.733-6.4 75.733-26.667 93.867 10.667-25.6 3.2-55.467-9.6-81.067-12.8-24.533-30.933-46.933-44.8-70.4-13.867-24.533-24.533-52.267-18.133-80-25.6 19.2-43.733 48-51.2 78.933-7.467 30.933-3.2 65.067 10.667 93.867-16-11.733-27.733-30.933-28.8-51.2-17.066997 20.267-27.732997 46.933-26.666997 73.6.001 41.6 33.066997 78.933 70.400997 93.866z" fill="none"/>
</svg>