<svg xmlns="http://www.w3.org/2000/svg" xmlns:xlink="http://www.w3.org/1999/xlink" width="107px" height="107px" viewBox="0 0 107 107">
    <path fill="#fff" fillRule="evenodd" d="M 91.33 15.67C 101.43 25.77 107 39.21 107 53.5 107 67.79 101.43 81.22 91.33 91.33 81.22 101.43 67.79 107 53.5 107 39.21 107 25.77 101.43 15.67 91.33 5.57 81.22-0 67.79-0 53.5-0 39.21 5.56 25.77 15.67 15.67 25.77 5.57 39.21-0 53.5-0 67.79-0 81.22 5.57 91.33 15.67 91.33 15.67 91.33 15.67 91.33 15.67ZM 86.6 86.6C 93.19 80.01 97.57 71.8 99.38 62.88 97.97 64.95 96.62 65.72 95.79 61.08 94.93 53.51 87.98 58.34 83.61 55.66 79.02 58.76 68.68 49.63 70.44 59.92 73.15 64.56 85.07 53.71 79.13 63.53 75.34 70.39 65.27 85.57 66.58 93.44 66.74 104.91 54.86 95.84 50.76 92.03 48.01 84.41 49.83 71.09 42.63 67.36 34.81 67.02 28.1 66.31 25.07 57.57 23.25 51.32 27.01 42.02 33.71 40.58 43.52 34.42 47.02 47.8 56.22 48.04 59.07 45.06 66.86 44.11 67.5 40.76 61.47 39.69 75.16 35.68 66.92 33.4 62.38 33.94 59.45 38.11 61.87 41.65 53.07 43.7 52.78 28.91 44.32 33.58 44.11 40.96 30.51 35.97 39.62 34.47 42.75 33.11 34.51 29.14 38.96 29.86 41.15 29.75 48.5 27.17 46.51 25.43 50.61 22.89 54.05 31.52 58.06 25.24 60.96 20.4 56.85 19.51 53.22 21.96 51.18 19.67 56.83 14.72 61.82 12.58 63.49 11.87 65.08 11.48 66.29 11.59 68.8 14.5 73.45 15 73.7 11.24 67.47 8.26 60.61 6.69 53.5 6.69 43.3 6.69 33.6 9.93 25.57 15.92 27.73 16.91 28.95 18.14 26.87 19.72 25.26 24.53 18.7 30.99 12.95 30.07 9.96 35.22 8 40.9 7.16 46.85 11.97 48.44 13.09 51.6 12.05 52.65 9.59 54.79 8.09 57.83 7.31 61.15 8.88 70.75 13.39 79.59 20.4 86.6 29.24 95.44 41 100.31 53.5 100.31 66 100.31 77.76 95.44 86.6 86.6 86.6 86.6 86.6 86.6 86.6 86.6Z" />
</svg>
