<svg xmlns="http://www.w3.org/2000/svg" width="92.1315" height="90.412247" viewBox="0 0 92.131496 90.412243">
  <path d="M2.14100007 88.27025c1.425 1.429 3.299 2.142 5.167 2.142 1.869 0 3.742-.713 5.167-2.142l33.591-33.592 33.591 33.592c1.426 1.429 3.299 2.142 5.167 2.142 1.867 0 3.74-.713 5.167-2.142 2.854-2.854 2.854-7.48 0-10.334l-33.593-33.591 31.869-31.869c2.855-2.853 2.855-7.481 0-10.334-2.853-2.855-7.479-2.855-10.334 0l-31.868 31.868-31.867-31.869c-2.854-2.855-7.481-2.855-10.333 0-2.855 2.853-2.855 7.481 0 10.334l31.868 31.869-33.59 33.591c-2.857 2.853-2.857 7.479-.002 10.335z"/>
</svg>